<svg width="170" height="170" viewBox="0 0 170 170" fill="none" xmlns="http://www.w3.org/2000/svg">
<g clip-path="url(#clip0_925_49184)">
<path d="M6.92466 64.6483C8.64149 65.1504 10.4392 64.1624 10.9379 62.4425C20.5321 29.4915 51.2284 6.47823 85.5884 6.47823C91.0885 6.47823 96.5559 7.05139 101.881 8.1886C101.764 12.8494 103.776 16.0466 105.071 18.1001C105.431 18.6702 105.92 19.4476 105.978 19.5542C105.978 31.1697 103.604 33.0611 103.63 33.0675C98.379 33.0675 89.7634 37.7576 86.5241 43.805C84.5355 47.5138 84.6972 51.4394 86.9742 54.8598C88.5354 57.2017 89.8795 59.8056 91.1819 62.3256C93.9349 67.6572 96.9894 73.5717 101.786 73.5717C102.8 73.5717 103.895 73.306 105.08 72.7135C108.857 70.8251 111.565 65.4549 114.182 60.2657C115.335 57.9787 117.029 54.6233 118.033 53.5574C121.321 54.0046 122.928 56.9778 125.101 61.6876C126.701 65.1535 128.356 68.7325 131.608 70.3586C137.082 73.0957 155.082 70.2292 165.029 66.0052C166.516 65.3736 167.309 63.7411 166.888 62.1799C160.089 37.0447 141.623 16.1369 117.486 6.25428C115.831 5.57407 113.936 6.36777 113.259 8.02272C112.582 9.67767 113.376 11.5695 115.031 12.2463C136.412 21.0046 152.973 39.1271 159.824 61.0784C149.744 64.6316 136.807 65.7004 134.504 64.5636C133.287 63.9548 132.062 61.3084 130.983 58.9728C128.726 54.082 125.633 47.3836 117.736 47.0337C113.655 46.7873 111.355 51.4842 108.398 57.3502C106.661 60.7899 104.041 65.9885 101.952 67.0157C100.75 66.734 98.3631 62.1119 96.9377 59.352C95.6195 56.7998 94.1262 53.907 92.3642 51.2674C91.4088 49.8357 91.3697 48.4753 92.2348 46.8625C94.4599 42.7099 101.136 39.5454 103.63 39.5454C109.486 39.5454 112.456 32.8212 112.456 19.5539C112.456 17.6689 111.488 16.1335 110.555 14.6467C109.181 12.4733 107.766 10.2224 108.605 6.38067C108.977 4.67372 107.928 2.97626 106.234 2.54885C99.5261 0.858222 92.5783 0 85.5884 0C48.3653 0 15.1098 24.9344 4.71895 60.635C4.21677 62.3518 5.20784 64.1495 6.92466 64.6483Z" fill="#5093EA"/>
<mask id="mask0_925_49184" style="mask-type:alpha" maskUnits="userSpaceOnUse" x="-13" y="56" width="118" height="140">
<rect x="-13" y="56.3228" width="117.228" height="138.787" fill="#D9D9D9"/>
</mask>
<g mask="url(#mask0_925_49184)">
<path d="M169 75.7053C168.754 73.9304 167.096 72.6964 165.35 72.9393C163.578 73.1857 162.338 74.8213 162.584 76.5931C163.076 80.1528 163.326 83.7774 163.326 87.3598C163.326 129.914 147.122 151.542 101.983 159.178C89.1819 157.157 64.2077 148.724 69.0177 137.504C77.6531 117.347 69.617 109.836 66.1834 106.623L65.5389 106.01C64.5573 105.032 63.4497 104.365 62.4746 103.779C60.1037 102.357 59.4657 101.975 60.7384 98.1557C61.5807 95.6194 62.7012 94.4374 63.9936 93.0671C66.9896 89.8992 69.2796 86.7479 69.2796 77.5876C69.2796 72.2561 66.5751 68.0033 61.8589 65.9206C56.511 63.5562 49.3689 64.3916 45.5925 67.8188C43.2346 69.9631 42.4409 72.8816 43.4191 75.8192C45.7284 82.7347 40.4519 92.7304 30.5924 100.125C27.9817 102.081 27.2043 101.184 26.7378 100.65C23.8455 97.3165 24.069 87.8358 26.4429 85.465C28.0333 83.8745 28.5063 81.8438 27.7061 80.0332C25.0825 74.083 8.34624 74.543 5.02647 74.6987C3.44895 74.7731 2.15346 75.9718 1.95911 77.5394C1.54765 80.8884 1.37305 83.8263 1.37305 87.3602C1.37305 126.197 27.6708 159.814 65.3218 169.117C67.0515 169.548 68.8135 168.485 69.2409 166.749C69.6717 165.013 68.6093 163.258 66.8731 162.83C32.1214 154.242 7.85127 123.206 7.85127 87.3594C7.85127 85.1116 7.92909 83.126 8.10066 81.1017C13.581 81.0953 18.2357 81.7299 20.61 82.4557C16.8947 88.2567 17.3027 99.6615 21.844 104.896C25.0992 108.647 29.8219 108.802 34.4797 105.307C46.9241 95.9754 52.8451 83.5925 49.564 73.7717C49.4604 73.451 49.3568 73.15 49.9527 72.6091C51.6566 71.0608 55.9937 70.4064 59.2391 71.8446C61.6361 72.9036 62.8021 74.7825 62.8021 77.5876C62.8021 84.8982 61.3282 86.4594 59.2876 88.6166C57.775 90.2199 55.8901 92.2119 54.5911 96.1087C51.6794 104.858 56.3501 107.662 59.1419 109.337C59.8642 109.768 60.5444 110.176 60.9589 110.59C61.1954 110.827 61.4641 111.08 61.7591 111.355C64.6093 114.017 69.9086 118.976 63.0644 134.948C55.3036 153.058 101.533 159.178 101.983 159.178C107.148 159.178 120.01 156.259 120.622 156.259C167.057 156.259 169.804 133.795 169.804 87.3598C169.804 83.479 169.535 79.5595 169 75.7053Z" fill="#222222"/>
</g>
</g>
<defs>
<clipPath id="clip0_925_49184">
<rect width="170" height="170" fill="white"/>
</clipPath>
</defs>
</svg>
