<svg width="580" height="252" viewBox="0 0 580 252" fill="none" xmlns="http://www.w3.org/2000/svg">
<path d="M116.62 125.12H106.36V126.2L108.52 173H84.4L86.56 129.26L84.4 48.8H123.46C134.98 48.8 144.16 51.92 151 58.16C157.84 64.4 161.26 72.68 161.26 83C161.26 90.8 159.22 97.94 155.14 104.42C151.18 110.78 145.78 115.82 138.94 119.54L170.26 163.82L148.48 174.98L120.4 124.94C119.56 125.06 118.3 125.12 116.62 125.12ZM116.98 66.98H108.16L106.9 107.66H119.14C125.14 107.66 129.76 105.68 133 101.72C136.36 97.76 138.04 92.12 138.04 84.8C138.04 72.92 131.02 66.98 116.98 66.98ZM217.078 154.64C220.558 154.64 224.218 153.74 228.058 151.94C231.898 150.14 234.898 148.34 237.058 146.54L240.298 143.84L248.578 153.92C247.378 155.96 245.518 158.3 242.998 160.94C240.478 163.58 237.898 165.86 235.258 167.78C232.738 169.58 229.318 171.26 224.998 172.82C220.798 174.26 216.418 174.98 211.858 174.98C202.138 174.98 194.218 171.32 188.098 164C181.978 156.56 178.918 147.02 178.918 135.38C178.918 120.74 183.178 107.9 191.698 96.86C200.218 85.82 210.178 80.3 221.578 80.3C230.338 80.3 237.118 82.76 241.918 87.68C246.838 92.6 249.298 99.5 249.298 108.38C249.298 113.66 248.398 119.66 246.598 126.38L242.998 130.16L197.998 134.3C200.038 147.86 206.398 154.64 217.078 154.64ZM217.078 98.84C211.798 98.84 207.358 101 203.758 105.32C200.158 109.52 198.058 114.92 197.458 121.52L228.058 117.74C228.418 114.98 228.598 112.7 228.598 110.9C228.598 102.86 224.758 98.84 217.078 98.84Z" fill="#1C3254"/>
<path d="M268.97 173L271.13 129.26L268.97 52.4L294.53 47.9L292.01 126.2L293.27 155.36L330.17 152.48L328.19 173H268.97ZM365.771 81.38L363.611 126.2L365.591 168.5L341.471 173L343.631 129.26L341.651 85.88L365.771 81.38ZM340.391 55.1C340.391 51.02 341.951 47.42 345.071 44.3C348.191 41.06 351.791 39.44 355.871 39.44C359.951 39.44 363.071 40.58 365.231 42.86C367.391 45.02 368.471 48.32 368.471 52.76C368.471 57.2 366.911 61.04 363.791 64.28C360.791 67.4 357.251 68.96 353.171 68.96C349.211 68.96 346.091 67.64 343.811 65C341.531 62.36 340.391 59.06 340.391 55.1ZM433.656 55.82C429.216 54.74 425.196 54.2 421.596 54.2C417.996 54.2 415.356 55.28 413.676 57.44C412.116 59.6 411.336 63.38 411.336 68.78L411.156 85.88H430.596L428.616 100.64H411.156L410.976 126.2L412.956 168.5L388.656 173L390.816 129.26L390.096 100.64H378.216L380.196 85.88H389.736L389.556 72.2C389.556 61.52 392.856 52.46 399.456 45.02C406.056 37.46 414.096 33.68 423.576 33.68C428.616 33.68 433.836 34.22 439.236 35.3L433.656 55.82ZM472.488 154.64C475.968 154.64 479.628 153.74 483.468 151.94C487.308 150.14 490.308 148.34 492.468 146.54L495.708 143.84L503.988 153.92C502.788 155.96 500.928 158.3 498.408 160.94C495.888 163.58 493.308 165.86 490.668 167.78C488.148 169.58 484.728 171.26 480.408 172.82C476.208 174.26 471.828 174.98 467.268 174.98C457.548 174.98 449.628 171.32 443.508 164C437.388 156.56 434.328 147.02 434.328 135.38C434.328 120.74 438.588 107.9 447.108 96.86C455.628 85.82 465.588 80.3 476.988 80.3C485.748 80.3 492.528 82.76 497.328 87.68C502.248 92.6 504.708 99.5 504.708 108.38C504.708 113.66 503.808 119.66 502.008 126.38L498.408 130.16L453.408 134.3C455.448 147.86 461.808 154.64 472.488 154.64ZM472.488 98.84C467.208 98.84 462.768 101 459.168 105.32C455.568 109.52 453.468 114.92 452.868 121.52L483.468 117.74C483.828 114.98 484.008 112.7 484.008 110.9C484.008 102.86 480.168 98.84 472.488 98.84Z" fill="#5079EA"/>
<path d="M288.945 204C136.314 203.565 0 251.997 0 251.997C223.564 204.807 356.964 205.134 580 251.997C580 251.997 441.577 204.435 288.945 204Z" fill="#1C3254"/>
</svg>
