<svg width="305" height="305" viewBox="0 0 305 305" fill="none" xmlns="http://www.w3.org/2000/svg">
<path d="M40.738 112.119C14.953 156.864 31.345 224.767 59.859 265.939C74.092 286.523 88.502 305 108.239 305C108.611 305 108.984 304.993 109.366 304.978C118.639 304.608 125.34 301.753 131.819 298.994C139.093 295.894 146.616 292.689 158.416 292.689C169.642 292.689 176.806 295.79 183.734 298.788C190.562 301.742 197.595 304.798 207.987 304.603C230.219 304.189 243.869 284.251 255.912 266.662C268.479 248.297 274.783 230.466 276.91 223.652L276.996 223.381C277.401 222.17 276.829 220.848 275.668 220.315C275.636 220.3 275.518 220.251 275.485 220.237C271.57 218.636 237.228 203.401 236.867 161.877C236.532 128.141 262.63 110.276 267.864 107.038L268.108 106.886C268.675 106.521 269.07 105.942 269.204 105.28C269.338 104.619 269.198 103.931 268.818 103.375C250.804 77.013 223.194 73.04 212.078 72.562C210.465 72.401 208.8 72.32 207.128 72.32C194.072 72.32 181.565 77.251 171.517 81.213C164.581 83.948 158.59 86.31 154.458 86.31C149.815 86.31 143.79 83.919 136.813 81.151C127.483 77.448 116.908 73.252 105.713 73.252C105.446 73.252 105.183 73.255 104.924 73.26C78.894 73.643 54.298 88.535 40.738 112.119Z" fill="white"/>
<path d="M212.101 0.00200154C196.338 0.644002 177.429 10.347 166.127 23.585C156.522 34.712 147.139 53.264 149.611 71.964C149.766 73.134 150.718 74.037 151.895 74.128C152.959 74.211 154.045 74.253 155.127 74.254C170.54 74.254 187.167 65.727 198.522 51.997C210.473 37.499 216.516 18.893 214.688 2.227C214.544 0.921001 213.395 -0.0489985 212.101 0.00200154Z" fill="white"/>
</svg>
