<svg
    width="481"
    height="481"
    viewBox="0 0 481 481"
    fill="currentColor"
>
    <path d="M469.877 170.658C469.943 170.361 470.015 170.074 470.076 169.768L469.579 169.669C458.256 132.54 437.931 98.521 409.706 70.295C364.376 24.965 304.106 0 240 0C175.894 0 115.624 24.965 70.294 70.296C24.964 115.626 0.000976562 175.896 0.000976562 240.002C0.000976562 304.108 24.965 364.378 70.294 409.708C115.623 455.038 175.893 480.002 240 480.002C304.107 480.002 364.376 455.038 409.707 409.708C455.038 364.378 480.002 304.108 480.002 240.002C480.001 216.166 476.543 192.862 469.877 170.658ZM345.198 46.682C362.132 55.928 377.931 67.467 392.198 81.153C390.867 84.858 388.605 88.933 385.093 88.933C385.038 88.933 384.983 88.932 384.927 88.93C381.912 88.821 378.417 87.674 374.717 86.461C369.111 84.623 362.756 82.537 355.536 83.12C348.47 83.687 342.413 86.67 337.07 89.301C332.061 91.767 327.736 93.9 324.637 93.125C321.69 92.391 318.607 88.682 315.444 84.618C314.038 82.812 313.168 81.517 312.848 80.757C313.225 80.128 313.992 79.135 314.4 78.607C318.382 73.453 325.108 66.856 331.613 60.476C336.306 55.872 341.09 51.169 345.198 46.682ZM274.868 22.747C273.702 30.194 270.481 40.01 267.565 43.617C264.342 47.602 258.645 49.442 254.865 47.721C251.052 45.983 248.033 40.552 246.791 33.193C245.977 28.369 244.372 24.01 242.678 20.034C253.557 20.162 264.308 21.075 274.868 22.747ZM84.437 84.438C110.53 58.345 142.025 39.618 176.398 29.292C180.549 42.94 185.604 55.726 190.534 67.809C194.308 77.062 198.587 87.548 197.621 97.038C197.251 100.672 196.328 105.319 194.027 106.824C192.026 108.134 188.009 108.469 183.758 108.824C176.75 109.409 168.029 110.137 160.085 115.715C158.388 116.906 156.812 118.138 155.289 119.327C152.016 121.884 148.924 124.298 146.041 125.106C143.191 125.906 139.519 125.487 135.265 125.002C132.822 124.724 130.295 124.437 127.621 124.349C119.133 124.037 99.785 128.115 91.361 139.117C87.198 144.554 85.999 151.126 87.985 157.623C89.456 162.438 92.608 165.797 95.499 168.449C109.002 180.829 127.534 189.597 146.341 192.507C149.031 192.923 151.635 193.241 154.154 193.55C167.945 195.238 174.806 196.465 180.022 205.864C181.321 208.205 182.367 210.976 183.475 213.91C184.75 217.289 186.069 220.783 187.99 224.305C193.694 234.768 203.31 240.897 213.076 240.353C220.366 239.933 225.75 236.128 230.076 233.072C232.072 231.662 233.957 230.33 235.57 229.658C239.905 227.848 246.523 229.455 253.265 233.949C257.889 237.032 263.871 242.132 266.11 248.919C267.795 254.025 266.629 259.936 263.36 262.699L233.97 287.8C224.506 295.884 214.38 305.7 214.039 319.935C213.931 324.437 214.86 328.76 215.679 332.575C216.253 335.244 217.212 339.712 216.697 340.879C216.158 341.358 213.638 341.976 212.133 342.345C209.481 342.994 206.476 343.73 203.422 345.273C188.616 352.749 187.233 370.461 186.317 382.183C185.653 390.686 182.499 397.842 179.284 398.136C176.669 398.387 172.976 393.866 171.693 388.855C170.897 385.746 170.523 382.28 170.127 378.61C169.557 373.323 168.91 367.33 166.787 361.445C164.051 353.862 159.288 347.611 155.086 342.096C150.959 336.678 147.06 331.561 145.801 326.238C144.858 322.251 145.238 317.46 145.642 312.386C146.156 305.926 146.738 298.604 144.689 291.151C141.777 280.557 134.561 272.987 128.194 266.306C124.013 261.92 120.064 257.777 117.718 253.301C114.89 247.905 115.241 242.249 115.648 235.7C116.033 229.493 116.47 222.457 113.999 215.218C111.531 207.989 105.697 203.813 101.376 200.719C88.708 191.65 76.842 181.322 66.109 170.021C60.371 163.98 54.762 157.382 52.589 150.079C52.021 148.17 51.628 146.728 51.319 145.6C49.946 140.572 49.137 138.776 46.252 135.583C56.295 117.009 69.088 99.787 84.437 84.438ZM240 460.002C181.236 460.002 125.989 437.118 84.437 395.565C42.885 354.013 20.001 298.766 20.001 240.002C20.001 212.206 25.128 185.199 34.922 160.053C38.701 169.384 45.118 176.96 51.608 183.793C63.212 196.01 76.04 207.176 89.795 217.022C91.738 218.414 94.676 220.517 95.072 221.678C96.263 225.168 95.996 229.475 95.687 234.46C95.195 242.382 94.584 252.239 100.004 262.582C103.652 269.543 108.769 274.911 113.717 280.103C119.142 285.794 123.827 290.71 125.404 296.45C126.522 300.517 126.125 305.513 125.705 310.8C125.221 316.892 124.672 323.796 126.338 330.84C128.575 340.3 134.208 347.693 139.177 354.215C142.83 359.01 146.28 363.538 147.973 368.231C149.282 371.859 149.748 376.18 150.241 380.754C150.695 384.963 151.165 389.315 152.317 393.814C155.493 406.222 165.56 418.149 178.999 418.148C179.69 418.148 180.392 418.117 181.101 418.052C195.064 416.778 204.702 403.629 206.255 383.739C206.855 376.053 207.677 365.527 212.435 363.126C213.451 362.612 215.121 362.203 216.889 361.771C220.972 360.771 226.562 359.402 231 354.857C239.131 346.53 236.878 336.037 235.232 328.377C234.589 325.381 233.981 322.552 234.032 320.416C234.176 314.419 240.78 308.286 246.958 303.009L276.311 277.937C285.866 269.857 289.399 255.677 285.102 242.652C281.916 232.995 274.743 224.231 264.356 217.306C251.67 208.852 238.715 206.682 227.877 211.194C224.22 212.717 221.198 214.853 218.531 216.737C216.056 218.486 213.497 220.295 211.922 220.385C210.351 220.486 207.54 218.386 205.547 214.731C204.289 212.423 203.267 209.714 202.184 206.846C200.872 203.37 199.515 199.776 197.508 196.158C187.116 177.432 170.894 175.448 156.582 173.696C154.218 173.407 151.774 173.108 149.397 172.74C134.396 170.421 119.677 163.483 109.015 153.708C107.67 152.475 107.225 151.913 107.08 151.671C107.066 151.615 107.057 151.572 107.052 151.541C108.373 148.468 120.352 144.145 126.962 144.337C128.831 144.399 130.856 144.63 133 144.874C138.538 145.505 144.814 146.221 151.437 144.364C158.123 142.49 163.157 138.558 167.599 135.09C168.986 134.006 170.297 132.983 171.578 132.083C175.09 129.617 179.878 129.218 185.422 128.755C196.389 127.84 214.745 126.308 217.519 99.064C218.99 84.613 213.48 71.107 209.053 60.255C204.429 48.92 199.688 36.968 195.817 24.423C204.14 22.735 212.596 21.531 221.153 20.809C221.632 21.906 222.114 22.99 222.594 24.055C224.546 28.389 226.39 32.482 227.073 36.522C229.491 50.851 236.417 61.293 246.573 65.921C250.209 67.578 254.132 68.372 258.089 68.372C267.35 68.372 276.792 64.019 283.12 56.191C288.212 49.89 292.653 37.645 294.443 26.759C305.358 29.525 316.008 33.132 326.325 37.532C323.559 40.362 320.563 43.302 317.61 46.197C310.622 53.051 303.397 60.137 298.575 66.38C296.666 68.851 293.782 72.584 292.966 77.749C291.581 86.52 297.04 93.533 299.663 96.903C303.742 102.144 309.907 110.064 319.799 112.532C321.935 113.064 324.01 113.296 326.021 113.295C333.618 113.295 340.304 110.003 345.906 107.244C350.006 105.225 353.879 103.318 357.137 103.056C360.348 102.794 364.12 104.035 368.487 105.466C373.117 106.984 378.365 108.704 384.203 108.916C393.549 109.261 401.403 104.804 406.799 96.529C425.608 118.328 439.74 143.25 448.696 170.056C447.224 171.12 444.228 171.26 437.196 171.348C434.141 171.386 430.679 171.429 426.988 171.713C416.707 172.502 408.756 169.558 399.551 166.147C393.371 163.857 386.981 161.489 379.341 159.971C360.093 156.14 340.203 166.897 328.669 187.367C326.572 191.089 308.564 224.256 321.888 242.608C326.866 249.463 333.913 253.689 339.576 257.085C347.608 261.899 355.914 266.877 365.113 270.588C367.082 271.383 369.071 272.117 370.994 272.827C377.992 275.41 384.601 277.85 387.841 282.284C390.552 285.995 391.45 291.868 390.588 300.239C389.933 306.592 387.566 313.049 385.059 319.884C379.438 335.214 372.442 354.293 388.842 373.033C393.519 378.377 399.134 382.447 405.345 385.121C402.206 388.687 398.954 392.176 395.565 395.565C354.011 437.118 298.764 460.002 240 460.002ZM418.692 368.396C412.987 367.374 407.933 364.479 403.892 359.862C395.684 350.483 398.228 342.065 403.836 326.77C406.656 319.082 409.571 311.13 410.482 302.291C411.875 288.775 409.752 278.372 403.99 270.486C397.19 261.178 386.952 257.399 377.92 254.065C376.052 253.376 374.288 252.724 372.595 252.042C364.85 248.917 357.568 244.553 349.859 239.933C345.332 237.218 340.65 234.412 338.071 230.86C334.901 226.494 338.799 210.129 346.092 197.187C351.571 187.466 362.546 177.029 375.442 179.589C381.522 180.797 386.903 182.791 392.601 184.902C403.056 188.776 413.871 192.791 428.522 191.656C431.572 191.422 434.559 191.384 437.447 191.347C442.642 191.282 448.668 191.203 454.174 189.41C458.013 205.801 460.001 222.747 460.001 240.002C460.001 286.733 445.515 331.231 418.692 368.396Z" />
</svg>
