<svg width="22" height="22" viewBox="0 0 22 22" fill="currentColor" xmlns="http://www.w3.org/2000/svg">
<path d="M22 11C22 4.92507 17.0749 0 11 0C5.08237 0 0.257767 4.67353 0.0113666 10.5307C0.0084333 10.6025 0.00769999 10.6755 0.00623332 10.7477C0.00439999 10.8321 0 10.9157 0 11V11.037C0 17.0918 4.92507 22 11 22C17.0749 22 22 17.0918 22 11.037L21.9993 11.0191L22 11ZM13.1963 21.0287C13.0038 20.9242 12.819 20.753 12.7439 20.5198C12.6078 20.0974 12.7131 19.7696 12.8693 19.3882C12.9939 19.0828 12.8264 18.7301 12.9092 18.4103C13.0709 17.7881 13.266 17.1138 13.2059 16.4454C13.1685 16.0351 13.0775 16.0164 12.7739 15.7795C12.4538 15.5283 12.4538 15.173 12.2397 14.8555C12.0457 14.5669 12.5679 13.4706 12.4223 13.4039C12.2591 13.3287 11.8881 13.427 11.7707 13.2711C11.6446 13.1032 11.5566 12.9048 11.3832 12.7747C11.2713 12.6907 10.7767 12.4098 10.6447 12.4296C9.97993 12.529 9.2598 11.8807 8.83557 11.458C8.54333 11.1679 8.4216 10.8427 8.20747 10.5072C8.02633 10.223 7.75207 10.1985 7.6175 9.8461C7.47633 9.47797 7.5603 9.00643 7.5174 8.61923C7.47083 8.20307 7.26403 8.07033 7.00553 7.75207C6.4526 7.06897 6.2491 6.04963 5.20007 6.04963C4.6365 6.04963 4.67647 7.27723 4.22253 7.1126C3.7092 6.9267 2.915 7.80597 2.92637 7.68753C2.9865 7.07373 3.6168 6.77527 3.6784 6.5923C3.8797 5.9917 2.77897 6.13543 2.92013 5.63457C2.98907 5.38817 3.6894 5.20887 3.54457 5.06183C3.50093 5.0171 2.96523 4.64127 2.99163 4.62257C3.091 4.5529 3.52293 4.77363 3.42907 4.4869C3.39753 4.39157 3.34657 4.30393 3.29817 4.21557C3.52079 3.96276 3.75574 3.72107 4.00217 3.4914C4.37397 3.46097 4.7597 3.48407 4.8994 3.5112C5.78527 3.68573 6.09327 4.13417 6.97913 3.80233C7.4052 3.6432 8.97563 3.9193 9.20077 4.3659C9.32323 4.6101 9.77937 4.21813 9.9572 4.19173C10.1479 4.16313 10.5787 4.45683 10.71 4.2768C11.0557 3.80343 10.4885 3.6069 11.1584 3.97137C11.6076 4.21593 12.4854 3.1405 12.2074 4.4044C12.0069 5.31557 11.2699 5.33573 10.7294 5.92937C10.1974 6.51383 11.7821 6.67297 11.8228 7.20097C11.9401 8.72117 12.7508 7.07703 12.5338 6.53657C12.1139 5.48973 13.0115 5.7772 13.3731 6.44233C13.5736 6.81157 13.7262 6.50063 13.9718 6.37193C14.1709 6.26817 14.2241 6.83027 14.267 6.92817C14.4082 7.2534 14.872 7.35057 14.7935 7.7693C14.7063 8.23093 14.3781 8.09233 14.0573 8.17043C13.699 8.25733 14.1152 8.55873 14.0631 8.66873C14.0067 8.789 13.5747 8.83887 13.4596 8.90707C13.1208 9.10653 13.328 9.49557 13.0629 9.70457C12.881 9.8483 12.6977 9.7548 12.6625 10.0239C12.621 10.3411 12.0366 10.443 12.1125 10.7463C12.1334 10.8295 12.3017 11.4514 12.1957 11.4844C12.1469 11.5001 11.7616 10.9435 11.6563 10.8878C11.4481 10.7774 10.5013 10.8676 10.3796 11.4943C10.3008 11.8994 10.9527 12.5393 11.1188 11.9812C11.3245 11.2944 11.4224 12.3812 11.3729 12.4238C11.4712 12.5096 12.0461 12.2826 11.8756 12.6804C11.8034 12.8487 11.9464 13.2876 12.2016 13.1523C12.3083 13.0959 12.5833 13.266 12.6313 13.1747C12.7003 13.0695 12.7937 12.9825 12.9034 12.921C13.1604 12.7706 13.545 12.9118 13.8266 12.9283C13.9986 12.9382 15.4081 13.7071 15.4158 13.8615C15.4466 14.439 16.5121 14.3638 16.6756 14.5702C17.1153 15.1298 16.98 14.8456 16.6591 15.5624C16.4974 15.9232 16.6382 16.3658 16.2466 16.6272C16.0582 16.7526 15.8283 16.6899 15.6607 16.8674C15.5096 17.0276 15.569 17.219 15.4774 17.4042C15.367 17.6246 13.8838 18.9574 13.7859 19.2797C13.7372 19.4414 13.2946 19.5822 13.6679 19.7373C13.8849 19.8011 13.1872 20.4607 13.5227 20.7339C13.6044 20.8003 13.658 20.8564 13.6983 20.9066C13.5307 20.9513 13.3646 20.992 13.1963 21.0287ZM12.3178 0.820233C12.3035 0.8734 12.3251 0.9361 12.4172 0.997333C12.6247 1.13483 12.3578 1.44027 12.0714 1.24337C11.7858 1.04647 11.1434 1.33173 11.1877 1.4795C11.2314 1.62727 11.4297 1.68593 11.7363 1.56823C12.0421 1.45017 12.1682 1.58583 12.2195 1.7259C12.2547 1.82087 12.2195 1.87367 12.2096 2.00163C12.2005 2.1296 11.8444 2.04087 11.5485 2.06103C11.2519 2.08083 10.9362 2.00163 10.9454 1.83407C10.9553 1.66687 10.6297 1.36143 10.4353 1.23383C10.2414 1.10623 10.5204 0.8305 10.7778 1.03693C11.0341 1.24373 11.0444 0.9977 11.3406 0.919233C11.5089 0.8745 11.4415 0.8074 11.3843 0.7436C11.6996 0.7546 12.0105 0.781 12.3178 0.820233ZM13.6074 4.0722C13.8292 4.13233 14.2146 4.41283 14.2146 4.54557C14.2146 4.67867 14.0397 4.84513 13.9623 4.82607C13.4039 4.69003 12.9331 4.13893 12.6738 3.83717C12.2214 3.311 12.25 3.762 11.5331 3.5343C11.3498 3.47563 11.059 2.90693 11.2515 2.62643C11.444 2.34593 11.6662 2.30157 11.8437 2.376C12.0212 2.44933 12.5396 2.1395 12.6588 2.50873C12.7769 2.87797 13.1028 3.34913 13.3995 3.47527C13.6965 3.60067 13.3848 4.01207 13.6074 4.0722ZM13.7852 5.78563C13.8739 5.96273 13.2517 5.57883 13.1036 5.40173C12.9562 5.225 12.7332 4.8257 12.9118 4.6486C13.0893 4.47187 13.4875 5.0171 13.6968 5.13627C14.1108 5.37277 13.6965 5.6089 13.7852 5.78563ZM10.6341 3.10347C10.677 3.04443 10.7679 3.1922 10.8489 3.33997C10.93 3.48773 10.8181 3.696 10.6341 3.66447C10.45 3.63367 10.531 3.24793 10.6341 3.10347ZM10.6341 1.61773C10.6341 1.61773 10.8075 2.04087 10.6341 1.97193C10.4606 1.903 10.4522 1.7259 10.6341 1.61773ZM10.6693 2.95607C10.6198 2.83837 10.6084 2.35473 10.7287 2.20807C10.9061 1.99173 11.1929 2.41487 11 2.58207C10.8075 2.74963 10.7184 3.0745 10.6693 2.95607ZM8.44103 3.4749C8.11873 3.4518 8.11177 3.17313 8.06703 3.02537C8.0223 2.8776 7.75537 3.30587 7.4855 3.02537C7.21563 2.74487 7.54857 2.376 7.48917 2.15417C7.42977 1.9327 8.1257 2.15417 8.22983 2.15417C8.33397 2.15417 8.6152 2.61177 8.6889 2.60407C8.76333 2.59673 9.163 2.96597 9.163 2.8182C9.163 2.6708 9.22387 2.41927 9.504 2.38993C9.93373 2.34557 9.54837 2.86257 9.53333 3.06387C9.51903 3.26517 9.86003 3.61533 9.98507 3.7631C10.1112 3.91087 9.66717 4.01463 9.59273 3.92553C9.51903 3.8368 9.32617 3.92553 9.163 4.0436C9.00057 4.16167 8.5558 3.88117 8.34863 3.79243C8.1411 3.70407 8.76333 3.49763 8.44103 3.4749ZM9.59273 1.1451C9.8791 1.24373 10.0419 1.3321 10.1827 1.1451C10.3187 0.9647 10.4225 1.53853 10.3239 1.69583C10.2249 1.85387 10.0375 1.81463 10.0074 1.69583C9.9781 1.5785 9.30637 1.04647 9.59273 1.1451ZM10.0074 2.92673C9.90917 2.7984 9.89927 2.651 10.0074 2.54283C10.1163 2.43467 10.0811 2.3067 10.2747 2.26747C10.3701 2.24767 10.3829 2.39507 10.3829 2.53293C10.3829 2.6708 10.5017 2.8479 10.3829 3.06387C10.2645 3.27983 10.1064 3.05433 10.0074 2.92673ZM10.8159 0.7381C10.8115 0.765233 10.7936 0.781367 10.7485 0.776967C10.7175 0.771708 10.6879 0.759827 10.6619 0.742133C10.7136 0.7403 10.7642 0.738833 10.8159 0.7381ZM8.57597 1.155C8.80293 1.155 8.7736 1.30827 8.96133 1.41863C9.14907 1.52863 9.05007 0.849567 9.1784 1.1055C9.30673 1.36107 9.6877 1.71563 9.50437 1.7842C9.3467 1.84397 8.68523 2.09917 8.62583 2.05517C8.56643 2.01117 8.4876 1.82417 8.3292 1.7842C8.1708 1.74497 8.00323 1.37097 7.89433 1.38087C7.8529 1.38453 7.84923 1.3134 7.87637 1.2188C8.0668 1.15749 8.25902 1.10185 8.45277 1.05197C8.47403 1.1099 8.5063 1.155 8.57597 1.155ZM13.5329 12.1642C13.2964 12.4084 12.8891 11.994 12.6078 12.0087C12.3266 12.0234 12.1854 11.7282 11.9412 11.7579C11.6963 11.7869 12.008 11.4473 12.3486 11.6252C12.6885 11.8023 13.7258 11.9643 13.5329 12.1642ZM18.2739 3.75503C18.205 3.84303 18.1265 3.90463 18.0514 3.96953C17.8295 4.16167 17.4148 4.147 17.3554 4.27973C17.296 4.41247 17.1479 4.8257 16.6294 4.82753C16.111 4.829 16.2591 5.6089 16.2147 5.83147C16.1704 6.05403 16.0523 6.3173 15.9038 6.12517C15.7557 5.9334 15.6963 6.00673 15.2379 5.44573C14.7796 4.88473 14.9556 4.5749 15.1041 4.41247C15.2522 4.2504 15.3116 3.86613 15.1041 3.92517C14.8966 3.9842 14.7781 3.8511 14.8225 3.6674C14.8669 3.4837 15.0891 3.3495 14.8225 3.15333C14.5559 2.95753 14.7037 2.25683 14.4965 1.61737C14.289 0.977533 14.0074 1.43037 13.5483 1.45493C13.0893 1.4795 13.0148 1.13483 13.2224 0.977167C15.1374 1.40064 16.8906 2.36476 18.2739 3.75503Z"/>
</svg>
