<svg width="22" height="22" viewBox="0 0 22 22" fill="currentColor" xmlns="http://www.w3.org/2000/svg">
<path d="M11 0C4.92888 0 0 4.92888 0 11C0 17.0711 4.92888 22 11 22C17.0601 22 21.9804 17.0887 21.9982 11.0326C21.9994 11.0217 22 11.0109 22 11C22 10.9902 21.9996 10.9805 21.9987 10.9707C21.9828 4.91304 17.0614 0 11 0ZM11 0.66C11.1034 0.66 11.2055 0.66462 11.308 0.6677C12.1264 0.86856 12.7721 1.0406 12.9598 1.837C13.831 2.37644 14.6925 2.85868 15.2964 3.652C14.8152 3.7928 14.1088 3.55872 14.214 2.98496C13.8989 3.42078 13.7366 3.2274 13.3082 3.22102C13.6426 3.2945 13.776 3.98068 14.2085 3.58578C14.7292 4.10718 13.4972 4.34764 13.2374 4.14986C12.5726 4.21146 13.3681 4.88664 12.5701 4.83648C11.9436 5.31916 12.4104 6.1303 11.5251 6.35646C10.4137 6.68712 12.0415 8.1653 10.9309 8.34592C10.8874 7.8738 10.5833 7.03472 9.88108 7.04682C9.21162 7.5174 7.74488 6.70758 7.62146 8.02362C7.14582 8.66492 7.68504 10.0243 8.54436 9.5425C8.7076 9.0794 10.0782 8.4656 9.73016 9.36166C9.5909 9.922 9.19028 10.4401 9.98888 10.243C11.1124 10.2901 10.3156 11.2407 10.7039 11.788C11.1395 12.0333 11.8048 11.9401 12.2505 11.9192C12.3644 11.174 13.5485 11.2189 13.6215 11.1899C13.7452 10.881 14.3354 11.1973 14.2424 11.5346C14.9919 11.5183 14.8183 11.077 15.5199 11.4103C16.0897 10.8825 15.6651 12.0263 16.357 12.1059C16.8188 12.5693 17.8695 12.1381 17.9639 13.1226C18.2173 14.0595 19.6062 13.4827 20.0565 14.1354C20.0306 15.1384 19.1831 15.8525 18.9209 16.793C18.5029 17.8394 17.2872 18.0796 16.7385 19.0076C15.9518 19.7204 15.0709 20.2336 14.126 20.6628C13.9401 20.7689 13.6259 20.9211 13.3529 21.0681C12.8386 21.1875 12.3159 21.2674 11.7894 21.307C11.8914 21.0327 12.373 20.7064 12.4648 20.4239C12.8168 19.6583 13.8827 18.4736 12.9457 17.8097C12.2514 17.6878 12.0413 17.0531 11.7099 16.5821C11.5005 15.9507 10.5813 15.4759 11.0915 14.8801C10.8504 14.302 11.6475 13.7634 11.9033 13.2825C11.9825 12.7686 11.4765 11.9471 11.1989 12.6291C10.6311 12.4538 9.93828 12.0848 9.73544 11.4886C9.1322 11.0915 8.29576 10.6632 7.71254 10.3851C6.98522 10.4188 6.32126 9.89164 5.79084 9.4523C5.73936 8.68758 5.28418 7.7429 4.917 7.2501C5.24986 7.7638 5.19904 9.14738 4.66334 7.9937C4.50934 7.4701 4.43168 6.78612 4.4 6.20246C4.00048 5.93318 4.18594 4.7619 4.5771 4.27372C5.0138 3.93272 5.36866 2.92226 5.34622 2.7522C5.0996 2.84108 5.49538 2.41846 5.6848 2.12872C7.29004 1.16498 9.12768 0.657195 11 0.66ZM12.4927 0.76868C13.1562 0.86446 13.8088 1.02495 14.441 1.24784C14.4505 1.27204 14.4602 1.29668 14.4736 1.32484C15.4156 2.39734 13.5049 1.42912 13.1076 1.10814C12.971 0.99132 12.7424 0.8701 12.4927 0.76868ZM11.2092 1.04104C10.9677 1.05336 10.7749 1.17304 11.0926 1.35696C10.8918 1.86648 9.65756 1.16336 9.64348 1.925C10.0258 2.29746 10.839 2.25896 11.1529 2.6345C10.8786 2.13158 11.5898 2.00046 11.3795 2.31594C11.3417 2.5388 11.6486 1.9734 11.3373 2.12608C11.2389 1.53142 10.9111 1.49578 11.5977 1.14378C11.517 1.0648 11.3542 1.03378 11.2092 1.04104ZM11.7559 7.70726C12.1073 7.72332 12.4122 8.45526 12.6183 8.46318C12.6397 8.39564 12.879 9.18038 12.5633 8.86798C12.0679 8.74786 12.1616 7.75962 11.9011 8.56152C11.2482 8.57802 12.0685 7.79438 11.5058 7.82848C11.5911 7.73828 11.6747 7.70352 11.7559 7.70748V7.70726ZM10.9355 8.4898C11.6327 8.51092 12.2962 9.3302 12.8196 8.96192C13.0165 9.11152 13.0676 9.48024 13.6756 9.38872C14.4221 9.63138 14.0131 9.9308 13.5568 9.87932C13.4191 9.85886 13.3448 10.157 13.2216 9.94246C12.9259 9.97634 12.2399 9.78736 12.8115 9.56912C12.8137 9.07522 11.7731 9.93476 11.7682 9.28752C11.3032 9.1223 10.9894 8.80242 10.6025 9.12956C10.3869 8.95972 9.8384 8.976 10.4487 8.6273C10.5928 8.53208 10.7629 8.48403 10.9355 8.4898ZM15.1391 9.65074C15.2205 9.61906 15.4286 10.0445 15.5021 9.73588C15.6442 10.1099 16.0237 11.1338 15.5225 11.189C15.7828 10.639 15.3558 10.1391 15.1065 9.7603C15.1087 9.6899 15.1204 9.658 15.1391 9.65074Z"/>
</svg>
