<svg width="22" height="22" viewBox="0 0 22 22" fill="currentColor" xmlns="http://www.w3.org/2000/svg">
<path d="M11 0C4.92888 0 0 4.92888 0 11C0 17.0711 4.92888 22 11 22C17.0601 22 21.9804 17.0887 21.9982 11.0326C21.9994 11.0217 22 11.0109 22 11C22 10.9902 21.9996 10.9805 21.9987 10.9707C21.9828 4.91304 17.0614 0 11 0ZM12.7893 0.8173C12.9484 0.844832 13.1068 0.876228 13.2645 0.91146C13.4281 1.0505 13.5676 1.15346 13.5927 0.98736C17.3375 1.95294 20.255 4.96254 21.0936 8.7571C20.9277 9.70002 21.4606 10.8689 21.208 11.5942C21.1112 11.2583 21.2018 11.0411 20.9755 11.3205C20.5381 10.5541 20.5999 9.14672 19.8233 8.8396C19.6205 8.0806 19.2139 8.17476 18.4213 8.32942C17.1677 8.12306 19.1627 8.73642 18.5786 9.36782C18.4397 10.0432 17.8264 10.677 17.1959 11.0486C16.749 11.3192 15.534 12.2698 16.7211 11.8296C17.167 11.8611 17.5175 11.1349 17.6711 11.8769C17.4229 12.7591 17.1079 13.6715 16.3559 14.2545C15.8653 14.667 15.3586 15.5098 15.2145 15.8055C15.3538 16.0316 15.0847 16.6701 15.3377 16.8291C15.7672 18.179 13.8492 18.0633 13.9062 19.125C13.2779 19.7036 12.6625 20.5524 11.6563 20.6166C10.3633 21.146 9.7372 19.7859 9.19666 18.8903C8.22096 18.2019 9.43624 17.3679 8.9518 16.5684C8.76634 15.7681 7.63158 15.3441 8.01988 14.465C8.3919 13.7291 7.01228 14.0351 6.8816 13.3001C6.17408 13.0739 5.60252 13.7471 4.84792 13.3573C3.70568 13.4748 3.56928 11.9933 2.98782 11.3799C2.93634 10.4361 3.26282 9.5282 3.52968 8.62114C3.7246 8.4029 3.88828 8.22294 3.98266 8.07774C4.49614 7.35174 4.99554 7.08114 5.24986 6.70186C5.5143 6.5384 5.79216 6.35646 6.23502 6.2205C7.04924 6.2733 7.91912 5.91844 8.76458 5.9257C9.42062 6.03614 8.51136 7.06684 9.45846 6.9619C9.72972 6.9806 10.3851 7.85642 10.5765 7.36274C11.0059 6.3162 12.0199 7.69582 12.7292 7.28706C13.4761 7.69318 14.0712 6.67788 13.5333 6.26626C13.5518 6.71902 13.0748 6.76192 13.0563 6.33908C12.5173 6.03196 11.7548 7.0444 11.2622 6.40354C10.5538 6.05 10.6814 5.0435 9.90154 4.79798C9.72884 4.6893 9.63864 4.63804 9.6063 4.62902C9.46616 4.59008 10.4137 5.33676 10.4678 5.56864C10.0626 5.35656 9.85886 6.57514 9.52732 6.3228C9.05124 5.92372 9.22878 5.78204 9.78164 5.7002C10.1112 5.69294 8.60684 4.39868 8.8836 5.5792C8.2401 6.10588 8.6636 4.71394 8.98106 4.76784C8.3193 4.7366 7.87226 4.97574 7.326 5.3922C7.09676 5.8509 6.65456 6.16572 6.1743 6.20246C6.05744 6.19162 5.94062 6.18032 5.82384 6.16858C5.84584 6.02712 5.76884 5.90854 5.5418 5.88698C5.74222 5.07364 6.18354 4.2251 7.1412 4.6728C7.41312 4.08122 6.96388 3.7884 7.5559 3.52C6.68844 3.9017 7.73124 2.93414 6.9861 3.30814C6.2777 3.18076 7.69406 2.6279 7.74576 2.34058C8.6867 1.94524 8.10524 2.43122 8.21106 2.95878C8.20248 3.67906 8.80748 2.97506 9.2334 2.82788C9.20854 2.41428 10.1334 2.27788 9.30028 2.42902C8.71508 1.8667 10.2729 1.49358 10.5191 1.14686C11.3399 0.66946 12.5726 1.58092 12.8841 1.13652C13.6921 1.19042 12.9298 1.12442 12.7895 0.8173H12.7893ZM8.52236 0.9603C8.1488 1.09252 7.76688 1.20054 7.3854 1.30966C7.75732 1.17133 8.13694 1.05468 8.52236 0.9603ZM7.73696 1.36818C8.06168 1.36202 8.3281 1.50282 7.68966 1.68058C7.55392 1.71402 7.40982 1.75164 7.27122 1.7006C7.19642 1.46652 7.4844 1.3728 7.73696 1.36818ZM10.8418 2.19494C10.7644 2.20616 10.6522 2.27194 10.4995 2.41956C10.4685 2.81116 9.48684 2.95328 10.34 2.86506C10.8605 3.1152 11.178 2.14544 10.8418 2.19494ZM15.5696 4.1151C15.3782 4.09244 14.7895 4.7014 15.5236 4.9445C16.1924 5.14822 15.5505 6.14944 16.5774 5.87994C16.6489 5.39066 15.4928 4.62264 15.5646 4.38548C15.6528 4.20046 15.6334 4.1228 15.5696 4.1151ZM12.591 4.30716C12.2844 4.5859 11.8382 5.4175 12.7472 5.13788C13.0515 4.7421 14.8042 5.5187 14.1238 4.83208C13.5676 4.41738 12.9725 4.81822 12.591 4.30716ZM3.70392 7.42588C3.77036 7.43578 3.84956 7.50288 3.94702 7.53808L3.89598 7.69604C3.81238 7.66964 3.69578 7.65204 3.53936 7.64368C3.58622 7.46108 3.63924 7.4162 3.70392 7.42588ZM16.5473 7.53764C16.2738 7.78008 17.2183 8.40576 17.4453 8.55404L17.578 8.46054C17.8596 7.97434 16.6967 8.05662 16.5473 7.53764ZM13.7892 8.2038C13.7667 8.61014 14.2096 8.97688 14.3911 9.37904C14.6797 9.95896 15.0172 10.6854 15.4257 10.971C15.4757 11.0739 15.7199 11.3628 15.8446 11.2042C15.539 10.7807 15.5241 10.2419 15.0526 9.9066C14.7099 9.3192 14.3255 8.56966 13.7892 8.2038ZM16.9981 16.7627C17.2093 16.777 16.9409 17.926 16.6177 18.0822C16.3357 18.418 15.891 19.3791 15.3666 19.1404C15.4112 18.1828 16.0125 17.5186 16.7699 16.9602C16.8749 16.8166 16.9492 16.7594 16.9981 16.7627Z"/>
</svg>
