<svg width="22" height="22" viewBox="0 0 22 22" fill="currentColor" xmlns="http://www.w3.org/2000/svg">
<path d="M10.0074 8.81173C9.9616 8.62583 9.46257 9.44203 9.60337 9.56377C9.7449 9.68587 10.1963 9.5766 10.0074 8.81173Z"/>
<path d="M11 0C4.92507 0 0 4.92507 0 11C0 17.0749 4.92507 22 11 22C17.0749 22 22 17.0749 22 11C22 4.92507 17.0749 0 11 0ZM10.3506 11.2908C10.3506 11.4939 9.9671 11.209 9.86627 11.4125C9.76543 11.6156 9.7053 10.7019 9.66497 10.3965C9.6239 10.0921 9.46257 11.2295 9.3214 11.1888C9.17913 11.1485 8.47257 11.1074 8.3314 10.8636C8.19023 10.6201 8.12973 10.2139 8.3314 10.2139C8.5338 10.2139 9.2807 9.5029 9.46257 9.19783C9.64407 8.89313 9.82593 8.81137 9.74527 8.426C9.66497 8.0399 10.1585 7.60283 10.1497 7.91817C10.1288 8.60897 10.6143 8.426 10.7958 8.97453C10.9776 9.5227 10.4933 9.90917 10.4724 9.70567C10.4522 9.50253 10.2098 9.58393 9.72547 9.8483C9.24073 10.1123 9.84647 9.92933 9.96747 10.2747C10.0888 10.6201 10.23 10.4779 10.6542 10.5996C11.0777 10.7217 10.8566 10.2546 11.0004 10.1123C11.1452 9.97003 11.1188 10.7422 11.3091 10.5387C11.499 10.3356 12.1081 10.6605 12.1081 10.6605C12.5525 10.864 13.1784 10.9362 13.1784 10.9362C13.7643 11.11 14.0265 11.6156 14.3095 11.9119C14.5922 12.2089 14.2688 12.2863 13.8252 11.9119C13.3808 11.5383 13.3606 11.6761 13.2194 11.8562C13.0775 12.0355 12.775 11.7172 12.492 11.8389C12.2096 11.961 12.6133 11.3923 12.3508 11.1892C12.0883 10.9861 11.4422 10.8031 11.4627 11.0271C11.4829 11.2501 10.9571 11.128 10.5736 10.9366C10.1893 10.7444 10.3506 11.0873 10.3506 11.2908ZM13.5414 16.9184C13.8244 16.9587 13.9139 16.6984 13.9256 16.9184C13.9403 17.2088 13.8446 17.6697 13.6627 17.6088C13.4812 17.5476 13.2587 16.8773 13.5414 16.9184ZM17.7822 17.2216C17.5399 17.3217 17.4387 17.4669 17.3177 17.8119C17.1963 18.157 16.8527 18.3396 16.6309 18.157C16.4094 17.9744 16.7519 17.6491 16.9745 17.6143C17.1963 17.5791 17.2773 17.182 17.56 16.9184C17.8431 16.654 17.3232 16.1825 17.56 15.9837C17.6814 15.8822 17.8233 16.3493 18.0044 16.3291C18.1867 16.3082 18.4492 16.4912 18.2266 16.6639C18.0044 16.8362 18.0246 17.1211 17.7822 17.2216ZM14.7664 2.343C14.8808 2.1384 14.9307 1.8216 14.9508 1.5224C15.0905 1.5807 15.228 1.64267 15.3644 1.70683C14.9758 2.34447 14.5684 2.69647 14.7664 2.343ZM13.0706 1.12347C13.1916 1.3981 13.1916 2.46437 13.1916 3.04297C13.1916 3.6223 14.0701 2.76907 14.5244 2.73863C14.9783 2.7082 13.0706 3.86613 13.0706 4.5364C13.0706 5.20667 12.2826 5.20667 11.7979 5.5418C11.3131 5.87693 11.3135 5.96823 11.3135 5.5418C11.3135 5.11537 12.0402 4.81067 12.4648 4.65813C12.8883 4.50597 12.7369 3.34803 12.8718 3.0129C13.0064 2.67813 12.9217 0.787233 13.0706 1.12347ZM11.704 12.1649C11.9867 12.104 12.3501 12.2456 12.2899 12.4084C12.2291 12.5708 12.1279 12.6925 12.2899 12.7736C12.4509 12.855 12.7945 13.2612 12.8722 13.0786C12.9488 12.8957 12.8436 11.9629 13.0772 12.1649C13.2191 12.287 13.4816 13.1395 14.0672 13.6679C14.6527 14.1959 14.7939 14.9072 14.6927 15.151C14.5919 15.3949 14.3293 15.7197 14.289 16.1869C14.2483 16.654 13.6627 16.7149 13.4204 16.6338C13.178 16.5528 12.7545 16.7152 12.7545 16.5121C12.7545 16.3086 12.7138 16.045 12.4311 16.0362C12.1484 16.0274 11.9665 15.862 11.8052 15.5569C11.6435 15.2522 10.6942 15.5166 10.553 15.679C10.4119 15.8411 9.90697 15.7802 9.56377 15.9837C9.2202 16.1869 9.03833 15.7601 9.13953 15.3538C9.24037 14.9475 8.77617 14.5211 8.77617 13.9924C8.77617 13.4644 9.88643 13.5659 9.96747 13.4039C10.0489 13.2411 10.1288 13.1597 10.3308 12.9367C10.5332 12.7131 10.7147 12.4894 11.0004 12.6379C11.286 12.7868 11.1998 12.5913 11.3091 12.368C11.4184 12.1436 11.4206 12.2254 11.704 12.1649ZM11 0.733333C11.4543 0.733333 11.9009 0.765967 12.3398 0.823167C12.3174 0.981567 12.397 1.09157 12.5554 1.0626C12.8883 1.00173 12.8883 1.55027 12.7673 2.25097C12.646 2.95203 12.1616 3.65237 11.7377 3.68317C11.3135 3.71397 11.1313 4.32337 11.2226 4.59727C11.3135 4.87153 10.9806 5.51137 10.7679 5.51137C10.5563 5.51137 10.5868 4.99363 10.5563 4.4143C10.5259 3.8357 10.0716 4.1096 9.64773 4.4143C9.2235 4.719 10.2832 4.719 10.1017 4.84073C9.9198 4.96283 9.95023 5.2371 10.1017 5.6331C10.2535 6.0291 9.6173 6.85227 9.3445 7.12617C9.07207 7.40043 8.5272 7.12617 7.95117 7.49173C7.37587 7.8573 8.28447 8.6801 8.2236 8.92393C8.16347 9.16813 7.67837 9.1069 7.22407 8.74097C6.76977 8.3754 6.9817 9.1982 7.31463 9.65543C7.6483 10.1123 7.6483 10.5996 7.82943 10.9355C8.01167 11.271 9.10213 11.2702 9.5865 11.5141C10.0709 11.7579 11.3733 11.5749 11.3733 11.5749C11.9489 11.5445 10.4647 12.3365 9.91943 12.0626C9.37457 11.788 7.31463 11.3007 6.7694 10.6304C6.22417 9.96013 5.49707 8.16237 5.9213 8.74097C6.3448 9.31993 7.2237 10.2648 7.10233 10.021C6.98133 9.77717 6.55783 9.13733 6.58753 8.6801C6.61797 8.22323 6.3756 8.0707 6.19447 8.22323C6.01223 8.3754 6.0731 7.70513 5.8608 7.33957C5.64887 6.974 4.9522 7.7968 4.46783 7.9277C3.98273 8.0586 3.98347 9.1069 3.71067 9.28987C3.43787 9.4721 2.98393 8.04063 3.01363 7.40043C3.04407 6.7606 2.65027 7.61347 2.31733 6.974C2.1945 6.7375 1.96827 6.62677 1.73177 6.57983C3.38397 3.1229 6.9135 0.733333 11 0.733333Z"/>
</svg>
