<svg width="22" height="22" viewBox="0 0 22 22" fill="currentColor" xmlns="http://www.w3.org/2000/svg">
<path d="M11 0C4.92888 0 0 4.92888 0 11C0 17.0711 4.92888 22 11 22C17.0601 22 21.9804 17.0887 21.9982 11.0326C21.9994 11.0217 22 11.0109 22 11C22 10.9902 21.9996 10.9805 21.9987 10.9707C21.9828 4.91304 17.0614 0 11 0ZM10.7272 0.71236C11.0169 0.6908 11.1166 0.76582 10.4955 0.91014C9.64062 1.16204 10.9498 1.44276 11.0623 0.95304C11.6233 0.93434 11.5927 0.91344 11.7355 0.78848C12.0127 0.79948 12.104 0.76648 12.1013 0.71896C14.8236 1.0065 17.228 2.34916 18.9015 4.33048C19.0951 4.80128 19.2293 5.27868 19.5809 5.64256C19.5879 5.6969 19.859 6.10324 19.7175 5.6771C19.7267 5.59678 19.7258 5.51564 19.7149 5.43554C19.8797 5.69311 20.0329 5.95789 20.1742 6.22908C20.1654 6.27935 20.1504 6.32835 20.1296 6.37494C20.5432 7.7495 19.5362 5.35194 19.6814 6.36592C19.3464 5.75344 18.9567 5.16318 18.612 5.28814C18.2307 5.4087 19.375 5.56622 19.012 6.04604C19.6816 6.71704 20.0284 7.67778 19.7622 8.61872C19.3543 9.14232 19.1585 9.46902 19.0764 10.078C18.7359 9.9429 18.999 8.89372 18.5484 9.83136C19.2111 10.4804 19.6478 11.9203 18.5566 12.4084C18.6021 11.9918 17.5842 11.2099 17.734 12.2736C18.066 12.8251 18.746 13.3956 18.645 14.2496C18.4499 14.6412 19.6409 14.5064 18.8241 14.8834C18.707 15.0229 18.7284 15.4477 18.9957 15.2148C19.305 15.2566 19.6033 14.8535 19.9654 14.9956C19.4773 15.393 20.8804 14.8289 20.3573 14.4241C20.3887 13.8228 20.6074 12.8784 20.2215 13.9592C20.3601 14.8375 19.3244 14.6214 19.186 14.4164C19.3655 14.1211 18.9332 12.5418 19.2887 13.3641C19.9406 13.4814 20.2627 11.8303 20.423 11.1349C20.6199 10.602 20.0631 9.43712 20.412 9.26662C20.6219 10.0652 21.0346 10.3473 21.1204 11.2407C21.2401 11.7907 21.0582 12.025 20.8481 11.9106C20.5625 12.291 20.1395 13.6552 20.9 12.8654C21.384 12.0069 20.7222 13.3874 20.9051 13.2321C21.1169 13.526 21.1233 12.3697 21.2494 12.351C21.1877 12.8253 21.0931 13.2948 20.9662 13.7559C20.9616 13.7625 20.9581 13.7658 20.9532 13.7729C20.7242 13.1338 20.8883 14.6117 20.5099 14.4118C20.4558 14.6951 20.5812 14.6458 20.717 14.5453C20.6294 14.783 20.533 15.0174 20.4281 15.248C19.9896 15.5445 19.3156 15.5195 18.841 15.6776C18.3176 15.7065 17.95 14.9853 17.6035 15.0456C17.2392 14.524 17.3831 14.0276 16.854 13.526C17.0964 12.7422 18.3874 14.5719 17.8259 13.279C17.131 12.7237 17.4176 11.7383 17.1712 10.9859C16.6982 11.3067 16.4182 11.112 16.4591 10.5411C16.15 9.9649 15.6251 9.51896 15.0528 10.1083C14.7055 10.7177 14.0672 11.1747 13.6554 11.6571C13.4347 12.4615 14.1618 13.0117 14.0142 13.7535C13.2955 14.3651 13.6662 12.529 13.0229 13.405C12.3418 12.9952 12.2529 11.9497 11.8732 11.2682C11.612 10.7826 11.9915 10.0613 11.2651 10.3376C10.5976 10.2742 11.0526 9.1322 10.6588 9.57726C10.0643 8.99932 8.81782 9.383 8.24098 9.09304C8.7791 9.42304 9.17972 10.0789 8.49706 10.5004C8.03352 11.1318 7.18476 11.3936 6.44952 11.6041C6.13382 11.8477 4.54476 12.0219 5.70702 12.2956C6.1787 12.2778 6.40882 12.1436 6.81956 12.2104C6.93968 12.8696 6.33776 13.4158 6.03328 13.9984C5.5616 14.4683 4.94758 14.7398 4.60108 15.29C4.43806 15.8477 4.77818 16.5154 4.99202 17.0625C5.57876 17.8823 3.96814 17.7518 4.68534 18.4534C4.8312 18.8036 4.5419 18.735 4.61362 19.1314C2.2066 17.239 0.66 14.3022 0.66 11C0.66 8.8902 1.29184 6.93 2.3749 5.29496C2.5311 5.4868 2.90796 5.731 2.51504 5.8476C2.22266 6.19608 2.57048 7.45866 3.00608 6.5626C3.40384 6.90822 3.96924 7.36428 4.565 7.09412C4.94208 6.63036 5.09256 5.97058 4.63496 6.6C4.29726 6.61012 4.76718 6.00116 4.18044 6.2348C3.5684 6.55006 3.20584 6.1204 3.52352 5.44104C3.51296 4.74386 2.32342 6.68602 2.8424 5.40408C3.47226 5.33368 3.2604 4.18572 2.83294 5.15592C2.38788 5.25052 3.48018 4.34478 3.27734 4.37338C3.23224 4.37976 3.11828 4.43542 2.915 4.55466C4.2119 2.92952 5.98774 1.70478 8.03088 1.09406C8.41346 1.10858 8.76194 1.2419 8.91968 1.40426C9.17994 1.15456 10.6135 1.4366 9.81662 1.09406C9.95698 0.85228 10.4372 0.73414 10.7272 0.71236ZM5.38318 4.3769C4.7949 4.63364 4.43476 5.37922 5.38318 5.05098C5.69734 5.0842 5.96464 5.49692 6.30498 5.24942C6.36658 4.61736 5.35876 4.73132 5.38318 4.3769ZM8.1356 4.44686C7.78492 4.43432 6.97598 5.115 7.64368 5.61132C6.92384 6.04692 7.60452 6.52916 8.14858 6.3349C8.20974 5.73716 7.51388 4.80348 8.28146 4.5771C8.2731 4.48954 8.21656 4.44972 8.1356 4.44686ZM2.66024 4.88598C2.66222 4.9203 2.64 4.96034 2.57092 5.01182C2.60062 4.97002 2.62988 4.92734 2.66024 4.88598ZM6.9927 8.04034C6.34084 8.02714 7.41554 8.8836 7.34382 9.19908C7.4822 9.23296 7.61684 9.18082 7.74378 9.13528C8.2214 8.77844 6.897 8.61564 6.9927 8.04034ZM4.23896 8.19654C4.16988 8.21128 4.1294 8.35824 4.22136 8.67064C4.39252 9.53172 4.30034 10.4841 4.80304 11.1694C4.86134 11.279 5.04328 11.6219 5.0303 11.2394C4.8928 10.3992 4.57644 9.61026 4.42244 8.72828C4.4627 8.37848 4.32762 8.17828 4.23896 8.19676V8.19654ZM20.6074 10.9817C20.563 10.9952 20.519 11.1335 20.4952 11.4712C20.2567 11.583 20.3764 12.5127 20.6092 12.1242C20.8355 11.8092 20.7376 11.0352 20.6263 10.9835C20.6205 10.9805 20.6137 10.9799 20.6074 10.9817ZM19.3884 17.0456C19.1352 17.3968 18.8602 17.7319 18.5651 18.0488C18.8049 17.6876 19.0623 17.3406 19.3884 17.0456ZM6.5395 17.3529C6.8959 17.3103 7.08488 18.4736 6.79162 18.8813C6.87588 19.3805 6.4031 19.5461 6.12392 19.1545C5.74486 18.6776 5.40452 17.6783 6.26956 17.5996C6.3657 17.4372 6.45722 17.3628 6.5395 17.3529Z"/>
</svg>
