<svg width="22" height="22" viewBox="0 0 22 22" fill="currentColor" xmlns="http://www.w3.org/2000/svg">
<path d="M19.1707 18.2959C19.0659 18.1945 18.9548 18.1015 18.8466 18.0044C18.7676 17.9334 18.6906 17.8602 18.6098 17.7915C18.3809 17.5968 18.1459 17.4108 17.9042 17.2347C17.8841 17.2203 17.8655 17.2036 17.8458 17.1892C17.582 17.0001 17.3091 16.8241 17.0306 16.6574C16.947 16.6077 16.8613 16.5633 16.777 16.5155C16.6373 16.4365 16.5 16.3538 16.3569 16.2805C16.3823 16.2141 16.4051 16.1462 16.4294 16.0798C16.4609 15.9951 16.4921 15.9105 16.5216 15.8255C16.5687 15.69 16.6131 15.5538 16.6564 15.4171C16.6818 15.3359 16.7083 15.2551 16.7322 15.1738C16.7774 15.022 16.8187 14.8691 16.8586 14.7157C16.8761 14.6486 16.8958 14.5818 16.9121 14.5146C16.9671 14.293 17.0169 14.0702 17.0613 13.8455C17.0636 13.8356 17.0647 13.8254 17.0666 13.8155C17.1083 13.6015 17.1452 13.3859 17.1774 13.1696C17.188 13.097 17.1964 13.0238 17.2058 12.9509C17.2267 12.7961 17.2464 12.6409 17.2624 12.4845C17.2707 12.3984 17.2776 12.3118 17.2852 12.2253C17.2973 12.0804 17.3087 11.935 17.3166 11.7893C17.3216 11.6993 17.3254 11.6086 17.3288 11.5183C17.3315 11.4473 17.3367 11.3771 17.3383 11.3062H21.9996C21.9116 13.9074 20.9176 16.3629 19.1707 18.2959Z" />
<path d="M15.0688 17.2897C14.9709 17.4795 14.8669 17.6643 14.7606 17.848C14.7173 17.9227 14.6771 17.9995 14.6323 18.0734C14.4782 18.3277 14.3166 18.5763 14.1465 18.8177C14.1184 18.8572 14.0876 18.8939 14.0592 18.9334C13.9146 19.1331 13.7666 19.3289 13.6114 19.5183C13.5487 19.5949 13.4823 19.6682 13.4178 19.743C13.2918 19.8898 13.1643 20.0348 13.0319 20.1745C12.9564 20.2545 12.8781 20.3319 12.8003 20.4097C12.6724 20.5376 12.5426 20.6621 12.4102 20.7832C12.3267 20.8587 12.2432 20.9335 12.1582 21.0067C12.0223 21.1232 11.8834 21.2348 11.7433 21.3441C11.6572 21.4109 11.5722 21.4784 11.4845 21.5422C11.4504 21.5673 11.4139 21.5893 11.3798 21.614V15.761C11.4242 15.7626 11.4693 15.7626 11.5141 15.7649C11.5874 15.7683 11.6606 15.7724 11.7335 15.777C11.8523 15.785 11.9714 15.7948 12.0895 15.8062C12.1616 15.8134 12.2344 15.8203 12.3062 15.829C12.4314 15.8438 12.5555 15.8616 12.6796 15.8806C12.7423 15.89 12.8052 15.8984 12.8679 15.9091C13.0402 15.9382 13.2117 15.9717 13.3821 16.0096C13.3947 16.0127 13.4076 16.0146 13.4209 16.0176C13.6034 16.0585 13.7852 16.1052 13.9658 16.1561C14.0231 16.1721 14.0805 16.1906 14.1378 16.2077C14.2611 16.2449 14.3844 16.2824 14.5071 16.3238C14.5742 16.3466 14.641 16.3709 14.7074 16.3952C14.8201 16.4355 14.9325 16.4776 15.0441 16.522C15.112 16.5489 15.1796 16.5766 15.2471 16.6047C15.2873 16.6218 15.3276 16.6408 15.3678 16.6582C15.3184 16.7679 15.2691 16.878 15.2171 16.9857C15.1678 17.0867 15.12 17.1896 15.0688 17.2897Z" />
<path d="M8.92763 20.1886C8.79482 20.0489 8.66691 19.9036 8.54053 19.7567C8.47679 19.6823 8.41033 19.6106 8.34812 19.5346C8.17619 19.3247 8.00999 19.1088 7.85053 18.8861C7.838 18.869 7.82471 18.853 7.81218 18.8359C7.6414 18.5949 7.48009 18.3464 7.32528 18.0924C7.2763 18.012 7.2319 17.9281 7.18483 17.8469C7.08198 17.6696 6.98104 17.4912 6.88652 17.3087C6.83418 17.207 6.78558 17.1034 6.73584 17.0005C6.68388 16.8935 6.6349 16.7846 6.58592 16.676C6.62612 16.6582 6.666 16.6392 6.70627 16.6221C6.77725 16.5922 6.84823 16.5629 6.91915 16.5345C7.02995 16.4905 7.1412 16.448 7.25315 16.4073C7.32146 16.3827 7.38977 16.3576 7.45847 16.3341C7.5818 16.2923 7.70551 16.2536 7.83005 16.216C7.88774 16.1986 7.94543 16.1796 8.00389 16.1629C8.18605 16.1113 8.36975 16.0635 8.55458 16.0217C8.56635 16.019 8.5785 16.0171 8.59065 16.0145C8.7641 15.9754 8.9387 15.9416 9.11361 15.9113C9.17588 15.901 9.23885 15.8923 9.30112 15.8828C9.42751 15.8631 9.55389 15.8448 9.68104 15.8297C9.75355 15.8213 9.82638 15.8141 9.89927 15.8069C10.0192 15.7951 10.1391 15.7849 10.2599 15.7769C10.3339 15.772 10.4082 15.7679 10.4827 15.7644C10.5286 15.7621 10.5745 15.7621 10.6204 15.7606V21.6501C10.5753 21.6182 10.5286 21.5894 10.4838 21.5567C10.3927 21.4903 10.3035 21.4216 10.2144 21.3522C10.0774 21.2459 9.94227 21.1366 9.80978 21.0235C9.72251 20.9488 9.63556 20.8732 9.54982 20.7951C9.41886 20.6762 9.29101 20.5529 9.16501 20.4273C9.0855 20.3487 9.00504 20.2706 8.92763 20.1886Z" />
<path d="M5.82501 14.5378C5.8072 14.4695 5.7878 14.4019 5.77075 14.3332C5.7233 14.1401 5.67967 13.9457 5.64055 13.7507C5.6375 13.7343 5.63298 13.7184 5.62993 13.7021C5.58821 13.4892 5.55176 13.2755 5.51951 13.0603C5.51003 12.9958 5.50278 12.9305 5.49407 12.8656C5.47397 12.7149 5.45457 12.5638 5.43905 12.4121C5.43072 12.3309 5.42423 12.2492 5.41742 12.168C5.40566 12.0303 5.39542 11.8921 5.38747 11.7536C5.3825 11.6671 5.37875 11.5809 5.37532 11.4944C5.37303 11.4317 5.37265 11.3688 5.37074 11.3061H10.6204V14.9978C10.5657 14.9997 10.5122 15.0042 10.4575 15.0065C10.3775 15.0103 10.297 15.0144 10.2169 15.0198C10.0871 15.0277 9.95772 15.0391 9.82867 15.0517C9.75241 15.0592 9.67608 15.0661 9.59982 15.0752C9.45861 15.0919 9.31861 15.1124 9.17856 15.134C9.11667 15.1435 9.05446 15.1514 8.99257 15.1618C8.79221 15.1963 8.59294 15.235 8.39481 15.2798C8.37204 15.2851 8.35003 15.2916 8.32726 15.2969C8.15228 15.3374 7.97774 15.3823 7.80467 15.4312C7.73827 15.4501 7.67225 15.4711 7.60616 15.4912C7.4771 15.5303 7.34811 15.5701 7.2202 15.6137C7.14578 15.6388 7.07181 15.6661 6.99815 15.6927C6.87819 15.7359 6.75906 15.7815 6.64024 15.8289C6.56582 15.8585 6.49185 15.8889 6.41781 15.92C6.37494 15.9382 6.33131 15.9545 6.28838 15.9735C6.26828 15.9204 6.24665 15.868 6.22687 15.8149C6.19768 15.7359 6.16918 15.6566 6.14145 15.5773C6.09667 15.449 6.05418 15.3199 6.01354 15.1906C5.98924 15.1132 5.96418 15.0361 5.94103 14.9583C5.89975 14.819 5.86177 14.6786 5.82501 14.5378Z" />
<path d="M5.38588 10.1323C5.39344 9.99792 5.40292 9.86429 5.41399 9.7311C5.42041 9.65407 5.42614 9.57698 5.43371 9.49996C5.44815 9.35423 5.46557 9.20883 5.48459 9.06387C5.49254 9.00199 5.49941 8.93978 5.50813 8.87789C5.5377 8.67219 5.57116 8.46725 5.60945 8.26384C5.61403 8.23954 5.62007 8.21563 5.62503 8.19133C5.65995 8.0126 5.69754 7.83457 5.73965 7.65774C5.75561 7.58905 5.77419 7.52112 5.7913 7.45281C5.82469 7.32038 5.85923 7.18789 5.89644 7.05661C5.91845 6.97958 5.9416 6.90325 5.96475 6.82699C6.00196 6.70442 6.04025 6.58217 6.08089 6.46075C6.1071 6.38258 6.13362 6.30441 6.16097 6.22655C6.17694 6.18101 6.19475 6.13585 6.21148 6.09069C6.25511 6.11003 6.29913 6.12675 6.34282 6.14571C6.41756 6.17796 6.49274 6.20906 6.56748 6.23985C6.6889 6.28959 6.81077 6.33665 6.93334 6.38219C7.00776 6.40955 7.08249 6.43721 7.15723 6.46342C7.28743 6.50858 7.41871 6.5503 7.55044 6.59057C7.61761 6.61105 7.68439 6.63306 7.75156 6.65284C7.92387 6.70258 8.09732 6.74735 8.27154 6.7887C8.29851 6.79512 8.32503 6.80314 8.352 6.80918C8.55312 6.85587 8.75621 6.89607 8.96001 6.93137C9.02228 6.94199 9.08486 6.94994 9.14713 6.96018C9.28986 6.98257 9.43292 7.00381 9.57711 7.0213C9.65452 7.0304 9.73269 7.03765 9.81054 7.0456C9.94151 7.05851 10.0728 7.0699 10.2049 7.07861C10.2865 7.08396 10.3689 7.08847 10.4505 7.09229C10.507 7.09496 10.5632 7.09986 10.6197 7.10177V10.5471H5.37067C5.3722 10.4894 5.37258 10.4313 5.37487 10.3736C5.37792 10.2932 5.38168 10.2127 5.38588 10.1323Z" />
<path d="M6.80415 4.71146C6.89905 4.52097 7.00152 4.33536 7.10476 4.15091C7.15221 4.06625 7.19622 3.97974 7.2452 3.89661C7.40116 3.63246 7.56475 3.37479 7.73782 3.12463C7.75678 3.09766 7.7777 3.07266 7.79666 3.04569C7.95262 2.82403 8.1143 2.60809 8.28286 2.39895C8.34736 2.31887 8.41605 2.24375 8.48214 2.16552C8.61043 2.01446 8.73987 1.86454 8.8742 1.72072C8.9539 1.63568 9.03665 1.55452 9.11826 1.47215C9.24693 1.34272 9.37707 1.21557 9.5107 1.093C9.59873 1.01216 9.68867 0.933604 9.77944 0.855815C9.91416 0.739671 10.0515 0.627725 10.1912 0.518768C10.2846 0.446258 10.378 0.373811 10.4732 0.304353C10.5214 0.269052 10.5715 0.237567 10.6204 0.203411V6.33773C10.5722 6.33621 10.524 6.33583 10.4759 6.33354C10.4004 6.3301 10.3248 6.32559 10.2493 6.32062C10.1252 6.31229 10.0019 6.30167 9.87847 6.28952C9.80558 6.28195 9.73275 6.27508 9.65986 6.26599C9.5289 6.25002 9.39876 6.23107 9.26856 6.21059C9.2059 6.20073 9.14332 6.1924 9.08105 6.18139C8.90308 6.15029 8.72581 6.11461 8.55007 6.07472C8.53716 6.07205 8.52424 6.06976 8.51133 6.06677C8.32198 6.02314 8.13409 5.97302 7.94734 5.91915C7.89194 5.90318 7.83654 5.88461 7.78146 5.8675C7.65087 5.82762 7.52074 5.78627 7.39168 5.74111C7.32451 5.71758 7.25811 5.69252 7.19126 5.66784C7.07397 5.62459 6.95706 5.57943 6.84098 5.53198C6.77191 5.50348 6.70321 5.47467 6.6349 5.44509C6.58898 5.42499 6.54382 5.40337 6.49789 5.38244C6.54801 5.26591 6.59845 5.14977 6.65163 5.03515C6.70245 4.92664 6.75104 4.81775 6.80415 4.71146Z" />
<path d="M13.0865 1.73713C13.2208 1.88133 13.3503 2.03087 13.4786 2.18269C13.5446 2.26086 13.6129 2.33681 13.6767 2.41689C13.8334 2.61235 13.9837 2.81423 14.1291 3.02032C14.1587 3.06204 14.191 3.10154 14.2202 3.14365C14.3936 3.39527 14.5583 3.65485 14.7147 3.92053C14.7557 3.99075 14.7925 4.06396 14.8328 4.13456C14.944 4.33231 15.0529 4.53152 15.1542 4.73608C15.2044 4.83664 15.2499 4.93949 15.2974 5.04158C15.3528 5.16077 15.4048 5.28182 15.4568 5.40324C15.4135 5.42219 15.3706 5.44274 15.3273 5.46131C15.2571 5.49127 15.1869 5.52053 15.1163 5.54896C15.0036 5.5945 14.8905 5.63775 14.7766 5.67954C14.7083 5.7046 14.6408 5.73005 14.5721 5.75358C14.4468 5.79645 14.3204 5.83633 14.1941 5.87462C14.1367 5.89205 14.0794 5.91107 14.0217 5.92773C13.8381 5.98008 13.6525 6.02867 13.4661 6.07154C13.4494 6.07536 13.4327 6.07797 13.416 6.08179C13.2456 6.12014 13.074 6.15391 12.9017 6.18425C12.8391 6.19526 12.7757 6.20359 12.7127 6.21345C12.5851 6.23317 12.4572 6.25218 12.3286 6.26732C12.2561 6.27604 12.1829 6.28329 12.1096 6.29048C11.9886 6.30262 11.8667 6.31286 11.7449 6.32082C11.6702 6.32578 11.595 6.33029 11.5199 6.33373C11.4732 6.33564 11.4257 6.33602 11.3791 6.33754V0.240239C11.4178 0.267971 11.458 0.292586 11.4967 0.3207C11.5878 0.387486 11.6774 0.45847 11.7665 0.52869C11.9093 0.640255 12.05 0.754491 12.1878 0.873688C12.2762 0.949951 12.3635 1.02819 12.4497 1.1075C12.5848 1.23198 12.7169 1.36027 12.8466 1.49155C12.9274 1.5724 13.0079 1.65324 13.0865 1.73713Z" />
<path d="M16.1583 7.46801C16.1754 7.53594 16.194 7.60349 16.2099 7.6718C16.2509 7.84792 16.2888 8.02513 16.3234 8.20316C16.3283 8.22746 16.334 8.25138 16.3386 8.27567C16.3769 8.47832 16.4099 8.6818 16.4391 8.88635C16.4479 8.94862 16.4547 9.01121 16.4627 9.07348C16.4813 9.21691 16.4987 9.36079 16.5132 9.50574C16.5208 9.58201 16.5265 9.6591 16.5329 9.73574C16.5435 9.86855 16.5534 10.0014 16.5602 10.135C16.5648 10.2147 16.5682 10.2948 16.5713 10.3749C16.5735 10.4318 16.5735 10.4895 16.5751 10.5464H11.3794V7.1003C11.4348 7.09878 11.4894 7.0935 11.5449 7.09121C11.6265 7.08739 11.7073 7.08326 11.7886 7.07791C11.9195 7.06958 12.0497 7.0582 12.1799 7.04528C12.2565 7.03771 12.3332 7.03046 12.4095 7.02175C12.5533 7.00464 12.696 6.98378 12.8387 6.96139C12.8991 6.95191 12.9602 6.94428 13.0205 6.93366C13.2228 6.89874 13.4244 6.85924 13.6243 6.8137C13.6475 6.80835 13.6699 6.80193 13.693 6.79627C13.8699 6.75492 14.0456 6.70938 14.2206 6.66002C14.2847 6.64183 14.3481 6.62091 14.4118 6.60157C14.5454 6.56137 14.6783 6.5192 14.8103 6.47404C14.8817 6.44936 14.9531 6.42316 15.024 6.3974C15.1488 6.35185 15.2729 6.30402 15.3966 6.25428C15.468 6.22547 15.5386 6.19659 15.6095 6.16625C15.6536 6.1473 15.6979 6.13057 15.7423 6.11123C15.7587 6.15678 15.7765 6.20155 15.7925 6.2471C15.8194 6.32374 15.846 6.40121 15.8714 6.47824C15.9113 6.59928 15.95 6.72115 15.9868 6.84334C16.0099 6.91998 16.0331 6.99631 16.0551 7.07333C16.0912 7.205 16.1253 7.33628 16.1583 7.46801Z" />
<path d="M16.5584 11.7521C16.5508 11.8883 16.5406 12.0242 16.5292 12.1593C16.522 12.2424 16.5159 12.3255 16.5072 12.4079C16.492 12.5559 16.4734 12.7028 16.4537 12.85C16.4446 12.9179 16.437 12.9855 16.4271 13.0534C16.3956 13.2667 16.3596 13.4789 16.3182 13.6899C16.3144 13.7096 16.3095 13.7294 16.3053 13.7491C16.267 13.9403 16.2249 14.1301 16.1786 14.3191C16.1614 14.3889 16.1417 14.4573 16.1235 14.5267C16.0871 14.6652 16.0503 14.8034 16.0097 14.9404C15.9861 15.0205 15.9607 15.0998 15.9356 15.1791C15.8961 15.3051 15.8548 15.4307 15.8115 15.5556C15.7831 15.6376 15.7539 15.7196 15.7235 15.8008C15.7046 15.8521 15.684 15.9029 15.6647 15.9538C15.621 15.9348 15.577 15.9185 15.533 15.9003C15.4628 15.8711 15.3926 15.8426 15.322 15.8145C15.2013 15.7666 15.0794 15.7207 14.9576 15.6771C14.8863 15.652 14.8157 15.6262 14.7444 15.6023C14.6153 15.5591 14.4856 15.5188 14.3557 15.4802C14.292 15.4608 14.2282 15.4407 14.1641 15.4229C13.9906 15.3743 13.8164 15.3302 13.6407 15.2897C13.6199 15.2847 13.5998 15.279 13.5789 15.2745C13.3826 15.2304 13.1857 15.1921 12.9872 15.1587C12.9257 15.1481 12.8635 15.1401 12.802 15.131C12.6638 15.1097 12.5253 15.09 12.3864 15.0737C12.3109 15.0649 12.2353 15.0577 12.1594 15.0505C12.0319 15.038 11.904 15.027 11.7754 15.0186C11.6965 15.0137 11.6175 15.0095 11.5382 15.0057C11.4851 15.0034 11.4327 14.9985 11.3796 14.9974V11.3061H16.5749C16.573 11.368 16.5727 11.4302 16.5704 11.4917C16.5671 11.579 16.5629 11.6655 16.5584 11.7521Z" />
<path d="M17.3379 10.5471C17.3364 10.4871 17.3319 10.4279 17.3299 10.368C17.3265 10.2731 17.3224 10.1782 17.3174 10.0833C17.3102 9.95353 17.3011 9.82377 17.2904 9.69472C17.2829 9.60325 17.2764 9.51178 17.2669 9.42032C17.2532 9.28255 17.2366 9.14554 17.2191 9.00892C17.2088 8.92769 17.1997 8.84609 17.1884 8.76486C17.1625 8.58499 17.1322 8.40581 17.0999 8.22746C17.0931 8.19063 17.0886 8.1538 17.0814 8.11742C17.0411 7.90453 16.9952 7.69273 16.9459 7.48206C16.9292 7.41261 16.9102 7.34391 16.8928 7.27484C16.8567 7.13141 16.8199 6.98829 16.7793 6.84594C16.7565 6.76625 16.7319 6.68693 16.7079 6.60761C16.6684 6.47589 16.6275 6.34499 16.5838 6.2144C16.5573 6.13432 16.5288 6.05424 16.5007 5.97416C16.4776 5.90929 16.4571 5.84358 16.4332 5.77909C16.5819 5.70168 16.7243 5.61397 16.8689 5.53051C16.9543 5.48154 17.0412 5.43562 17.1254 5.38403C17.4074 5.21172 17.6833 5.02956 17.9494 4.83371C17.9794 4.81171 18.0071 4.78665 18.0367 4.76464C18.2716 4.58851 18.5008 4.40336 18.7228 4.20936C18.8052 4.13761 18.8841 4.06059 18.9646 3.98655C19.072 3.88713 19.1832 3.79185 19.288 3.68824C20.9606 5.60105 21.9136 8.00993 22.0001 10.547L17.3379 10.5471Z" />
<path d="M18.7608 3.12692C18.656 3.2313 18.5509 3.33644 18.4423 3.43623C18.3733 3.49958 18.3069 3.56605 18.2363 3.6275C18.004 3.83091 17.766 4.02599 17.5186 4.20853C17.4943 4.22634 17.4677 4.24193 17.4435 4.2598C17.2192 4.42263 16.9884 4.5763 16.7523 4.72132C16.6662 4.77443 16.577 4.82303 16.4897 4.87353C16.3762 4.93879 16.2605 4.99915 16.1447 5.06066C16.0878 4.92861 16.0241 4.8007 15.9629 4.67127C15.9234 4.58699 15.8859 4.50163 15.8445 4.41811C15.7041 4.13424 15.5564 3.85603 15.3986 3.58469C15.3743 3.54296 15.3469 3.50346 15.3223 3.46212C15.1853 3.2325 15.0422 3.00785 14.8926 2.78809C14.8353 2.70343 14.7753 2.62189 14.7161 2.53876C14.5894 2.36117 14.4592 2.18772 14.3248 2.01764C14.2611 1.93717 14.1977 1.85633 14.132 1.7774C13.9738 1.5869 13.8098 1.40206 13.6421 1.22212C13.6004 1.17696 13.5601 1.12913 13.5172 1.08473C13.3066 0.865355 13.0883 0.655838 12.8644 0.453954C12.8022 0.398172 12.7373 0.346142 12.6743 0.291505C12.5609 0.193616 12.4493 0.0929915 12.3331 0C14.7659 0.29036 17.0024 1.37395 18.7608 3.12692Z" />
<path d="M9.27072 0.291886C9.20769 0.346142 9.14395 0.39779 9.08168 0.453572C8.85741 0.655075 8.6388 0.864592 8.42813 1.08435C8.39245 1.12156 8.35906 1.16176 8.32376 1.19935C8.14954 1.38533 7.98029 1.57698 7.81593 1.77434C7.75258 1.85061 7.69145 1.92884 7.62957 2.00663C7.49332 2.17856 7.36121 2.35392 7.23298 2.53341C7.17529 2.61388 7.1176 2.69357 7.06144 2.77556C6.91038 2.99685 6.76542 3.22379 6.6265 3.4557C6.60373 3.49405 6.57867 3.53043 6.55628 3.56879C6.39765 3.84013 6.24888 4.1191 6.10805 4.40298C6.06894 4.48153 6.03402 4.56161 5.99649 4.64093C5.93384 4.77265 5.86896 4.90279 5.81051 5.03674C5.6978 4.97638 5.58432 4.91678 5.47384 4.85267C5.38734 4.80255 5.30001 4.75402 5.21503 4.7016C4.98122 4.55703 4.75313 4.40406 4.53114 4.24237C4.50761 4.22564 4.48293 4.21089 4.45978 4.1934C4.2161 4.01276 3.98121 3.81997 3.75235 3.61916C3.6829 3.55804 3.61687 3.49278 3.54856 3.42981C3.44266 3.33192 3.34019 3.22939 3.23772 3.12692C4.97861 1.39137 7.19202 0.311223 9.60013 0.00915923C9.48857 0.0998609 9.38038 0.197368 9.27072 0.291886Z" />
<path d="M2.71208 3.68824C2.81379 3.78918 2.9216 3.88141 3.02636 3.9786C3.10644 4.05264 3.18461 4.1289 3.2666 4.20065C3.48521 4.39191 3.71025 4.57446 3.94177 4.74867C3.97135 4.77106 3.9987 4.79574 4.02828 4.81775C4.2909 5.0113 4.56263 5.19194 4.84084 5.3631C4.92435 5.41475 5.01124 5.46061 5.09628 5.50997C5.23786 5.59234 5.37678 5.67846 5.52212 5.75517C5.49858 5.8189 5.47772 5.88384 5.45495 5.94796C5.42576 6.03033 5.3965 6.1127 5.36883 6.19538C5.3252 6.32559 5.28417 6.45649 5.24397 6.58783C5.21967 6.66753 5.19461 6.74723 5.17184 6.82731C5.1305 6.97265 5.09253 7.11919 5.05532 7.26568C5.03859 7.33208 5.02002 7.39811 5.00405 7.46457C4.95355 7.67784 4.90686 7.89232 4.8659 8.10826C4.86132 8.1318 4.85795 8.15571 4.85375 8.17925C4.81807 8.37204 4.78582 8.56597 4.75771 8.76028C4.74708 8.83394 4.73913 8.90829 4.72959 8.98195C4.71064 9.12767 4.69276 9.27345 4.67833 9.41956C4.66999 9.50536 4.66312 9.5911 4.65632 9.67691C4.64531 9.81353 4.63507 9.95054 4.62782 10.0879C4.62286 10.1775 4.61911 10.267 4.61567 10.3567C4.61338 10.42 4.60849 10.483 4.60734 10.5464H0C0.0865037 8.00993 1.03913 5.60105 2.71208 3.68824Z" />
<path d="M4.60785 11.3061C4.60938 11.3752 4.61466 11.4431 4.61733 11.5122C4.62076 11.6075 4.6249 11.7027 4.63024 11.7976C4.63819 11.9396 4.64881 12.0807 4.66096 12.2215C4.66891 12.3126 4.67578 12.4037 4.68488 12.4948C4.70046 12.6462 4.7198 12.7973 4.7399 12.9479C4.75052 13.0253 4.75885 13.1035 4.77062 13.1809C4.8021 13.3901 4.83778 13.5977 4.87767 13.8045C4.8811 13.8227 4.88371 13.841 4.88714 13.8592C4.93154 14.0834 4.98204 14.3063 5.03668 14.5275C5.05411 14.5989 5.07503 14.6695 5.09361 14.7404C5.13311 14.8907 5.17331 15.0406 5.2177 15.1894C5.24276 15.2733 5.27005 15.3564 5.29664 15.4399C5.33951 15.5746 5.38352 15.7097 5.43059 15.8434C5.46093 15.9302 5.49286 16.016 5.52473 16.1022C5.54941 16.1693 5.57218 16.2365 5.598 16.3033C5.45909 16.375 5.32551 16.4566 5.18965 16.5337C5.10537 16.5819 5.02002 16.6267 4.93688 16.6764C4.66249 16.8419 4.39414 17.0164 4.13418 17.2036C4.11561 17.2172 4.09811 17.2324 4.07954 17.246C3.8393 17.4214 3.60625 17.6066 3.37931 17.8006C3.30152 17.867 3.22748 17.9376 3.15122 18.0059C3.04379 18.1027 2.93299 18.1952 2.82861 18.2962C1.08206 16.3629 0.0884119 13.907 0 11.3061H4.60785Z" />
<path d="M3.36372 18.8485C3.46199 18.7536 3.56033 18.6576 3.66165 18.5665C3.73035 18.505 3.79713 18.4413 3.86735 18.3813C4.09392 18.1877 4.32582 18.0014 4.56606 17.8275C4.58279 17.8154 4.60098 17.8048 4.61771 17.793C4.84275 17.6321 5.07427 17.4814 5.31038 17.338C5.39389 17.2875 5.48001 17.2408 5.56467 17.1926C5.67395 17.1303 5.78557 17.0734 5.89676 17.0146C5.95559 17.1441 6.02047 17.2697 6.08312 17.3969C6.11995 17.4716 6.15449 17.5475 6.19278 17.6219C6.33322 17.8955 6.48085 18.1639 6.63795 18.425C6.66149 18.4645 6.68807 18.502 6.71199 18.5415C6.84823 18.7624 6.98982 18.9787 7.13783 19.1905C7.19247 19.2683 7.24863 19.3446 7.30441 19.4212C7.43232 19.5966 7.56437 19.7681 7.69985 19.9359C7.7583 20.008 7.81599 20.0808 7.87559 20.1514C8.04943 20.3575 8.22816 20.5576 8.41338 20.7511C8.43424 20.7727 8.45326 20.7955 8.47412 20.8171C8.68059 21.03 8.895 21.2327 9.11476 21.4282C9.17741 21.484 9.24191 21.5368 9.30564 21.5914C9.40391 21.6757 9.49996 21.7629 9.60052 21.8434C7.25429 21.548 5.08527 20.5112 3.36372 18.8485Z" />
<path d="M12.6435 21.5883C12.705 21.5356 12.7676 21.485 12.8284 21.4308C13.0489 21.2338 13.2641 21.03 13.4717 20.8164C13.4979 20.7894 13.5226 20.7602 13.5483 20.7328C13.7286 20.5438 13.9032 20.3484 14.0724 20.1476C14.1332 20.0759 14.1916 20.0015 14.2512 19.9282C14.3863 19.7609 14.5176 19.5893 14.6451 19.4144C14.7021 19.3366 14.7594 19.2592 14.8144 19.1798C14.9613 18.9687 15.1021 18.7536 15.2372 18.5334C15.2626 18.4921 15.2903 18.4522 15.3154 18.4109C15.4717 18.1498 15.6193 17.881 15.759 17.6082C15.7989 17.53 15.8357 17.4495 15.8748 17.3702C15.9359 17.2446 16 17.1209 16.0577 16.9933C16.1738 17.0533 16.2904 17.1129 16.4042 17.177C16.4881 17.2245 16.5731 17.2696 16.6555 17.3194C16.9044 17.4689 17.1481 17.626 17.3841 17.7945C17.3932 17.8013 17.4031 17.8067 17.4119 17.8131C17.6571 17.9896 17.8935 18.1786 18.1243 18.3752C18.1945 18.4348 18.2616 18.4989 18.3303 18.5608C18.4339 18.6538 18.5345 18.7513 18.6351 18.8488C16.8961 20.5282 14.7043 21.5689 12.333 21.8528C12.439 21.7682 12.5407 21.6767 12.6435 21.5883Z" />
</svg>
