<svg width="22" height="22" viewBox="0 0 22 22" fill="currentColor" xmlns="http://www.w3.org/2000/svg">
<path d="M11 0C4.92507 0 0 4.92507 0 11L0.00036664 11.0194L0 11.0389C0 17.0925 4.89757 22 10.9395 22L10.963 21.9993L11 22C17.0749 22 22 17.0749 22 11C22 4.92507 17.0749 0 11 0ZM21.2667 11C21.2667 11.8778 21.1559 12.7296 20.9491 13.5425C20.8534 13.4765 20.6004 13.7493 20.5381 13.3877C20.46 12.9389 19.954 12.6273 19.6816 12.8418C19.4091 13.0563 18.6307 13.68 18.5922 14.0701C18.553 14.4599 18.2219 14.9277 18.0668 14.597C17.9106 14.2655 17.4442 13.2319 17.4632 12.9591C17.4823 12.6863 17.2484 13.0566 16.8993 12.5107C16.5488 11.9647 15.9456 12.4322 15.459 12.1594C14.9725 11.8862 14.4276 11.5159 14.1548 11.3993C13.8831 11.282 14.6414 12.4909 14.7389 12.335C14.8368 12.1792 15.2255 12.452 15.3424 12.452C15.4594 12.452 15.7703 12.7248 15.576 12.9785C15.3817 13.2323 13.6499 14.2861 13.4746 14.0118C13.2986 13.7375 12.2683 11.6134 12.0927 11.7436C11.9174 11.8738 13.1828 14.0895 13.3969 14.2259C13.6103 14.3627 14.2531 14.2457 14.564 14.1093C14.8757 13.9729 13.922 15.6303 13.5139 15.8253C13.1054 16.02 12.7747 16.6247 12.9492 16.8975C13.1245 17.1703 13.1439 18.2039 12.7747 18.3407C12.4043 18.4767 12.2683 18.6912 12.3849 18.9449C12.5011 19.1979 12.1128 19.6266 11.9376 19.8997C11.7619 20.1725 11.0814 20.7379 11.0227 20.8941C10.9648 21.0503 10.1281 21.0111 9.7966 21.0111C9.46623 21.0111 9.71887 20.6015 9.67963 20.251C9.6415 19.8997 9.34963 19.5683 9.34963 19.393C9.34963 19.2174 9.25173 18.8078 9.11607 18.6131C8.98003 18.4177 8.94043 18.0473 9.07683 17.8332C9.2136 17.6183 9.3104 16.995 9.0387 16.7218C8.7659 16.449 8.45423 15.9808 8.66873 15.6105C8.88287 15.2401 8.43517 15.2794 8.06557 15.1034C7.6956 14.9277 6.9366 15.162 6.54757 15.2207C6.15817 15.279 5.7695 15.1232 5.65253 14.9277C5.53593 14.733 5.28293 14.2457 5.0237 14.1284C4.7652 14.0118 4.91333 13.5047 5.0688 13.31C5.225 13.1153 4.91333 12.7446 5.0688 12.588C5.225 12.4322 5.3218 11.8672 5.6331 11.7436C5.94477 11.6204 5.8861 11.5357 5.89563 11.2431C5.90553 10.9505 6.2458 10.9505 6.30373 10.7947C6.3624 10.6385 6.5373 10.5607 6.88857 10.5607C7.23873 10.5607 7.83163 10.3558 8.11397 10.2876C8.3963 10.2194 8.88287 10.1218 8.84363 10.395C8.80477 10.6678 8.81467 10.9795 8.9991 10.9795C9.18427 10.9795 9.43727 11.0869 9.72913 11.2688C10.021 11.4503 10.0305 11.3018 10.0698 11.0968C10.109 10.8918 10.5171 10.9699 10.9395 11.165C11.3619 11.3601 11.9379 11.2233 12.122 11.2042C12.3072 11.1841 12.3853 10.6289 12.3365 10.4438C12.2874 10.2586 11.9959 10.5314 11.8111 10.4144C11.6263 10.2978 11.3729 10.4438 11.1885 10.2777C11.0033 10.1123 10.974 9.72217 11.1885 9.71263C11.4022 9.70273 11.5097 9.63453 11.6358 9.4886C11.7627 9.3423 12.2393 9.25467 12.4241 9.4006C12.6086 9.5469 12.8817 9.64443 13.0464 9.4787C13.2117 9.31333 12.7164 8.99177 12.6086 8.90377C12.5015 8.81613 12.5891 8.53343 12.4824 8.53343C12.375 8.53343 12.2874 8.58183 12.346 8.7186C12.4043 8.855 12.0347 9.09847 11.9757 8.96243C11.9178 8.82567 11.8206 8.56277 11.6747 8.56277C11.5291 8.56277 11.3344 9.2257 11.3245 9.33277C11.3146 9.4402 11.0616 9.61547 10.8577 9.61547C10.6539 9.61547 10.6539 9.84977 10.7606 9.9572C10.8676 10.0643 10.7895 10.4933 10.5952 10.5178C10.4005 10.5428 10.3323 10.4738 10.3033 10.3077C10.2744 10.1424 10.0797 10.1618 10.0698 9.82043C10.0599 9.47907 9.84573 9.3137 9.7097 9.1575C9.57367 9.0013 9.22313 8.54333 9.0871 8.7483C8.95107 8.95327 9.57367 9.3918 9.73867 9.5084C9.90477 9.62537 9.87543 9.87873 9.7878 9.9374C9.70017 9.99607 9.5348 10.4738 9.43763 10.5123C9.33973 10.5512 9.24697 10.3671 9.24697 10.3671C9.10103 10.3088 9.45083 10.1332 9.5095 10.0456C9.56743 9.95793 8.8968 9.34377 8.7758 9.16813C8.6548 8.9925 8.1378 9.31407 7.9046 9.19747C7.67103 9.08087 7.3205 9.636 7.2919 9.95757C7.2622 10.2795 6.8827 10.3668 6.53253 10.3668C6.18273 10.3668 5.9488 10.1039 6.06613 9.8406C6.18273 9.57733 6.00747 9.1388 6.21207 9.10947C6.4163 9.0805 6.9993 9.10947 7.11627 8.7879C7.23287 8.46633 6.5615 8.17373 6.82477 8.11543C7.08693 8.05677 7.49613 7.64793 7.788 7.41363C8.07913 7.1797 8.10847 6.88747 8.371 6.86693C8.63427 6.84677 8.31307 6.36057 8.54663 6.21463C8.78057 6.06833 8.8385 6.74117 9.01377 6.74117C9.18903 6.74117 9.53847 6.6825 9.8307 6.8288C10.1229 6.9751 10.2102 6.6825 10.3272 6.3019C10.4438 5.92203 10.7356 5.71707 11.319 5.42483C11.9027 5.13223 10.6484 5.51247 10.4144 5.21987C10.1809 4.92727 10.5021 4.28377 10.6484 3.82947C10.7943 3.3748 10.1812 4.28377 9.86003 4.752C9.53847 5.21987 9.94767 5.42447 9.91797 5.74603C9.889 6.06797 9.3643 6.44783 9.3643 6.44783C9.13073 6.47717 9.1597 6.0093 9.0431 5.8047C8.92613 5.6001 8.72153 5.68773 8.40033 5.92167C8.07913 6.1556 8.05017 5.36617 7.9629 5.04423C7.876 4.72303 8.48833 4.3131 8.77617 4.09457C9.06363 3.8753 9.53847 2.82187 10.0643 2.00347C10.5901 1.1847 11.3487 1.5939 11.5529 1.91583C11.7579 2.23703 12.2822 2.03243 12.7791 2.61763C13.2755 3.20247 12.6621 3.46537 12.1084 3.22777C11.5529 2.99017 12.2247 3.81663 12.5451 4.05057C12.8663 4.28413 13.0416 3.52403 13.1586 3.34877C13.2752 3.17313 13.7126 3.26113 14.0334 2.7929C14.355 2.32503 15.0843 2.41303 15.5008 2.46437C15.9177 2.51607 15.814 2.20807 15.5514 1.95617C15.3571 1.7699 15.7546 1.93307 16.2224 2.1615C19.2412 3.94827 21.2667 7.2369 21.2667 11ZM6.6154 7.5064C6.5186 7.4063 6.7133 7.01213 6.80057 6.89517C6.88857 6.7782 6.5571 6.81707 6.57727 6.98317C6.5967 7.14853 6.4504 7.40227 6.24617 7.47047C6.04193 7.53867 5.8091 7.51887 5.92533 7.3337C6.04157 7.14853 5.93487 6.9828 5.84723 6.80717C5.75997 6.63153 6.33343 6.52447 6.45077 6.4174C6.56737 6.31033 6.26633 6.24177 6.2755 6.0764C6.2854 5.9103 6.3536 5.76437 6.46947 5.74493C6.58643 5.7255 6.6957 5.6507 6.80057 5.6573C7.12213 5.6771 7.02387 6.40787 7.1412 6.64217C7.2578 6.87573 7.5889 7.1588 7.55957 7.36303C7.53023 7.568 7.4679 7.68497 7.22957 7.6263C6.99013 7.56763 6.60697 7.92843 6.4603 7.86023C6.314 7.79167 6.7133 7.6065 6.6154 7.5064M4.5188 3.4067C4.81103 3.55263 5.04387 3.2879 5.24773 3.23107C5.48937 3.16433 5.62723 4.02087 5.39403 3.99153C5.16047 3.9622 4.89793 4.4594 4.5606 4.43007C4.2229 4.40073 4.3725 4.16717 3.993 3.81627C3.9116 3.74073 3.87823 3.67253 3.8753 3.61277C3.95633 3.53467 4.037 3.4562 4.12097 3.38103C4.25223 3.3462 4.40807 3.35133 4.5188 3.4067M13.6495 18.1251C13.922 18.0668 13.8695 17.5483 14.1167 17.5208C14.6421 17.4625 14.1361 18.9244 13.9418 19.334C13.7471 19.7435 13.6686 19.7237 13.4834 19.4704C13.2975 19.2174 13.3577 18.8074 13.4834 18.6127C13.6088 18.4173 13.3767 18.1837 13.6495 18.1251"/>
</svg>
