<svg width="484" height="212" viewBox="0 0 484 212" fill="none" xmlns="http://www.w3.org/2000/svg">
<g clip-path="url(#clip0_850_51063)">
<path d="M153.504 163.296H124.992V208.8H95.328V163.296H0V139.104L94.752 2.304H124.992V137.376H153.504V163.296ZM95.328 81.504C95.328 76.896 95.328 72.48 95.328 68.256C95.52 64.032 95.712 60 95.904 56.16C96.096 52.128 96.192 48.48 96.192 45.216C96.384 41.76 96.576 38.688 96.768 36H95.616C94.08 39.84 92.16 43.776 89.856 47.808C87.744 51.84 85.536 55.392 83.232 58.464L28.8 137.376H95.328V81.504Z" fill="#5093EA"/>
<path d="M310.828 105.696C310.828 122.4 309.485 137.28 306.797 150.336C304.301 163.392 300.268 174.528 294.701 183.744C289.325 192.768 282.124 199.68 273.1 204.48C264.268 209.28 253.613 211.68 241.133 211.68C225.389 211.68 212.429 207.456 202.253 199.008C192.077 190.56 184.493 178.464 179.501 162.72C174.509 146.784 172.012 127.776 172.012 105.696C172.012 83.424 174.221 64.416 178.637 48.672C183.245 32.928 190.636 20.928 200.812 12.672C210.989 4.224 224.429 0 241.133 0C256.877 0 269.837 4.224 280.013 12.672C290.381 20.928 298.06 32.928 303.052 48.672C308.236 64.416 310.828 83.424 310.828 105.696ZM202.54 105.696C202.54 123.552 203.789 138.432 206.285 150.336C208.78 162.24 212.813 171.168 218.381 177.12C224.141 183.072 231.725 186.048 241.133 186.048C250.541 186.048 258.028 183.168 263.596 177.408C269.356 171.456 273.484 162.528 275.98 150.624C278.668 138.528 280.013 123.552 280.013 105.696C280.013 87.84 278.668 73.056 275.98 61.344C273.484 49.44 269.356 40.512 263.596 34.56C258.028 28.608 250.541 25.632 241.133 25.632C231.725 25.632 224.141 28.608 218.381 34.56C212.813 40.512 208.78 49.44 206.285 61.344C203.789 73.056 202.54 87.84 202.54 105.696Z" fill="#5093EA"/>
<path d="M483.129 163.296H454.617V208.8H424.953V163.296H329.625V139.104L424.377 2.304H454.617V137.376H483.129V163.296ZM424.953 81.504C424.953 76.896 424.953 72.48 424.953 68.256C425.145 64.032 425.337 60 425.529 56.16C425.721 52.128 425.817 48.48 425.817 45.216C426.009 41.76 426.201 38.688 426.393 36H425.241C423.705 39.84 421.785 43.776 419.481 47.808C417.369 51.84 415.161 55.392 412.857 58.464L358.425 137.376H424.953V81.504Z" fill="#5093EA"/>
</g>
<defs>
<clipPath id="clip0_850_51063">
<rect width="484" height="212" fill="white"/>
</clipPath>
</defs>
</svg>
