<svg width="274" height="274" viewBox="0 0 274 274" fill="none" xmlns="http://www.w3.org/2000/svg">
<path d="M197.813 178.875C230.272 161.052 254.88 147.471 257.001 146.416C263.786 142.807 270.793 133.257 257.001 125.839C252.548 123.506 228.573 110.348 197.813 93.3795L155.171 136.444L197.813 178.875Z" fill="#FFD900"/>
<path d="M155.171 136.444L19.394 273.287C22.5809 273.709 26.1792 272.864 30.4212 270.532C39.3274 265.657 133.739 214.098 197.813 178.885L155.171 136.444Z" fill="#F43249"/>
<path d="M155.171 136.444L197.813 93.5906C197.813 93.5906 39.9711 7.45173 30.4212 2.36549C26.8229 0.23392 22.7919 -0.399221 19.183 0.23392L155.171 136.444Z" fill="#00EE76"/>
<path d="M155.171 136.444L19.183 0.233917C13.6641 1.51075 9 6.38594 9 16.3579C9 32.2709 9 244.004 9 257.163C9 266.29 12.6089 272.864 19.3941 273.498L155.171 136.444Z" fill="#00D3FF"/>
</svg>
