<svg width="24" height="24" viewBox="0 0 24 24" fill="none" xmlns="http://www.w3.org/2000/svg">
    <path d="M20.315 14.3064C18.8425 14.7194 17.2866 14.7329 15.8072 14.3457C14.3277 13.9584 12.978 13.1844 11.8966 12.103C10.8152 11.0216 10.0412 9.67187 9.65393 8.19241C9.26668 6.71295 9.28022 5.15707 9.69313 3.68457C8.24138 4.08864 6.92083 4.86603 5.86302 5.93929C4.8052 7.01255 4.04704 8.34423 3.66406 9.80169C3.28107 11.2591 3.28663 12.7915 3.68017 14.2462C4.07371 15.7008 4.8415 17.0269 5.90706 18.0925C6.97263 19.1581 8.29878 19.9259 9.75342 20.3194C11.2081 20.713 12.7404 20.7185 14.1979 20.3355C15.6553 19.9525 16.987 19.1944 18.0603 18.1366C19.1336 17.0787 19.9109 15.7582 20.315 14.3064Z" fill="transparent" stroke="#1A1919" stroke-width="1.5" stroke-linecap="round" stroke-linejoin="round"/>
</svg>
