<svg width="3215" height="120" viewBox="0 0 3215 120" fill="none" xmlns="http://www.w3.org/2000/svg">
<path d="M12.6359 59.0454C15.0992 59.0543 17.5046 59.7935 19.5478 61.1694C21.591 62.5454 23.1802 64.4964 24.1146 66.7756C25.049 69.0548 25.2865 71.56 24.7972 73.9742C24.3078 76.3885 23.1135 78.6033 21.3653 80.3388C19.0211 82.666 15.8485 83.9667 12.5453 83.9547C9.24211 83.9426 6.079 82.6189 3.75181 80.2747C1.42462 77.9305 0.123969 74.7578 0.135991 71.4546C0.148013 68.1514 1.47172 64.9882 3.81592 62.661C4.97397 61.5051 6.3498 60.5903 7.86376 59.9697C9.37772 59.3491 10.9997 59.0349 12.6359 59.0454ZM12.5572 80.6923C14.375 80.699 16.154 80.1664 17.6691 79.162C19.1843 78.1575 20.3676 76.7264 21.0694 75.0495C21.7712 73.3725 21.96 71.5251 21.6119 69.7409C21.2639 67.9567 20.3945 66.3157 19.1139 65.0256C17.8332 63.7354 16.1988 62.854 14.4172 62.4927C12.6356 62.1315 10.7869 62.3066 9.10483 62.996C7.42279 63.6854 5.98294 64.8582 4.96736 66.3659C3.95178 67.8736 3.40609 69.6486 3.39927 71.4665C3.39304 73.9035 4.35372 76.2434 6.07056 77.973C7.7874 79.7026 10.1202 80.6806 12.5572 80.6923ZM12.6063 67.1827C13.4604 67.1858 14.2944 67.4421 15.0028 67.9192C15.7112 68.3963 16.2623 69.0728 16.5862 69.8631C16.9101 70.6534 16.9924 71.5221 16.8227 72.3591C16.6529 73.1962 16.2388 73.9641 15.6326 74.5658C15.0264 75.1675 14.2553 75.5759 13.417 75.7393C12.5787 75.9028 11.7107 75.814 10.9229 75.4841C10.1351 75.1543 9.46274 74.5982 8.99095 73.8862C8.51917 73.1742 8.26912 72.3383 8.27243 71.4842C8.27765 70.3392 8.73693 69.2432 9.54947 68.4365C10.362 67.6299 11.4614 67.1786 12.6063 67.1817L12.6063 67.1827Z" fill="currentColor"/>
<path d="M2737.5 106.782C2777.78 101.729 2879.11 27.4355 2971.68 22.4136C3066.52 17.2682 3105.78 106.782 3202.85 107.284M29 79.3486C29 79.3486 109.06 115.004 165.102 107.973C205.381 102.92 306.708 28.6272 399.278 23.6053C494.123 18.4599 533.378 107.973 630.451 108.476C726.799 108.974 765.641 15.9527 861.624 7.53523C964.701 -1.5043 996.406 106.895 1096.8 110.987C1195.37 115.004 1344.49 12.0553 1454.57 18.5837C1555.42 24.5649 1616.81 107.712 1690.25 111.991C1767.8 116.511 1843.36 27.6227 1920.92 24.6098C1998.48 21.5969 2085.54 114 2157.1 114C2258.11 114 2289.25 13.0591 2390.27 13.0594C2469.33 13.0596 2650.8 120.779 2739.5 106.5" stroke="currentColor" stroke-width="2" stroke-linecap="round" stroke-dasharray="4 8 12 16"/>
<path d="M3202.55 95.0454C3205.01 95.0543 3207.41 95.7935 3209.46 97.1694C3211.5 98.5454 3213.09 100.496 3214.02 102.776C3214.96 105.055 3215.2 107.56 3214.71 109.974C3214.22 112.388 3213.02 114.603 3211.28 116.339C3208.93 118.666 3205.76 119.967 3202.46 119.955C3199.15 119.943 3195.99 118.619 3193.66 116.275C3191.33 113.93 3190.03 110.758 3190.05 107.455C3190.06 104.151 3191.38 100.988 3193.73 98.661C3194.88 97.5051 3196.26 96.5903 3197.77 95.9697C3199.29 95.3491 3200.91 95.0349 3202.55 95.0454ZM3202.47 116.692C3204.29 116.699 3206.06 116.166 3207.58 115.162C3209.09 114.158 3210.28 112.726 3210.98 111.049C3211.68 109.373 3211.87 107.525 3211.52 105.741C3211.17 103.957 3210.3 102.316 3209.02 101.026C3207.74 99.7354 3206.11 98.854 3204.33 98.4927C3202.55 98.1315 3200.7 98.3066 3199.01 98.996C3197.33 99.6854 3195.89 100.858 3194.88 102.366C3193.86 103.874 3193.32 105.649 3193.31 107.466C3193.3 109.903 3194.26 112.243 3195.98 113.973C3197.7 115.703 3200.03 116.681 3202.47 116.692ZM3202.52 103.183C3203.37 103.186 3204.2 103.442 3204.91 103.919C3205.62 104.396 3206.17 105.073 3206.5 105.863C3206.82 106.653 3206.9 107.522 3206.73 108.359C3206.56 109.196 3206.15 109.964 3205.54 110.566C3204.94 111.167 3204.17 111.576 3203.33 111.739C3202.49 111.903 3201.62 111.814 3200.83 111.484C3200.05 111.154 3199.37 110.598 3198.9 109.886C3198.43 109.174 3198.18 108.338 3198.18 107.484C3198.19 106.339 3198.65 105.243 3199.46 104.437C3200.27 103.63 3201.37 103.179 3202.52 103.182L3202.52 103.183Z" fill="currentColor"/>
</svg>
