<svg width="794" height="88" viewBox="0 0 794 88" fill="none" xmlns="http://www.w3.org/2000/svg">
<mask id="mask0" mask-type="alpha" maskUnits="userSpaceOnUse" x="0" y="0" width="794" height="88">
<rect width="794" height="88" rx="8" fill="#F2F2F2"/>
</mask>
<g mask="url(#mask0)">
<rect width="794" height="88" rx="8" fill="#F5F5F5"/>
<path d="M-169.24 46.9333H-191.497C-195.916 46.9333 -199.497 50.5151 -199.497 54.9333V85.3778C-199.497 89.7961 -195.916 93.3778 -191.498 93.3778H843.854C848.273 93.3778 851.854 89.7961 851.854 85.3778V62.5439C851.854 58.1128 848.253 54.5258 843.822 54.5439L829.962 54.6005C825.531 54.6186 821.93 51.0316 821.93 46.6006V23.6444C821.93 19.2262 818.348 15.6444 813.93 15.6444H794.519C790.101 15.6444 786.519 19.2262 786.519 23.6444V41.3778C786.519 45.7961 782.937 49.3778 778.519 49.3778H755.049C753.699 49.3778 752.604 50.4722 752.604 51.8222C752.604 53.1723 751.51 54.2667 750.16 54.2667H723.579C720.879 54.2667 718.69 56.4555 718.69 59.1556C718.69 61.8556 716.501 64.0444 713.801 64.0444H687.953C686.198 64.0444 684.775 62.6217 684.775 60.8667C684.775 59.1116 683.352 57.6889 681.597 57.6889H655.994C653.159 57.6889 650.861 55.3906 650.861 52.5556C650.861 49.7205 648.562 47.4222 645.727 47.4222H623.79C620.01 47.4222 616.946 50.4866 616.946 54.2667C616.946 58.0468 613.882 61.1111 610.102 61.1111H591.031C586.613 61.1111 583.031 64.6928 583.031 69.1111V73.1556C583.031 77.5738 579.45 81.1556 575.031 81.1556H555.228C551.853 81.1556 549.117 78.4195 549.117 75.0444C549.117 71.6694 546.381 68.9333 543.006 68.9333H519.358C517.063 68.9333 515.202 70.7938 515.202 73.0889C515.202 75.3839 513.342 77.2445 511.047 77.2445H489.288C484.869 77.2445 481.288 73.6627 481.288 69.2444V50.5333C481.288 46.1151 477.706 42.5333 473.288 42.5333H455.373C450.955 42.5333 447.373 46.1151 447.373 50.5333V66.3111C447.373 70.7294 443.791 74.3111 439.373 74.3111H418.103C415.538 74.3111 413.459 72.2317 413.459 69.6667C413.459 67.1016 411.379 65.0222 408.814 65.0222H387.544C383.126 65.0222 379.544 61.4405 379.544 57.0222V31.9556C379.544 27.5373 375.962 23.9556 371.544 23.9556H348.807C347.052 23.9556 345.629 25.3783 345.629 27.1333C345.629 28.8884 344.207 30.3111 342.452 30.3111H315.87C313.575 30.3111 311.715 28.4506 311.715 26.1556C311.715 23.8605 309.854 22 307.559 22H285.8C281.382 22 277.8 18.3516 277.8 13.9333C277.8 9.51506 274.219 5.86667 269.8 5.86667H252.384C247.966 5.86667 244.384 9.44839 244.384 13.8667V44.3111C244.384 48.7294 240.803 52.3111 236.384 52.3111H217.971C213.553 52.3111 209.971 48.7294 209.971 44.3111V38.3111C209.971 33.8928 206.389 30.3111 201.971 30.3111H179.234C177.479 30.3111 176.057 31.7339 176.057 33.4889C176.057 35.2439 174.634 36.6667 172.879 36.6667H149.475C145.425 36.6667 142.142 39.9499 142.142 44C142.142 48.0501 138.859 51.3333 134.809 51.3333H112.138C109.978 51.3333 108.227 53.0844 108.227 55.2444C108.227 57.4045 106.476 59.1556 104.316 59.1556H77.2462C75.6261 59.1556 74.3128 57.8423 74.3128 56.2222C74.3128 54.6022 72.9995 53.2889 71.3795 53.2889H43.576C41.821 53.2889 40.3982 51.8662 40.3982 50.1111C40.3982 48.3561 38.9755 46.9333 37.2205 46.9333H14.4837C10.0654 46.9333 6.48367 43.3516 6.48367 38.9333V27.0667C6.48367 22.6484 2.90195 19.0667 -1.51634 19.0667H-19.4309C-23.8492 19.0667 -27.4309 22.6484 -27.4309 27.0667V56.5333C-27.4309 60.9516 -31.0126 64.5333 -35.4309 64.5333H-58.6566C-60.1416 64.5333 -61.3455 63.3295 -61.3455 61.8444C-61.3455 60.3594 -62.5493 59.1556 -64.0344 59.1556H-92.3267C-93.9468 59.1556 -95.2601 60.4689 -95.2601 62.0889C-95.2601 63.7089 -96.5734 65.0222 -98.1934 65.0222H-121.175C-125.593 65.0222 -129.175 61.4405 -129.175 57.0222V46.6222C-129.175 42.2039 -132.756 38.6222 -137.175 38.6222H-160.929C-163.224 38.6222 -165.084 40.4827 -165.084 42.7778C-165.084 45.0728 -166.945 46.9333 -169.24 46.9333Z" fill="#D7EAE3"/>
<path d="M-167.245 46.9333H-191.497C-195.916 46.9333 -199.497 50.5151 -199.497 54.9333V85.3778C-199.497 89.7961 -195.916 93.3778 -191.498 93.3778H843.854C848.273 93.3778 851.854 89.7961 851.854 85.3778V62.5111C851.854 58.0928 848.273 54.5111 843.854 54.5111H829.93C825.511 54.5111 821.93 50.9294 821.93 46.5111V23.6444C821.93 19.2262 818.348 15.6444 813.93 15.6444H794.519C790.101 15.6444 786.519 19.2262 786.519 23.6444V41.3778C786.519 45.7961 782.937 49.3778 778.519 49.3778H755.049C753.699 49.3778 752.604 50.4722 752.604 51.8222C752.604 53.1723 751.51 54.2667 750.16 54.2667H723.579C720.879 54.2667 718.69 56.4555 718.69 59.1556C718.69 61.8556 716.501 64.0444 713.801 64.0444H687.953C686.198 64.0444 684.775 62.6217 684.775 60.8667C684.775 59.1116 683.352 57.6889 681.597 57.6889H655.994C653.159 57.6889 650.861 55.3906 650.861 52.5556C650.861 49.7205 648.562 47.4222 645.727 47.4222H623.79C620.01 47.4222 616.946 50.4866 616.946 54.2667C616.946 58.0468 613.882 61.1111 610.102 61.1111H591.031C586.613 61.1111 583.031 64.6928 583.031 69.1111V73.1556C583.031 77.5738 579.45 81.1556 575.031 81.1556H555.228C551.853 81.1556 549.117 78.4195 549.117 75.0444C549.117 71.6694 546.381 68.9333 543.006 68.9333H519.358C517.063 68.9333 515.202 70.7938 515.202 73.0889C515.202 75.3839 513.342 77.2445 511.047 77.2445H489.288C484.869 77.2445 481.288 73.6627 481.288 69.2444V50.5333C481.288 46.1151 477.706 42.5333 473.288 42.5333H455.373C450.955 42.5333 447.373 46.1151 447.373 50.5333V66.3111C447.373 70.7294 443.791 74.3111 439.373 74.3111H418.103C415.538 74.3111 413.459 72.2317 413.459 69.6667C413.459 67.1016 411.379 65.0222 408.814 65.0222H387.544C383.126 65.0222 379.544 61.4405 379.544 57.0222V31.9556C379.544 27.5373 375.962 23.9556 371.544 23.9556H348.807C347.052 23.9556 345.629 25.3783 345.629 27.1333C345.629 28.8884 344.207 30.3111 342.452 30.3111H315.87C313.575 30.3111 311.715 28.4506 311.715 26.1556C311.715 23.8605 309.854 22 307.559 22H285.8C281.382 22 277.8 18.3516 277.8 13.9333C277.8 9.51506 274.219 5.86667 269.8 5.86667H252.384C247.966 5.86667 244.384 9.44839 244.384 13.8667V44.3111C244.384 48.7294 240.803 52.3111 236.384 52.3111H217.971C213.553 52.3111 209.971 48.7294 209.971 44.3111V38.3111C209.971 33.8928 206.389 30.3111 201.971 30.3111H179.234C177.479 30.3111 176.057 31.7339 176.057 33.4889C176.057 35.2439 174.634 36.6667 172.879 36.6667H149.475C145.425 36.6667 142.142 39.9499 142.142 44C142.142 48.0501 138.859 51.3333 134.809 51.3333H112.138C109.978 51.3333 108.227 53.0844 108.227 55.2444C108.227 57.4045 106.476 59.1556 104.316 59.1556H77.2462C75.6261 59.1556 74.3128 57.8423 74.3128 56.2222C74.3128 54.6022 72.9995 53.2889 71.3795 53.2889H43.576C41.821 53.2889 40.3982 51.8662 40.3982 50.1111C40.3982 48.3561 38.9755 46.9333 37.2205 46.9333H14.4837C10.0654 46.9333 6.48367 43.3516 6.48367 38.9333V27.0667C6.48367 22.6484 2.90195 19.0667 -1.51634 19.0667H-19.4309C-23.8492 19.0667 -27.4309 22.6484 -27.4309 27.0667V57.5111C-27.4309 61.9294 -31.0126 65.5111 -35.4309 65.5111H-58.1677C-59.9227 65.5111 -61.3455 64.0884 -61.3455 62.3333C-61.3455 60.5783 -62.7682 59.1556 -64.5233 59.1556H-92.3267C-93.9468 59.1556 -95.2601 60.4689 -95.2601 62.0889C-95.2601 63.7089 -96.5734 65.0222 -98.1934 65.0222H-121.175C-125.593 65.0222 -129.175 61.4405 -129.175 57.0222V46.6222C-129.175 42.2039 -132.756 38.6222 -137.175 38.6222H-158.934C-161.229 38.6222 -163.089 40.4827 -163.089 42.7778C-163.089 45.0728 -164.95 46.9333 -167.245 46.9333Z" stroke="#167951"/>
<rect opacity="0.5" x="209.472" y="-0.977783" width="584.528" height="88.9778" fill="#FBFBFB"/>
<path opacity="0.7" d="M218.432 35.5387C217.784 35.5387 217.204 35.3667 216.692 35.0227C216.188 34.6787 215.792 34.1867 215.504 33.5467C215.224 32.8987 215.084 32.1387 215.084 31.2667C215.084 30.3947 215.224 29.6387 215.504 28.9987C215.792 28.3507 216.188 27.8547 216.692 27.5107C217.204 27.1667 217.784 26.9947 218.432 26.9947C219.08 26.9947 219.656 27.1667 220.16 27.5107C220.672 27.8547 221.072 28.3507 221.36 28.9987C221.648 29.6387 221.792 30.3947 221.792 31.2667C221.792 32.1387 221.648 32.8987 221.36 33.5467C221.072 34.1867 220.672 34.6787 220.16 35.0227C219.656 35.3667 219.08 35.5387 218.432 35.5387ZM218.432 34.7467C218.92 34.7467 219.348 34.6107 219.716 34.3387C220.092 34.0667 220.384 33.6707 220.592 33.1507C220.8 32.6307 220.904 32.0027 220.904 31.2667C220.904 30.5307 220.8 29.9027 220.592 29.3827C220.384 28.8627 220.092 28.4667 219.716 28.1947C219.348 27.9227 218.92 27.7867 218.432 27.7867C217.944 27.7867 217.512 27.9227 217.136 28.1947C216.768 28.4667 216.48 28.8627 216.272 29.3827C216.064 29.9027 215.96 30.5307 215.96 31.2667C215.96 32.0027 216.064 32.6307 216.272 33.1507C216.48 33.6707 216.768 34.0667 217.136 34.3387C217.512 34.6107 217.944 34.7467 218.432 34.7467ZM223.428 35.5267C223.252 35.5267 223.1 35.4627 222.972 35.3347C222.852 35.2067 222.792 35.0507 222.792 34.8667C222.792 34.6827 222.852 34.5307 222.972 34.4107C223.1 34.2827 223.252 34.2187 223.428 34.2187C223.604 34.2187 223.756 34.2827 223.884 34.4107C224.012 34.5307 224.076 34.6827 224.076 34.8667C224.076 35.0507 224.012 35.2067 223.884 35.3347C223.756 35.4627 223.604 35.5267 223.428 35.5267ZM230.991 27.0667V27.6787L227.475 35.4667H226.539L229.995 27.8347H225.675V29.4067H224.823V27.0667H230.991ZM241.525 27.0667V35.4667H240.673V28.7467L237.373 34.3987H236.953L233.653 28.7827V35.4667H232.801V27.0667H233.533L237.181 33.2947L240.793 27.0667H241.525Z" fill="#2E2E2E"/>
<ellipse cx="209.971" cy="37.6444" rx="2.49372" ry="2.44444" fill="#808080"/>
<path opacity="0.7" d="M217.412 73.0222V81.4222H216.548V73.7902H214.568V73.0222H217.412ZM222.648 81.4942C222 81.4942 221.42 81.3222 220.908 80.9782C220.404 80.6342 220.008 80.1422 219.72 79.5022C219.44 78.8542 219.3 78.0942 219.3 77.2222C219.3 76.3502 219.44 75.5942 219.72 74.9542C220.008 74.3062 220.404 73.8102 220.908 73.4662C221.42 73.1222 222 72.9502 222.648 72.9502C223.296 72.9502 223.872 73.1222 224.376 73.4662C224.888 73.8102 225.288 74.3062 225.576 74.9542C225.864 75.5942 226.008 76.3502 226.008 77.2222C226.008 78.0942 225.864 78.8542 225.576 79.5022C225.288 80.1422 224.888 80.6342 224.376 80.9782C223.872 81.3222 223.296 81.4942 222.648 81.4942ZM222.648 80.7022C223.136 80.7022 223.564 80.5662 223.932 80.2942C224.308 80.0222 224.6 79.6262 224.808 79.1062C225.016 78.5862 225.12 77.9582 225.12 77.2222C225.12 76.4862 225.016 75.8582 224.808 75.3382C224.6 74.8182 224.308 74.4222 223.932 74.1502C223.564 73.8782 223.136 73.7422 222.648 73.7422C222.16 73.7422 221.728 73.8782 221.352 74.1502C220.984 74.4222 220.696 74.8182 220.488 75.3382C220.28 75.8582 220.176 76.4862 220.176 77.2222C220.176 77.9582 220.28 78.5862 220.488 79.1062C220.696 79.6262 220.984 80.0222 221.352 80.2942C221.728 80.5662 222.16 80.7022 222.648 80.7022ZM230.734 75.1102H231.586V80.1262L235.798 75.1102H236.554V81.4222H235.702V76.4062L231.502 81.4222H230.734V75.1102ZM244.299 75.0622C244.891 75.0622 245.423 75.1982 245.895 75.4702C246.375 75.7422 246.751 76.1222 247.023 76.6102C247.295 77.0982 247.431 77.6502 247.431 78.2662C247.431 78.8822 247.295 79.4342 247.023 79.9222C246.751 80.4102 246.375 80.7942 245.895 81.0742C245.423 81.3462 244.891 81.4822 244.299 81.4822C243.739 81.4822 243.231 81.3622 242.775 81.1222C242.319 80.8742 241.947 80.5342 241.659 80.1022C241.379 79.6702 241.215 79.1742 241.167 78.6142H239.727V81.4222H238.875V75.1102H239.727V77.8342H241.179C241.243 77.2902 241.415 76.8102 241.695 76.3942C241.983 75.9702 242.351 75.6422 242.799 75.4102C243.247 75.1782 243.747 75.0622 244.299 75.0622ZM244.299 80.7382C244.731 80.7382 245.119 80.6342 245.463 80.4262C245.815 80.2182 246.091 79.9262 246.291 79.5502C246.491 79.1742 246.591 78.7462 246.591 78.2662C246.591 77.7862 246.491 77.3582 246.291 76.9822C246.091 76.6062 245.815 76.3182 245.463 76.1182C245.119 75.9102 244.731 75.8062 244.299 75.8062C243.867 75.8062 243.475 75.9102 243.123 76.1182C242.779 76.3182 242.507 76.6062 242.307 76.9822C242.107 77.3582 242.007 77.7862 242.007 78.2662C242.007 78.7462 242.107 79.1742 242.307 79.5502C242.507 79.9262 242.779 80.2182 243.123 80.4262C243.475 80.6342 243.867 80.7382 244.299 80.7382ZM254.263 75.1102V81.4222H253.411V75.8662H250.387L250.303 77.4262C250.239 78.7382 250.087 79.7462 249.847 80.4502C249.607 81.1542 249.179 81.5062 248.563 81.5062C248.395 81.5062 248.191 81.4742 247.951 81.4102L248.011 80.6782C248.155 80.7102 248.255 80.7262 248.311 80.7262C248.639 80.7262 248.887 80.5742 249.055 80.2702C249.223 79.9662 249.335 79.5902 249.391 79.1422C249.447 78.6942 249.495 78.1022 249.535 77.3662L249.643 75.1102H254.263ZM261.413 75.1102V81.4222H260.633V79.3342H258.653H258.413L256.949 81.4222H256.025L257.597 79.2142C257.109 79.0782 256.733 78.8462 256.469 78.5182C256.205 78.1902 256.073 77.7742 256.073 77.2702C256.073 76.5662 256.313 76.0302 256.793 75.6622C257.273 75.2942 257.929 75.1102 258.761 75.1102H261.413ZM256.937 77.2942C256.937 78.2302 257.533 78.6982 258.725 78.6982H260.633V75.8662H258.785C257.553 75.8662 256.937 76.3422 256.937 77.2942Z" fill="#2E2E2E"/>
<rect x="209.472" y="-0.977783" width="0.997487" height="88.9778" rx="0.498744" fill="#808080"/>
</g>
</svg>
