<svg width="48" height="48" viewBox="0 0 48 48" fill="currentColor" xmlns="http://www.w3.org/2000/svg">
<path d="M23.8888 29.9955C31.375 29.9955 37.7672 31.1824 37.7672 35.9317C37.7672 40.679 31.416 41.9091 23.8888 41.9091C16.4026 41.9091 10.0104 40.7223 10.0104 35.9749C10.0104 31.2256 16.3615 29.9955 23.8888 29.9955ZM35.8583 27.1357C38.7204 27.0827 41.7973 27.4757 42.9343 27.7547C45.3431 28.2283 46.9275 29.195 47.5839 30.6C48.1387 31.7534 48.1387 33.0915 47.5839 34.243C46.5797 36.4221 43.3426 37.1217 42.0845 37.3024C41.8247 37.3417 41.6156 37.1158 41.643 36.8544C42.2857 30.8161 37.1731 27.9532 35.8505 27.2949C35.7939 27.2654 35.7821 27.2202 35.788 27.1927C35.7919 27.1731 35.8154 27.1416 35.8583 27.1357ZM11.6042 27.1317L12.1431 27.1365C12.1861 27.1424 12.2076 27.1739 12.2115 27.1915C12.2174 27.221 12.2056 27.2642 12.1509 27.2957C10.8264 27.9539 5.71381 30.8169 6.35655 36.8532C6.3839 37.1166 6.17681 37.3406 5.91698 37.3032C4.65886 37.1224 1.42174 36.4229 0.417583 34.2438C-0.139194 33.0903 -0.139194 31.7542 0.417583 30.6007C1.07399 29.1958 2.65642 28.229 5.06521 27.7535C6.20416 27.4765 9.27914 27.0835 12.1431 27.1365L11.6042 27.1317ZM23.8888 7C28.9857 7 33.0727 11.1068 33.0727 16.2353C33.0727 21.3619 28.9857 25.4726 23.8888 25.4726C18.7918 25.4726 14.7049 21.3619 14.7049 16.2353C14.7049 11.1068 18.7918 7 23.8888 7ZM36.3565 8.54014C41.2796 8.54014 45.1458 13.1991 43.8291 18.3885C42.9402 21.8822 39.7226 24.2028 36.1377 24.1085C35.7782 24.0987 35.4246 24.0653 35.0828 24.0063C34.8347 23.9631 34.7096 23.6821 34.8503 23.4738C36.2178 21.4499 36.9973 19.0153 36.9973 16.4019C36.9973 13.6746 36.1455 11.1319 34.6666 9.0471C34.6198 8.98225 34.5846 8.88204 34.6315 8.80737C34.6705 8.74646 34.7428 8.71502 34.8112 8.6993C35.3094 8.59712 35.8212 8.54014 36.3565 8.54014ZM11.642 8.53994C12.1773 8.53994 12.6892 8.59692 13.1893 8.6991C13.2557 8.71482 13.3299 8.74823 13.369 8.80717C13.4139 8.88184 13.3807 8.98206 13.3338 9.0469C11.855 11.1317 11.0032 13.6744 11.0032 16.4017C11.0032 19.0151 11.7827 21.4497 13.1502 23.4736C13.2909 23.6819 13.1658 23.9629 12.9177 24.0061C12.5739 24.0671 12.2222 24.0985 11.8628 24.1083C8.27792 24.2026 5.06033 21.882 4.17144 18.3883C2.85275 13.1989 6.71894 8.53994 11.642 8.53994Z"/>
</svg>
