<svg width="48" height="48" viewBox="0 0 48 48" fill="currentColor" xmlns="http://www.w3.org/2000/svg">
<path fill-rule="evenodd" clip-rule="evenodd" d="M20.5165 6.72546C20.5168 6.36594 20.4047 6.01531 20.1959 5.72264C19.9871 5.42997 19.692 5.20992 19.3519 5.09326C19.0118 4.97661 18.6438 4.9692 18.2993 5.07208C17.9548 5.17495 17.6511 5.38295 17.4307 5.66697L5.36322 21.1823C5.12781 21.4849 5 21.8574 5 22.2408C5 22.6242 5.12781 22.9966 5.36322 23.2992L17.4307 38.8145C17.6511 39.0986 17.9548 39.3066 18.2993 39.4094C18.6438 39.5123 19.0118 39.5049 19.3519 39.3883C19.692 39.2716 19.9871 39.0515 20.1959 38.7589C20.4047 38.4662 20.5168 38.1156 20.5165 37.7561V30.8776C29.7895 31.0707 34.2441 32.8308 36.4817 34.7444C38.6091 36.5631 38.9987 38.7025 39.4038 40.9436L39.5089 41.5211C39.5863 41.9343 39.812 42.3051 40.1436 42.5635C40.4752 42.822 40.8898 42.9504 41.3094 42.9245C41.729 42.8987 42.1247 42.7204 42.4221 42.4232C42.7195 42.126 42.898 41.7304 42.924 41.3108C43.2188 36.5734 42.7758 29.7088 39.4296 23.9664C36.1818 18.393 30.3325 14.1073 20.5165 13.6591V6.72546Z"/>
</svg>
