<svg width="37" height="39" viewBox="0 0 37 39" fill="currentColor" xmlns="http://www.w3.org/2000/svg">
<path fill-rule="evenodd" clip-rule="evenodd" d="M18.3773 38.0801C20.0036 38.0801 21.3236 36.7601 21.3236 35.1337V10.164L31.0151 19.8952C32.1661 21.0541 34.0282 21.0463 35.1793 19.9031C36.3303 18.756 36.3382 16.89 35.1871 15.735L20.4633 0.94827C20.367 0.853962 20.2674 0.766863 20.1623 0.686669L20.4633 0.94827C20.3086 0.791412 20.1378 0.654123 19.9548 0.537799C19.9102 0.513591 19.8666 0.487499 19.8224 0.462525C19.7385 0.411099 19.6494 0.366601 19.5583 0.326745C19.5326 0.319317 19.509 0.309362 19.4853 0.299711C19.3941 0.258921 19.2987 0.22578 19.2018 0.197582C19.1417 0.183623 19.082 0.168257 19.0215 0.154752C18.9478 0.134738 18.8736 0.12111 18.7988 0.110326C18.7387 0.10531 18.6758 0.098286 18.6125 0.0932725C18.5333 0.0831807 18.4554 0.0800774 18.3773 0.0800774L18.1455 0.0993268L17.9776 0.110918C17.9696 0.112005 17.9616 0.113125 17.9537 0.114275L18.3773 0.0800774C18.1592 0.0800774 17.9433 0.10423 17.7333 0.151163C17.6725 0.168262 17.6128 0.183627 17.5538 0.200789C17.4558 0.225785 17.3604 0.258925 17.2671 0.296871C17.2455 0.309366 17.2219 0.319321 17.1984 0.32957C17.1051 0.366606 17.016 0.411103 16.9292 0.460112C16.8879 0.487504 16.8443 0.513585 16.8015 0.540744C16.7279 0.583464 16.6579 0.63237 16.59 0.684421C16.4759 0.775345 16.3665 0.872475 16.2648 0.977125L1.56737 15.735C0.41633 16.89 0.424186 18.756 1.57523 19.9031C2.73019 21.0463 4.59228 21.0541 5.73939 19.8952L15.4309 10.164V35.1337C15.4309 36.7601 16.7509 38.0801 18.3773 38.0801Z"/>
</svg>
