<svg width="48" height="48" viewBox="0 0 48 48" fill="currentColor" xmlns="http://www.w3.org/2000/svg">
<path d="M39.2877 0H8.71258C7.50763 0 6.53076 0.976873 6.53076 2.18182V15.2727V45.8182C6.53076 47.0231 7.50763 48 8.71258 48H39.2877C40.4927 48 41.4695 47.0231 41.4695 45.8182V15.2727V2.18182C41.4695 0.976873 40.4927 0 39.2877 0ZM21.0762 33.4545V27.6362H26.8945V33.4545H21.0762ZM26.8945 37.8182V43.6364H21.0762V37.8182H26.8945ZM26.8945 17.4545V23.2726H21.0762V17.4545H26.8945ZM37.1059 17.4545V23.2726H31.2582V17.4545H37.1059ZM16.7126 23.2726H10.8944V17.4545H16.7124V23.2726H16.7126ZM10.8944 27.6362H16.7124V33.4545H10.8944V27.6362ZM31.2582 27.6362H37.1059V33.4545H31.2582V27.6362ZM37.1059 4.36364V13.0909H10.8944V4.36364H37.1059ZM10.8944 37.8182H16.7124V43.6364H10.8944V37.8182ZM31.2582 43.6364V37.8182H37.1059V43.6364H31.2582Z"/>
</svg>
