<svg width="48" height="48" viewBox="0 0 48 48" fill="currentColor" xmlns="http://www.w3.org/2000/svg">
<path d="M15.84 26.9394C18.66 26.9394 20.92 29.2214 20.92 32.0614V38.8794C20.92 41.6994 18.66 43.9994 15.84 43.9994H9.08C6.28 43.9994 4 41.6994 4 38.8794V32.0614C4 29.2214 6.28 26.9394 9.08 26.9394H15.84ZM38.9202 26.9394C41.7202 26.9394 44.0002 29.2214 44.0002 32.0614V38.8794C44.0002 41.6994 41.7202 43.9994 38.9202 43.9994H32.1602C29.3402 43.9994 27.0802 41.6994 27.0802 38.8794V32.0614C27.0802 29.2214 29.3402 26.9394 32.1602 26.9394H38.9202ZM15.84 4C18.66 4 20.92 6.3 20.92 9.122V15.94C20.92 18.78 18.66 21.06 15.84 21.06H9.08C6.28 21.06 4 18.78 4 15.94V9.122C4 6.3 6.28 4 9.08 4H15.84ZM38.9202 4C41.7202 4 44.0002 6.3 44.0002 9.122V15.94C44.0002 18.78 41.7202 21.06 38.9202 21.06H32.1602C29.3402 21.06 27.0802 18.78 27.0802 15.94V9.122C27.0802 6.3 29.3402 4 32.1602 4H38.9202Z"/>
</svg>
