<svg width="41" height="41" viewBox="0 0 41 41" fill="currentColor" xmlns="http://www.w3.org/2000/svg">
<path d="M20.2656 0.00341797C31.6256 0.00341797 40.2256 9.31739 40.2256 19.9734C40.2256 32.3319 30.1456 40.0034 20.2256 40.0034C16.9456 40.0034 13.3056 39.1221 10.3856 37.3995C9.36559 36.7786 8.50559 36.3179 7.40559 36.6784L3.36559 37.8802C2.34559 38.2007 1.42559 37.3995 1.72559 36.3179L3.06559 31.8312C3.28559 31.2102 3.24559 30.5492 2.92559 30.0285C1.20559 26.8637 0.225586 23.3985 0.225586 20.0335C0.225586 9.49766 8.64559 0.00341797 20.2656 0.00341797ZM29.4056 17.4896C27.9856 17.4896 26.8456 18.6314 26.8456 20.0535C26.8456 21.4556 27.9856 22.6173 29.4056 22.6173C30.8256 22.6173 31.9656 21.4556 31.9656 20.0535C31.9656 18.6314 30.8256 17.4896 29.4056 17.4896ZM20.1856 17.4896C18.7856 17.4696 17.6256 18.6314 17.6256 20.0335C17.6256 21.4556 18.7656 22.5973 20.1856 22.6173C21.6056 22.6173 22.7456 21.4556 22.7456 20.0535C22.7456 18.6314 21.6056 17.4896 20.1856 17.4896ZM10.9656 17.4896C9.54559 17.4896 8.40559 18.6314 8.40559 20.0535C8.40559 21.4556 9.56559 22.6173 10.9656 22.6173C12.3856 22.5973 13.5256 21.4556 13.5256 20.0535C13.5256 18.6314 12.3856 17.4896 10.9656 17.4896Z"/>
</svg>
