<svg width="48" height="48" viewBox="0 0 48 48" fill="currentColor" xmlns="http://www.w3.org/2000/svg">
<path fill-rule="evenodd" clip-rule="evenodd" d="M14.505 9.11699L23.9975 18.609L33.4849 9.12766C34.9742 7.63834 37.3835 7.63834 38.8728 9.12766C40.3622 10.617 40.3622 13.0263 38.8728 14.5156L29.3854 23.9969L38.883 33.5001C40.3723 34.9894 40.3723 37.3988 38.883 38.8881C38.1409 39.6353 37.1599 40.0064 36.189 40.0064C35.2131 40.0064 34.2372 39.6353 33.495 38.8881L23.9975 29.3849L14.5151 38.8734C13.773 39.6206 12.7971 39.9916 11.8211 39.9916C10.8452 39.9916 9.86927 39.6206 9.12716 38.8734C7.63784 37.384 7.63784 34.9747 9.12716 33.4854L18.6095 23.9969L9.11699 14.505C7.62767 13.0156 7.62767 10.6063 9.11699 9.11699C10.6114 7.62767 13.0207 7.62767 14.505 9.11699Z"/>
</svg>
