<svg width="75" height="75" viewBox="0 0 75 75" fill="currentColor" xmlns="http://www.w3.org/2000/svg">
<path fill-rule="evenodd" clip-rule="evenodd" d="M37.285 0H67.315C69.3002 0 71.204 0.788596 72.6077 2.19231C74.0115 3.59602 74.8 5.49985 74.8 7.485V67.515C74.7991 69.5005 74.0096 71.4043 72.6053 72.8079C71.201 74.2115 69.2968 75 67.3113 75H37.285C33.1525 75 29.8 71.6475 29.8 67.5113V51.5594L37.3 48.3468V60H67.3V7.5H37.3V29.5618C37.0156 29.2512 36.6636 29.0069 36.2483 28.8404C35.6023 28.5814 34.8844 28.5522 34.3274 28.5453C34.0851 28.5423 33.7752 28.5454 33.4382 28.5497L33.418 28.4993L33.5133 28.405C33.8746 28.0463 34.3 27.6053 34.6468 27.1214C34.981 26.6553 35.382 25.961 35.4473 25.0958C35.5214 24.1149 35.1444 23.2504 34.5086 22.5874C33.9339 21.9881 33.3961 21.4112 32.9217 20.9022C32.4454 20.3913 32.0325 19.9484 31.7107 19.6205C31.3617 19.265 31.0111 18.929 30.6617 18.6588C30.4224 18.4737 30.1349 18.2805 29.8 18.1343V7.485C29.8 5.49985 30.5886 3.59602 31.9924 2.19231C33.3961 0.788596 35.2999 0 37.285 0ZM47.6125 67.5C47.6125 69.5738 49.7125 71.25 52.3 71.25C54.8876 71.25 56.9875 69.5738 56.9875 67.5C56.9875 65.4262 54.8876 63.75 52.3 63.75C49.7125 63.75 47.6125 65.4262 47.6125 67.5Z"/>
<path d="M5.61893 28.1399C5.20273 28.965 4.8555 29.8332 4.59038 30.7405C2.58604 30.7405 0.0386662 30.2541 0.0386662 32.3084C0.0386662 40.2413 -0.730054 39.5542 4.58765 39.5542C4.85567 40.4616 5.20273 41.3314 5.61893 42.1561C2.4563 45.4803 2.04249 45.1723 4.73361 48C6.41701 46.085 7.99696 45.7449 12.9464 43.5765C10.3379 41.7688 8.60948 38.6706 8.60948 35.1486C8.60948 29.5808 12.9174 25.0514 18.2116 25.0514C24.179 25.0514 28.8267 30.7809 27.6255 37.1444L36.3872 33.3033C36.3872 30.325 35.6263 30.7404 31.8351 30.7404C31.5702 29.833 31.2202 28.9634 30.804 28.1383C32.2198 26.6485 34.3538 25.093 32.9726 23.6408C27.6068 17.9978 28.6408 17.9516 24.8762 21.9083C24.0914 21.4707 23.2669 21.1042 22.4002 20.8269C22.4002 18.7238 22.8614 16.041 20.9128 16.041C13.3678 16.041 14.0226 15.2298 14.0226 20.8269C13.1585 21.1042 12.3314 21.4707 11.5466 21.9083C10.1309 20.4186 8.65438 18.1789 7.27041 19.6283C1.93938 25.2312 1.84925 24.1789 5.61893 28.1399Z"/>
<path d="M18.2115 27.9051C14.4126 27.9051 11.3241 31.1537 11.3241 35.1481C11.3241 38.4566 13.4554 41.2244 16.3425 42.0874L24.211 38.6394C26.8328 33.6709 23.3175 27.9051 18.2115 27.9051Z"/>
<path d="M40.2639 33.5091L8.48076 47.8799C2.35214 50.651 6.42255 60.1663 12.6744 57.3452L44.4603 42.9757C52.9118 45.725 53.2658 46.0871 59.4767 41.8754C62.8882 39.5606 61.9489 34.0153 59.8438 34.9597L54.2763 37.4751C53.3038 37.9156 52.1548 37.4761 51.7154 36.4836C48.6849 29.6451 48.2863 30.9409 56.4333 27.2583C58.4754 26.3356 55.1061 21.8798 51.0836 22.9289L48.3069 23.6455C43.3648 24.9221 42.3427 28.7784 40.2639 33.5091Z"/>
</svg>
