<svg width="20" height="20" viewBox="0 0 20 20" fill="currentColor" xmlns="http://www.w3.org/2000/svg">
<path d="M18.5189 0H7.46357C6.67565 0 6.0347 0.641 6.0347 1.42887V4.78252C6.33839 4.78252 12.2986 4.78252 12.5366 4.78252C14.0437 4.78252 15.2698 6.00865 15.2698 7.51578C15.2698 7.79791 15.2698 13.8415 15.2698 13.9131H18.5189C19.3067 13.9131 19.9477 13.2721 19.9477 12.4842V1.42887C19.9477 0.641 19.3067 0 18.5189 0Z"/>
<path d="M12.5365 6.08691H1.48122C0.693351 6.08691 0.0523071 6.72791 0.0523071 7.51583V18.5711C0.0523506 19.359 0.693307 20 1.48122 20H12.5365C13.3244 20 13.9654 19.359 13.9654 18.5712V7.51583C13.9655 6.72791 13.3244 6.08691 12.5365 6.08691Z"/>
</svg>
