<svg width="48" height="48" viewBox="0 0 48 48" fill="currentColor" xmlns="http://www.w3.org/2000/svg">
<path d="M37.8781 17.3943C38.2769 17.3943 38.6387 17.5683 38.9246 17.8623C39.1911 18.1763 39.3253 18.5663 39.2864 18.9783C39.2864 19.1142 38.2205 32.5941 37.6116 38.2681C37.2304 41.75 34.9858 43.864 31.6188 43.922C29.0298 43.98 26.4993 44 24.0076 44C21.3622 44 18.7753 43.98 16.2641 43.922C13.01 43.844 10.7634 41.692 10.4016 38.2681C9.77525 32.5741 8.72879 19.1142 8.70934 18.9783C8.68989 18.5663 8.82215 18.1763 9.09058 17.8623C9.35511 17.5683 9.73635 17.3943 10.137 17.3943H37.8781ZM28.1295 4C29.8976 4 31.477 5.23399 31.9341 6.99397L32.2609 8.45396C32.5254 9.64394 33.5563 10.4859 34.7428 10.4859H40.5742C41.3523 10.4859 42 11.1319 42 11.9539V12.7139C42 13.5159 41.3523 14.1819 40.5742 14.1819H7.42771C6.64772 14.1819 6 13.5159 6 12.7139V11.9539C6 11.1319 6.64772 10.4859 7.42771 10.4859H13.2591C14.4437 10.4859 15.4746 9.64394 15.7411 8.45596L16.0465 7.09197C16.5211 5.23399 18.083 4 19.8705 4H28.1295Z"/>
</svg>
