<svg width="48" height="48" viewBox="0 0 48 48" fill="currentColor" xmlns="http://www.w3.org/2000/svg">
<path d="M25.332 34.1108V42.0223C27.3512 41.2358 29.3499 38.7635 30.6969 35.055C28.978 34.5405 27.1526 34.2176 25.332 34.1108Z"/>
<path d="M17.3027 35.0488C18.6497 38.7608 20.5619 41.2354 22.5823 42.0223V34.1099C20.758 34.2158 19.0199 34.5362 17.3027 35.0488Z"/>
<path d="M25.332 25.332V31.3603C27.4247 31.4699 29.5162 31.8357 31.4896 32.4268C32.008 30.3342 32.3435 27.9258 32.4327 25.332H25.332V25.332Z"/>
<path d="M31.7011 16.4468C29.6685 17.0704 27.5063 17.4471 25.332 17.5583V22.586H32.4327C32.356 20.3505 32.1037 18.3156 31.7011 16.4468Z"/>
<path d="M12.8142 25.332H3C3.28729 29.7693 4.95415 33.8763 7.57696 37.1466C9.50846 35.5768 11.6407 34.2977 13.9162 33.3448C13.2924 30.9267 12.9081 28.1945 12.8142 25.332Z"/>
<path d="M7.14464 11.4048C4.76924 14.5758 3.27129 18.3954 3 22.5861H12.8142C12.8977 20.0405 13.2116 17.6735 13.7187 15.4706C11.3484 14.4533 9.13143 13.0858 7.14464 11.4048Z"/>
<path d="M15.5693 25.332C15.6583 27.9229 15.9934 30.3288 16.5108 32.4197C18.4818 31.831 20.4861 31.4699 22.5825 31.361V25.332H15.5693V25.332Z"/>
<path d="M33.2682 35.9932C31.5055 40.8414 28.6817 44.168 25.3735 44.8954V45.0014C30.4775 44.671 35.0889 42.5144 38.564 39.1788C36.9407 37.8809 35.1603 36.812 33.2682 35.9932Z"/>
<path d="M25.3735 3V3.10599C28.8629 3.87326 31.8132 7.53307 33.5478 12.8189C35.5297 11.9303 37.3891 10.7634 39.0759 9.32955C35.5484 5.70583 30.732 3.34684 25.3735 3Z"/>
<path d="M8.93262 9.32225C10.6114 10.7406 12.4706 11.9148 14.4583 12.8054C16.1936 7.527 19.1417 3.87268 22.6281 3.10599V3C17.2732 3.34668 12.4595 5.70263 8.93262 9.32225Z"/>
<path d="M25.332 5.97949V14.8057C27.2612 14.6953 29.185 14.3562 30.9877 13.7946C29.6423 9.61436 27.5017 6.82461 25.332 5.97949Z"/>
<path d="M17.021 13.7718C18.8294 14.3396 20.6651 14.6914 22.5822 14.8049V5.97949C20.4162 6.82314 18.3667 9.60403 17.021 13.7718Z"/>
<path d="M14.7307 35.9873C12.8376 36.8063 11.0554 37.8734 9.43164 39.174C12.9074 42.5127 17.4753 44.6713 22.5821 45.002V44.896C19.2725 44.1681 16.4933 40.8391 14.7307 35.9873Z"/>
<path d="M22.5823 17.5576C20.4214 17.4434 18.3463 17.0535 16.3068 16.4229C15.9012 18.2982 15.6464 20.3407 15.5693 22.5862H22.5825V17.5576H22.5823Z"/>
<path d="M40.864 11.4136C38.8668 13.1141 36.6549 14.4857 34.29 15.5001C34.7932 17.6951 35.1045 20.052 35.1876 22.5863C41.2711 22.5863 38.5287 22.5863 45.0002 22.5863C44.7292 18.3997 43.2355 14.5827 40.864 11.4136Z"/>
<path d="M44.8771 25.332C44.8755 25.3321 44.5706 25.3322 35.1873 25.3322C35.0933 28.1988 34.7078 30.9345 34.0825 33.3552C36.3565 34.3084 38.4902 35.5841 40.4215 37.1507C43.046 33.8799 44.7124 29.771 44.9999 25.332C44.9013 25.332 44.8807 25.332 44.8771 25.332Z"/>
</svg>
