<svg width="24" height="24" viewBox="0 0 24 24" fill="currentColor" xmlns="http://www.w3.org/2000/svg">
<path d="M20 11.9998C19.9998 10.2167 19.4039 8.48476 18.3069 7.07901C17.2099 5.67327 15.6747 4.6743 13.9451 4.24076C12.2155 3.80721 10.3907 3.96393 8.7603 4.68603C7.12993 5.40813 5.78755 6.65421 4.9463 8.22641C4.10505 9.79861 3.81317 11.6068 4.11701 13.3638C4.42084 15.1209 5.30297 16.7261 6.62332 17.9245C7.94367 19.1229 9.62655 19.8458 11.4047 19.9785C13.1829 20.1112 14.9544 19.646 16.438 18.6568L17.548 20.3208C15.6936 21.5574 13.4792 22.139 11.2564 21.9733C9.03368 21.8076 6.93002 20.904 5.2795 19.406C3.62897 17.9081 2.52621 15.9016 2.14632 13.7053C1.76644 11.509 2.13121 9.24875 3.18271 7.28344C4.23421 5.31814 5.91216 3.76046 7.95011 2.85777C9.98806 1.95508 12.2692 1.75913 14.4312 2.30102C16.5933 2.84292 18.5123 4.0916 19.8836 5.84878C21.2548 7.60596 21.9998 9.7709 22 11.9998V13.4998C22.0014 14.2497 21.7619 14.9802 21.3168 15.5837C20.8717 16.1872 20.2446 16.6317 19.5278 16.8519C18.811 17.0721 18.0424 17.0563 17.3353 16.8067C16.6281 16.5572 16.0199 16.0871 15.6 15.4658C14.9322 16.1595 14.0784 16.6456 13.141 16.8658C12.2036 17.0859 11.2226 17.0307 10.3159 16.7068C9.4091 16.3829 8.61516 15.804 8.02941 15.0398C7.44367 14.2756 7.09105 13.3585 7.01392 12.3987C6.93679 11.4389 7.13842 10.4773 7.5946 9.62935C8.05079 8.7814 8.7421 8.08319 9.5855 7.61864C10.4289 7.15408 11.3885 6.94292 12.349 7.01054C13.3095 7.07816 14.23 7.42168 15 7.99982H17V13.4998C17 13.8976 17.1581 14.2792 17.4394 14.5605C17.7207 14.8418 18.1022 14.9998 18.5 14.9998C18.8978 14.9998 19.2794 14.8418 19.5607 14.5605C19.842 14.2792 20 13.8976 20 13.4998V11.9998ZM12 8.99982C11.4067 8.99982 10.8267 9.17577 10.3333 9.50541C9.83996 9.83506 9.45544 10.3036 9.22838 10.8518C9.00131 11.3999 8.9419 12.0031 9.05766 12.5851C9.17341 13.167 9.45914 13.7016 9.87869 14.1211C10.2983 14.5407 10.8328 14.8264 11.4147 14.9422C11.9967 15.0579 12.5999 14.9985 13.1481 14.7715C13.6962 14.5444 14.1648 14.1599 14.4944 13.6665C14.8241 13.1732 15 12.5932 15 11.9998C15 11.2042 14.6839 10.4411 14.1213 9.8785C13.5587 9.31589 12.7957 8.99982 12 8.99982Z"/>
</svg>
