<svg width="24" height="24" viewBox="0 0 24 24" fill="none" xmlns="http://www.w3.org/2000/svg">
<path d="M12.0005 0.480469C8.94518 0.480469 6.01502 1.69418 3.8546 3.8546C1.69418 6.01502 0.480469 8.94518 0.480469 12.0005C0.480548 13.5133 0.778599 15.0113 1.35761 16.4089C1.93661 17.8066 2.78524 19.0765 3.85502 20.1462C4.92481 21.2158 6.19481 22.0643 7.59251 22.6432C8.99021 23.2221 10.4882 23.5199 12.0011 23.5199C13.5139 23.5198 15.0119 23.2217 16.4095 22.6427C17.8072 22.0637 19.0771 21.2151 20.1468 20.1453C21.2164 19.0755 22.0649 17.8055 22.6438 16.4078C23.2227 15.0101 23.5205 13.5121 23.5205 11.9993C23.5205 5.63807 18.3617 0.480469 12.0005 0.480469ZM12.0005 21.1193C10.7941 21.1331 9.59695 20.9075 8.4784 20.4554C7.35985 20.0033 6.34211 19.3338 5.48414 18.4856C4.62616 17.6374 3.945 16.6274 3.48012 15.5141C3.01523 14.4008 2.77586 13.2063 2.77586 11.9999C2.77586 10.7934 3.01523 9.59894 3.48012 8.48565C3.945 7.37235 4.62616 6.36236 5.48414 5.51417C6.34211 4.66599 7.35985 3.99646 8.4784 3.54437C9.59695 3.09229 10.7941 2.86663 12.0005 2.88047C13.2068 2.86663 14.404 3.09229 15.5225 3.54437C16.6411 3.99646 17.6588 4.66599 18.5168 5.51417C19.3748 6.36236 20.0559 7.37235 20.5208 8.48565C20.9857 9.59894 21.2251 10.7934 21.2251 11.9999C21.2251 13.2063 20.9857 14.4008 20.5208 15.5141C20.0559 16.6274 19.3748 17.6374 18.5168 18.4856C17.6588 19.3338 16.6411 20.0033 15.5225 20.4554C14.404 20.9075 13.2068 21.1331 12.0005 21.1193V21.1193ZM9.00167 11.7005C9.99527 11.7005 10.8005 10.7609 10.8005 9.60047C10.8005 8.44007 9.99407 7.50047 9.00047 7.50047C8.00687 7.50047 7.20047 8.44007 7.20047 9.60047C7.20047 10.7609 8.00687 11.7005 9.00167 11.7005V11.7005ZM15.0005 11.7005C15.9953 11.7005 16.8005 10.7609 16.8005 9.60047C16.8005 8.44007 15.9941 7.50047 15.0005 7.50047C14.0069 7.50047 13.2005 8.44127 13.2005 9.60047C13.2005 10.7597 14.0069 11.7005 15.0005 11.7005ZM17.2097 13.6037C16.9979 13.4968 16.7527 13.4772 16.5265 13.549C16.3004 13.6207 16.1115 13.7782 16.0001 13.9877C15.9593 14.0669 14.9573 15.8993 12.0017 15.8993C9.06047 15.8993 8.05247 14.0837 8.00207 13.9889C7.89418 13.7758 7.70606 13.6143 7.47911 13.5399C7.25215 13.4656 7.00494 13.4844 6.79187 13.5923C6.57879 13.7002 6.41731 13.8883 6.34293 14.1152C6.26855 14.3422 6.28738 14.5894 6.39527 14.8025C6.45527 14.9213 7.89287 17.6993 12.0017 17.6993C16.1117 17.6993 17.5469 14.9201 17.6057 14.8013C17.7114 14.5898 17.7291 14.3452 17.6549 14.1207C17.5807 13.8963 17.4206 13.7104 17.2097 13.6037Z" fill="black"/>
</svg>
