<svg width="24" height="24" viewBox="0 0 24 24" fill="none" xmlns="http://www.w3.org/2000/svg">
<path d="M12.0017 0.480469C5.63807 0.480469 0.480469 5.63807 0.480469 12.0005C0.480311 13.5135 0.778208 15.0117 1.35715 16.4096C1.93609 17.8075 2.78473 19.0777 3.8546 20.1475C4.92447 21.2174 6.19462 22.0661 7.59251 22.645C8.9904 23.2239 10.4886 23.5218 12.0017 23.5217C18.3629 23.5217 23.5217 18.3641 23.5217 12.0005C23.5205 5.63807 18.3617 0.480469 12.0017 0.480469V0.480469ZM12.0005 21.1193C10.8028 21.1193 9.61689 20.8834 8.5104 20.4251C7.40391 19.9667 6.39853 19.295 5.55166 18.4481C4.70478 17.6012 4.03301 16.5958 3.57469 15.4893C3.11636 14.3829 2.88047 13.1969 2.88047 11.9993C2.88047 10.8016 3.11636 9.61569 3.57469 8.5092C4.03301 7.40271 4.70478 6.39733 5.55166 5.55046C6.39853 4.70358 7.40391 4.03181 8.5104 3.57349C9.61689 3.11516 10.8028 2.87927 12.0005 2.87927C14.4192 2.87927 16.739 3.84012 18.4493 5.55046C20.1596 7.26079 21.1205 9.58049 21.1205 11.9993C21.1205 14.418 20.1596 16.7378 18.4493 18.4481C16.739 20.1584 14.4192 21.1193 12.0005 21.1193ZM15.0017 11.7005C15.9953 11.7005 16.8017 10.7609 16.8017 9.60047C16.8017 8.44007 15.9953 7.50047 15.0017 7.50047C14.0081 7.50047 13.2017 8.44007 13.2017 9.60047C13.2017 10.7609 14.0069 11.7005 15.0017 11.7005ZM9.00167 11.7005C9.99527 11.7005 10.8017 10.7609 10.8017 9.60047C10.8017 8.44007 9.99527 7.50047 9.00167 7.50047C8.00807 7.50047 7.20167 8.44007 7.20167 9.60047C7.20167 10.7609 8.00687 11.7005 9.00167 11.7005ZM12.0029 13.5005C7.89407 13.5005 6.45647 16.2785 6.39647 16.3973C6.28953 16.6108 6.27181 16.8581 6.3472 17.0847C6.42259 17.3113 6.58492 17.4987 6.79847 17.6057C7.01202 17.7126 7.25931 17.7303 7.48593 17.6549C7.71254 17.5795 7.89993 17.4172 8.00687 17.2037C8.01647 17.1833 8.99327 15.3005 12.0029 15.3005C14.9585 15.3005 15.9605 17.1329 15.9965 17.2025C16.0487 17.3091 16.1215 17.4044 16.2108 17.4828C16.3 17.5612 16.4039 17.6212 16.5164 17.6593C16.6289 17.6973 16.7478 17.7127 16.8663 17.7046C16.9848 17.6965 17.1005 17.665 17.2068 17.612C17.3131 17.5589 17.4078 17.4853 17.4855 17.3955C17.5632 17.3057 17.6224 17.2013 17.6595 17.0885C17.6967 16.9757 17.7112 16.8567 17.7022 16.7382C17.6931 16.6198 17.6608 16.5043 17.6069 16.3985C17.5481 16.2797 16.1117 13.5005 12.0029 13.5005Z" fill="black"/>
</svg>
