<svg width="24" height="24" viewBox="0 0 24 24" fill="none" xmlns="http://www.w3.org/2000/svg">
<path d="M12.0005 0.480469C8.94518 0.480469 6.01502 1.69418 3.8546 3.8546C1.69418 6.01502 0.480469 8.94518 0.480469 12.0005C0.480548 13.5133 0.778599 15.0113 1.35761 16.4089C1.93661 17.8066 2.78524 19.0765 3.85502 20.1462C4.92481 21.2158 6.19481 22.0643 7.59251 22.6432C8.99021 23.2221 10.4882 23.5199 12.0011 23.5199C13.5139 23.5198 15.0119 23.2217 16.4095 22.6427C17.8072 22.0637 19.0771 21.2151 20.1468 20.1453C21.2164 19.0755 22.0649 17.8055 22.6438 16.4078C23.2227 15.0101 23.5205 13.5121 23.5205 11.9993C23.5205 5.63807 18.3617 0.480469 12.0005 0.480469ZM12.0005 21.1193C10.8028 21.1193 9.61689 20.8834 8.5104 20.4251C7.40391 19.9667 6.39853 19.295 5.55166 18.4481C4.70478 17.6012 4.03301 16.5958 3.57469 15.4893C3.11636 14.3829 2.88047 13.1969 2.88047 11.9993C2.88047 10.8016 3.11636 9.61569 3.57469 8.5092C4.03301 7.40271 4.70478 6.39733 5.55166 5.55046C6.39853 4.70358 7.40391 4.03181 8.5104 3.57349C9.61689 3.11516 10.8028 2.87927 12.0005 2.87927C14.4192 2.87927 16.739 3.84012 18.4493 5.55046C20.1596 7.26079 21.1205 9.58049 21.1205 11.9993C21.1205 14.418 20.1596 16.7378 18.4493 18.4481C16.739 20.1584 14.4192 21.1193 12.0005 21.1193ZM15.0005 7.50167C14.0069 7.50167 13.2005 8.44127 13.2005 9.60047C13.2005 10.7597 14.0069 11.7005 15.0005 11.7005C15.9953 11.7005 16.8005 10.7609 16.8005 9.60047C16.8005 8.44007 15.9953 7.50167 15.0005 7.50167ZM9.00167 11.7005C9.99527 11.7005 10.8005 10.7609 10.8005 9.60047C10.8005 8.44007 9.99407 7.50047 9.00047 7.50047C8.00687 7.50047 7.20047 8.44007 7.20047 9.60047C7.20047 10.7609 8.00687 11.7005 9.00167 11.7005V11.7005ZM15.6005 14.7005H8.40047C8.16177 14.7005 7.93286 14.7953 7.76407 14.9641C7.59529 15.1329 7.50047 15.3618 7.50047 15.6005C7.50047 15.8392 7.59529 16.0681 7.76407 16.2369C7.93286 16.4056 8.16177 16.5005 8.40047 16.5005H15.6005C15.8392 16.5005 16.0681 16.4056 16.2369 16.2369C16.4056 16.0681 16.5005 15.8392 16.5005 15.6005C16.5005 15.3618 16.4056 15.1329 16.2369 14.9641C16.0681 14.7953 15.8392 14.7005 15.6005 14.7005Z" fill="black"/>
</svg>
