<svg width="48" height="48" viewBox="0 0 48 48" fill="currentColor" xmlns="http://www.w3.org/2000/svg">
<path fill-rule="evenodd" clip-rule="evenodd" d="M12.7246 6.32642L23.997 17.5982L35.2633 6.3391C37.0318 4.57053 39.8929 4.57053 41.6615 6.3391C43.4301 8.10766 43.4301 10.9688 41.6615 12.7373L30.3952 23.9964L41.6736 35.2814C43.4421 37.05 43.4421 39.911 41.6736 41.6796C40.7923 42.5669 39.6274 43.0075 38.4745 43.0075C37.3155 43.0075 36.1566 42.5669 35.2754 41.6796L23.997 30.3946L12.7367 41.6621C11.8555 42.5494 10.6965 42.99 9.53761 42.99C8.37868 42.99 7.21976 42.5494 6.3385 41.6621C4.56993 39.8935 4.56993 37.0325 6.3385 35.2639L17.5988 23.9964L6.32642 12.7246C4.55786 10.9561 4.55786 8.09499 6.32642 6.32642C8.10102 4.55786 10.9621 4.55786 12.7246 6.32642Z"/>
</svg>
