<svg width="40" height="33" viewBox="0 0 40 33" fill="currentColor" xmlns="http://www.w3.org/2000/svg">
<path fill-rule="evenodd" clip-rule="evenodd" d="M20.006 0.000976562C28.278 0.00697656 35.706 5.80498 39.878 15.513C40.042 15.891 40.042 16.319 39.878 16.697C35.708 26.407 28.278 32.205 20.006 32.211H19.994C11.722 32.205 4.29399 26.407 0.121988 16.697C-0.0400117 16.319 -0.0400117 15.891 0.121988 15.513C4.29399 5.80498 11.724 0.00697656 19.994 0.000976562H20.006ZM20 3.00098C13.128 3.00298 6.85999 7.88898 3.13999 16.105C6.85999 24.323 13.126 29.209 20 29.211C26.874 29.209 33.14 24.323 36.86 16.105C33.14 7.88898 26.874 3.00298 20 3.00098ZM19.9994 8.28258C24.3134 8.28258 27.8234 11.7926 27.8234 16.1066C27.8234 20.4186 24.3134 23.9266 19.9994 23.9266C15.6854 23.9266 12.1774 20.4186 12.1774 16.1066C12.1774 11.7926 15.6854 8.28258 19.9994 8.28258ZM19.9994 11.2826C17.3394 11.2826 15.1774 13.4466 15.1774 16.1066C15.1774 18.7646 17.3394 20.9266 19.9994 20.9266C22.6594 20.9266 24.8234 18.7646 24.8234 16.1066C24.8234 13.4466 22.6594 11.2826 19.9994 11.2826Z"/>
</svg>
