<svg width="48" height="48" viewBox="0 0 48 48" fill="currentColor" xmlns="http://www.w3.org/2000/svg">
<path d="M18.5602 31.6483L28.2693 31.678C28.8747 31.6801 29.3648 32.1871 29.3648 32.8086V38.2707C29.3648 38.8943 29.0107 39.4585 28.4588 39.7194L19.6454 43.8579C19.4395 43.9533 19.2212 44 19.0029 44C18.7126 44 18.4222 43.9152 18.169 43.7476C17.7262 43.4549 17.4585 42.95 17.4585 42.4091V32.7789C17.4585 32.1531 17.9527 31.6462 18.5602 31.6483ZM39.7436 4C42.0952 4 44 5.96211 44 8.38451V11.4475C44 12.6227 43.5408 13.7511 42.7254 14.5742L29.7153 27.734C29.4909 27.9631 29.1861 28.0904 28.871 28.0883L17.9779 28.0543C17.6463 28.0543 17.3313 27.9122 17.1048 27.664L5.14903 14.5148C4.40978 13.7023 4 12.629 4 11.5154V8.38663C4 5.96423 5.90476 4 8.25637 4H39.7436Z"/>
</svg>
