<svg width="48" height="48" viewBox="0 0 48 48" fill="currentColor" xmlns="http://www.w3.org/2000/svg">
<path d="M7.89339 2.6665C7.53977 2.6665 7.20063 2.80698 6.95058 3.05703C6.70053 3.30708 6.56006 3.64622 6.56006 3.99984V43.9998C6.56006 44.3535 6.70053 44.6926 6.95058 44.9426C7.20063 45.1927 7.53977 45.3332 7.89339 45.3332C8.24701 45.3332 8.58615 45.1927 8.8362 44.9426C9.08625 44.6926 9.22673 44.3535 9.22673 43.9998V3.99984C9.22673 3.64622 9.08625 3.30708 8.8362 3.05703C8.58615 2.80698 8.24701 2.6665 7.89339 2.6665V2.6665Z"/>
<path d="M40.6667 5.09317C40.464 4.97615 40.234 4.91454 40 4.91454C39.766 4.91454 39.536 4.97615 39.3333 5.09317C36.7486 6.17972 33.9631 6.70683 31.16 6.63984C28.745 6.46314 26.3931 5.78662 24.2533 4.65317C22.1954 3.54132 19.9306 2.86506 17.6 2.6665C15.6766 2.6686 13.7729 3.05388 12 3.79984V26.6665C13.7371 25.716 15.6865 25.2207 17.6667 25.2265C19.6275 25.421 21.5306 26.001 23.2667 26.9332C25.7469 28.2283 28.4735 28.9827 31.2667 29.1465C34.4727 29.2131 37.6556 28.5902 40.6 27.3198C40.8199 27.209 41.0048 27.0395 41.1342 26.8301C41.2637 26.6206 41.3326 26.3794 41.3333 26.1332V6.2265C41.3296 5.99609 41.2663 5.77057 41.1494 5.57194C41.0326 5.37332 40.8663 5.20836 40.6667 5.09317V5.09317Z"/>
</svg>
