<svg width="48" height="48" viewBox="0 0 48 48" fill="currentColor" xmlns="http://www.w3.org/2000/svg">
<path d="M32.6025 9.6001H26.16C25.56 9.6001 24.9825 9.8251 24.54 10.2301L17.1675 16.9801C17.16 16.9876 17.1525 17.0026 17.145 17.0101C15.9 18.1801 15.9225 20.0476 16.9875 21.2101C17.94 22.2526 19.9425 22.5301 21.195 21.4126C21.2025 21.4051 21.2175 21.4051 21.225 21.3976L27.2175 15.9076C27.705 15.4651 28.47 15.4951 28.9125 15.9826C29.3625 16.4701 29.325 17.2276 28.8375 17.6776L26.88 19.4701L37.8 28.3351C38.0175 28.5151 38.2125 28.7101 38.3925 28.9126V14.4001L34.2975 10.3051C33.855 9.8551 33.24 9.6001 32.6025 9.6001V9.6001ZM40.8 14.4151V31.2076C40.8 32.5351 41.8725 33.6076 43.2 33.6076H48V14.4151H40.8ZM44.4 31.2076C43.74 31.2076 43.2 30.6676 43.2 30.0076C43.2 29.3476 43.74 28.8076 44.4 28.8076C45.06 28.8076 45.6 29.3476 45.6 30.0076C45.6 30.6676 45.06 31.2076 44.4 31.2076ZM0 33.6001H4.8C6.1275 33.6001 7.2 32.5276 7.2 31.2001V14.4151H0V33.6001ZM3.6 28.8076C4.26 28.8076 4.8 29.3476 4.8 30.0076C4.8 30.6676 4.26 31.2076 3.6 31.2076C2.94 31.2076 2.4 30.6676 2.4 30.0076C2.4 29.3401 2.94 28.8076 3.6 28.8076ZM36.2925 30.2026L25.095 21.1126L22.845 23.1751C20.6175 25.2076 17.205 25.0126 15.2175 22.8451C13.2 20.6401 13.3575 17.2276 15.5475 15.2176L21.6825 9.6001H15.3975C14.76 9.6001 14.1525 9.8551 13.7025 10.3051L9.6 14.4001V31.1926H10.9725L17.76 37.3351C19.815 39.0076 22.8375 38.6926 24.51 36.6376L24.525 36.6226L25.8675 37.7851C27.06 38.7601 28.8225 38.5726 29.79 37.3801L32.145 34.4851L32.55 34.8151C33.5775 35.6476 35.0925 35.4976 35.925 34.4626L36.6375 33.5851C37.4775 32.5501 37.32 31.0426 36.2925 30.2026V30.2026Z"/>
</svg>
