<svg width="48" height="48" viewBox="0 0 48 48" fill="currentColor" xmlns="http://www.w3.org/2000/svg">
<path d="M24 3.99854C35.06 3.99854 44 12.9605 44 23.9985C44 35.0405 35.06 43.9985 24 43.9985C12.96 43.9985 4 35.0405 4 23.9985C4 12.9605 12.96 3.99854 24 3.99854ZM24 29.8605C23.04 29.8605 22.26 30.6405 22.26 31.6005C22.26 32.5605 23.04 33.3605 24.02 33.3605C24.98 33.3605 25.76 32.5605 25.76 31.6005C25.76 30.6405 24.98 29.8605 24 29.8605ZM24 14.6585C23.04 14.6585 22.24 15.4605 22.24 16.4185V25.2585C22.24 26.2205 23.04 26.9985 24 26.9985C24.96 26.9985 25.74 26.2205 25.74 25.2585V16.4185C25.74 15.4605 24.96 14.6585 24 14.6585Z"/>
</svg>
