<svg width="48" height="48" viewBox="0 0 48 48" fill="currentColor" xmlns="http://www.w3.org/2000/svg">
<path d="M23.9695 4C30.107 4 35.0454 8.82957 35.0454 14.792V17.8587C38.4901 18.9339 41 22.0523 41 25.7768V35.6506C41 40.2616 37.1773 44 32.4644 44H15.5376C10.8227 44 7 40.2616 7 35.6506V25.7768C7 22.0523 9.51189 18.9339 12.9546 17.8587V14.792C12.9749 8.82957 17.9133 4 23.9695 4ZM23.9898 26.7686C23.0143 26.7686 22.2218 27.5437 22.2218 28.4977V32.9099C22.2218 33.8837 23.0143 34.6588 23.9898 34.6588C24.9857 34.6588 25.7782 33.8837 25.7782 32.9099V28.4977C25.7782 27.5437 24.9857 26.7686 23.9898 26.7686ZM24.0102 7.47809C19.8846 7.47809 16.5314 10.7376 16.5111 14.7523V17.4274H31.4889V14.792C31.4889 10.7574 28.1357 7.47809 24.0102 7.47809Z"/>
</svg>
