<svg width="24" height="24" viewBox="0 0 24 24" fill="currentColor" xmlns="http://www.w3.org/2000/svg">
<path d="M12 1L20.217 2.826C20.4387 2.87529 20.6371 2.9986 20.7794 3.17562C20.9217 3.35265 20.9995 3.57286 21 3.8V13.787C20.9999 14.7747 20.756 15.7472 20.2899 16.618C19.8238 17.4888 19.1499 18.2311 18.328 18.779L12 23L5.672 18.781C4.85027 18.2332 4.17646 17.4911 3.71035 16.6205C3.24424 15.7498 3.00024 14.7776 3 13.79V3.8C3.00004 3.57252 3.07764 3.35184 3.21999 3.17441C3.36234 2.99697 3.56094 2.87336 3.783 2.824L12 1ZM12 3.049L5 4.6V13.785C5.00001 14.4435 5.16257 15.0917 5.47326 15.6723C5.78395 16.2528 6.23315 16.7477 6.781 17.113L12 20.6L17.219 17.12C17.7671 16.7545 18.2165 16.2593 18.5272 15.6784C18.8379 15.0975 19.0003 14.4488 19 13.79V4.6L12 3.05V3.049ZM12 7C12.4403 7.00002 12.8682 7.1453 13.2175 7.41332C13.5667 7.68133 13.8178 8.0571 13.9318 8.48236C14.0457 8.90761 14.0162 9.35857 13.8477 9.76532C13.6792 10.1721 13.3813 10.5119 13 10.732V15H11V10.732C10.6187 10.5119 10.3208 10.1721 10.1523 9.76532C9.98384 9.35857 9.95429 8.90761 10.0682 8.48236C10.1822 8.0571 10.4333 7.68133 10.7825 7.41332C11.1318 7.1453 11.5597 7.00002 12 7Z"/>
</svg>
