<svg width="48" height="48" viewBox="0 0 48 48" fill="currentColor" xmlns="http://www.w3.org/2000/svg">
<path fill-rule="evenodd" clip-rule="evenodd" d="M24 6C25.6873 6 27.0567 7.36941 27.0567 9.05672V20.9278L38.9433 20.9286C40.6306 20.9286 42 22.298 42 23.9853C42 25.6726 40.6306 27.042 38.9433 27.042L27.0567 27.0412V38.9188C27.0567 40.6061 25.6873 41.9755 24 41.9755C22.3127 41.9755 20.9433 40.6061 20.9433 38.9188V27.0412L9.05672 27.042C7.36533 27.042 6 25.6726 6 23.9853C6 22.298 7.36533 20.9286 9.05672 20.9286L20.9433 20.9278V9.05672C20.9433 7.36941 22.3127 6 24 6Z"/>
</svg>
