<svg width="38" height="38" viewBox="0 0 38 38" fill="currentColor" xmlns="http://www.w3.org/2000/svg">
<path fill-rule="evenodd" clip-rule="evenodd" d="M19 0C20.781 0 22.2265 1.44549 22.2265 3.22654V15.7571L34.7735 15.758C36.5545 15.758 38 17.2035 38 18.9845C38 20.7656 36.5545 22.211 34.7735 22.211L22.2265 22.2102V34.7476C22.2265 36.5287 20.781 37.9742 19 37.9742C17.219 37.9742 15.7735 36.5287 15.7735 34.7476V22.2102L3.22654 22.211C1.44119 22.211 0 20.7656 0 18.9845C0 17.2035 1.44119 15.758 3.22654 15.758L15.7735 15.7571V3.22654C15.7735 1.44549 17.219 0 19 0Z"/>
</svg>
