<svg width="48" height="48" viewBox="0 0 48 48" fill="currentColor" xmlns="http://www.w3.org/2000/svg">
<path d="M19 30.0304C27.1336 30.0304 34 31.3687 34 36.5375C34 41.7063 27.0896 43 19 43C10.8664 43 4 41.6596 4 36.4929C4 31.3241 10.9084 30.0304 19 30.0304ZM37.9979 19.1757C38.9904 19.1757 37.9979 19.1757 39.7959 19.1757H42.2021C43.1925 19.1757 44 19.9946 44 20.999C44 22.0033 43.1925 22.8222 42.2021 22.8222H39.7959C37.9044 22.8222 38.8968 22.8222 37.9044 22.8222C36.914 22.8222 37.9044 22.8222 36.2 22.8222H33.7979C32.8055 22.8222 32 22.0033 32 20.999C32 19.9946 32.8055 19.1757 33.7979 19.1757H36.2C36.2 19.1757 37.0055 19.1757 37.9979 19.1757ZM19 5C24.5091 5 28.9253 9.47326 28.9253 15.0537C28.9253 20.6341 24.5091 25.1074 19 25.1074C13.4909 25.1074 9.07474 20.6341 9.07474 15.0537C9.07474 9.47326 13.4909 5 19 5Z"/>
</svg>
