<svg width="48" height="48" viewBox="0 0 48 48" fill="currentColor" xmlns="http://www.w3.org/2000/svg">
<path d="M32.6054 30.673H13.36V40.3636C13.36 41.2674 12.6078 42 11.68 42C10.7522 42 10 41.2674 10 40.3636V7.63636C10 6.73262 10.7522 6 11.68 6H32.6054C34.8074 6 36.5012 7.31852 37.3478 8.96414C38.193 10.6067 38.2828 12.7136 37.2246 14.5604L36.2192 16.3151C35.514 17.5462 35.514 19.1267 36.2192 20.3578L37.2246 22.1126C38.2828 23.9594 38.193 26.0662 37.3478 27.7088C36.5012 29.3544 34.8074 30.673 32.6054 30.673Z"/>
</svg>
