<svg width="42" height="42" viewBox="0 0 42 42" fill="currentColor" xmlns="http://www.w3.org/2000/svg">
<path fill-rule="evenodd" clip-rule="evenodd" d="M20.3803 0.285645C31.1203 0.285645 39.8563 9.02164 39.8563 19.7616C39.8563 24.8287 37.9118 29.4502 34.7296 32.9186L40.9911 39.167C41.5771 39.753 41.5791 40.701 40.9931 41.287C40.7011 41.583 40.3151 41.729 39.9311 41.729C39.5491 41.729 39.1651 41.583 38.8711 41.291L32.5341 34.9717C29.2005 37.6413 24.9737 39.2396 20.3803 39.2396C9.64034 39.2396 0.902344 30.5016 0.902344 19.7616C0.902344 9.02164 9.64034 0.285645 20.3803 0.285645ZM20.3803 3.28564C11.2943 3.28564 3.90234 10.6756 3.90234 19.7616C3.90234 28.8476 11.2943 36.2396 20.3803 36.2396C29.4643 36.2396 36.8563 28.8476 36.8563 19.7616C36.8563 10.6756 29.4643 3.28564 20.3803 3.28564Z"/>
</svg>
