<svg width="24" height="24" viewBox="0 0 24 24" fill="currentColor" xmlns="http://www.w3.org/2000/svg">
<path d="M22.9603 11.6268C22.9524 10.7667 22.4691 9.98674 21.7035 9.58873L3.86307 0.295021C3.06371 -0.133679 2.13428 -0.0582411 1.40163 0.466214C0.655517 0.999531 0.295001 2.23776 0.526452 3.12116L2.32461 9.97856C2.5092 10.6817 3.15288 11.1655 3.88074 11.1462L13.6888 10.8985C14.1909 10.8772 14.6073 11.2756 14.6083 11.7781C14.6178 12.272 14.2253 12.6822 13.7232 12.7034L3.90559 12.9437C3.17775 12.9612 2.55305 13.4753 2.39544 14.1871L0.845128 21.1461C0.6564 21.9686 0.910321 22.7799 1.50017 23.3441C1.56962 23.4106 1.64766 23.4852 1.72539 23.5428C2.48553 24.1029 3.46591 24.1548 4.29171 23.691L21.765 13.7098C22.515 13.2905 22.9681 12.4869 22.9603 11.6268Z"/>
</svg>
