<svg width="48" height="48" viewBox="0 0 48 48" fill="currentColor" xmlns="http://www.w3.org/2000/svg">
<path d="M35.5416 32.9189C34.0539 32.9189 32.6681 33.3515 31.4995 34.0952L19.7061 25.8615C19.8955 25.2006 19.999 24.5034 19.999 23.7818C19.999 23.06 19.8955 22.3629 19.7061 21.7021L31.1812 13.6906C32.4124 14.5651 33.9163 15.0811 35.5415 15.0811C39.706 15.0811 43.082 11.7051 43.082 7.54061C43.082 3.37615 39.7061 0 35.5416 0C31.3772 0 28.0011 3.37605 28.0011 7.5405C28.0011 8.0905 28.0616 8.62615 28.1734 9.14265L16.407 17.3576C15.2585 16.6502 13.9065 16.2413 12.4585 16.2413C8.29402 16.2413 4.91797 19.6173 4.91797 23.7818C4.91797 27.9462 8.29391 31.3223 12.4585 31.3223C13.9064 31.3223 15.2585 30.9134 16.407 30.206L28.2643 38.4843C28.0938 39.1141 28.0011 39.7759 28.0011 40.4595C28.0011 44.624 31.3772 48 35.5416 48C39.7061 48 43.0821 44.624 43.0821 40.4595C43.0821 36.295 39.7061 32.9189 35.5416 32.9189Z"/>
</svg>
