<svg width="46" height="46" viewBox="0 0 46 46" fill="currentColor" xmlns="http://www.w3.org/2000/svg">
<path d="M23.0002 11.4788C16.6471 11.4788 11.4788 16.6482 11.4788 23.0012C11.4788 29.3542 16.6471 34.5236 23.0002 34.5236C29.3521 34.5236 34.5215 29.3552 34.5215 23.0012C34.5215 16.6471 29.3521 11.4788 23.0002 11.4788Z"/>
<path d="M23 8.09176C21.7583 8.09176 20.752 7.08539 20.752 5.84473V2.24805C20.752 1.00638 21.7583 0 23 0C24.2417 0 25.2481 1.00638 25.2481 2.24805V5.84473C25.2481 7.08539 24.2407 8.09176 23 8.09176Z"/>
<path d="M23 37.9072C21.7583 37.9072 20.752 38.9136 20.752 40.1553V43.7509C20.752 44.9936 21.7583 46 23 46C24.2417 46 25.2481 44.9936 25.2481 43.7509V40.1553C25.2481 38.9136 24.2407 37.9072 23 37.9072Z"/>
<path d="M33.5405 12.4584C32.6634 11.5804 32.6634 10.1574 33.5405 9.27933L36.0839 6.73589C36.9609 5.85887 38.3849 5.85887 39.2629 6.73589C40.141 7.61392 40.141 9.03792 39.2629 9.91494L36.7195 12.4584C35.8425 13.3364 34.4195 13.3364 33.5405 12.4584Z"/>
<path d="M12.4585 33.5426C11.5805 32.6635 10.1575 32.6635 9.27947 33.5426L6.73602 36.085C5.85901 36.962 5.85799 38.3871 6.73602 39.2641C7.61406 40.1411 9.03806 40.1411 9.91508 39.2641L12.4585 36.7196C13.3366 35.8426 13.3366 34.4186 12.4585 33.5426Z"/>
<path d="M37.9072 23C37.9072 21.7583 38.9136 20.752 40.1553 20.752H43.752C44.9936 20.752 46 21.7583 46 23C46 24.2417 44.9936 25.247 43.752 25.247H40.1553C38.9136 25.247 37.9072 24.2417 37.9072 23Z"/>
<path d="M8.09176 23C8.09176 21.7583 7.08539 20.752 5.84371 20.752H2.24805C1.00638 20.752 0 21.7583 0 23C0 24.2417 1.00638 25.247 2.24805 25.247H5.84473C7.08539 25.247 8.09176 24.2417 8.09176 23Z"/>
<path d="M33.5405 33.5425C34.4185 32.6655 35.8425 32.6655 36.7195 33.5425L39.263 36.086C40.141 36.962 40.141 38.387 39.263 39.264C38.3849 40.141 36.962 40.141 36.0839 39.264L33.5405 36.7206C32.6624 35.8425 32.6624 34.4195 33.5405 33.5425Z"/>
<path d="M12.4584 12.4586C13.3364 11.5806 13.3364 10.1576 12.4584 9.27957L9.91497 6.73714C9.03694 5.8591 7.61395 5.8591 6.73592 6.73714C5.85788 7.61415 5.85788 9.03816 6.73592 9.91517L9.27936 12.4586C10.1574 13.3377 11.5804 13.3377 12.4584 12.4586Z"/>
</svg>
