<svg width="40" height="40" viewBox="0 0 40 40" fill="none" xmlns="http://www.w3.org/2000/svg">
<rect width="40" height="40" fill="#DAD4FC" part="react"/>
<path d="M18.3154 17.8894L17.6342 17.9138L17.659 22.1574H18.3154V17.8894ZM17.659 13.6092L18.2164 14.4506L18.2907 8.78025H17.6466V13.6092H17.659ZM33.5384 8.78025H34.1949V22.1696H33.5384V8.78025ZM21.5359 18.2309H23.0842V20.7185H21.5359V18.2309ZM24.1247 15.7432H25.673V20.7185H24.1247V15.7432ZM26.7258 14.7799H28.2742V20.7307H26.7258V14.7799ZM29.3146 12.4629H30.8629V20.7307H29.3146V12.4629ZM11.4286 10.0241C12.8406 10.0241 13.9802 8.90219 13.9802 7.51204C13.9802 6.12188 12.8406 5 11.4286 5C10.0165 5 8.87696 6.12188 8.87696 7.51204C8.87696 8.90219 10.0165 10.0241 11.4286 10.0241ZM17.82 17.3163H21.9942C23.4434 17.3163 23.5425 15.0847 21.9447 15.0847H17.9438L17.8324 14.9262L15.6276 11.7801C14.9587 10.8411 14.1784 10.4387 13.1007 10.4387H9.69447C8.61685 10.4387 7.8365 10.8777 7.16763 11.7801L5 14.9018V17.3163V21.3038C5 21.9136 5.50785 22.4135 6.12717 22.4135C6.74649 22.4135 7.25434 21.9136 7.25434 21.3038V15.792L8.28241 14.3409L8.30719 33.5713C8.30719 34.4981 8.96367 34.9493 9.64492 34.9981C10.3881 35.0347 11.1808 34.5469 11.1685 33.5226L11.1932 22.3404H11.4162H11.6391L11.6639 33.5226C11.6639 34.5103 12.3947 34.9981 13.1255 34.9981C13.8315 34.9981 14.5252 34.5225 14.5252 33.5713L14.5623 14.3409L16.3088 16.8041C16.5566 17.1822 17.0025 17.3163 17.3617 17.3163H17.82V17.3163ZM16.891 7.68276V8.78025H17.6713H18.3154H33.5508H34.2073H35V7.68276H16.891ZM18.3154 22.1696H17.659H16.8786V23.2671H25.2766V23.1696H26.0941V23.2671H34.9752V22.1696H34.1825H33.526H18.3154ZM26.0941 23.1696H25.2766V23.2671V30.8886L21.6846 34.425H22.8365L25.2766 32.0227V34.425H26.0941V32.0227L28.559 34.425H29.6986L26.1065 30.8886V23.2671V23.1696H26.0941Z" fill="#484DB5" />
</svg>
