<svg width="40" height="40" viewBox="0 0 40 40" fill="none" xmlns="http://www.w3.org/2000/svg">
<rect width="40" height="40" fill="#DAD4FC" part="react"/>
<path d="M33.1249 32.6645V10.4821L25.0891 5V32.665H23.6162V19.9675C23.6162 18.6214 22.6571 17.5308 21.4732 17.5308H16.3838V31.3441H15.8479V12.6756C15.4843 11.9166 14.7864 11.3961 13.9728 11.3961H9.28557C8.10219 11.3961 7.14253 12.4873 7.14253 13.8328V32.6656H5V35H35V32.6656H33.1249V32.6645ZM29.6432 11.1417H32.0542V13.8831H29.6432V11.1417ZM29.6432 15.9643H32.0542V18.7056H29.6432V15.9643ZM29.6432 20.888H32.0542V23.6293H29.6432V20.888ZM29.6432 25.7105H32.0542V28.4518H29.6432V25.7105ZM26.1609 11.1417H28.5719V13.8831H26.1609V11.1417ZM26.1609 15.9643H28.5719V18.7056H26.1609V15.9643ZM26.1609 20.888H28.5719V23.6293H26.1609V20.888ZM26.1609 25.7105H28.5719V28.4518H26.1609V25.7105ZM12.1424 14.1299H14.2855V16.5666H12.1424V14.1299ZM12.1424 18.4957H14.2855V20.9324H12.1424V18.4957ZM12.1424 22.9182H14.2855V25.3549H12.1424V22.9182ZM12.1424 27.2835H14.2855V29.7202H12.1424V27.2835ZM8.57122 14.1299H10.7143V16.5666H8.57122V14.1299ZM8.57122 18.4957H10.7143V20.9324H8.57122V18.4957ZM8.57122 22.9182H10.7143V25.3549H8.57122V22.9182ZM8.57122 27.2835H10.7143V29.7202H8.57122V27.2835Z" fill="#484DB5" />
</svg>
