<svg width="40" height="40" viewBox="0 0 40 40" fill="none" xmlns="http://www.w3.org/2000/svg">
<rect width="40" height="40" fill="#D7FEED" part="react"/>
<path d="M9.33723 13.9154L10.9008 12.977L10.8786 13.3103L9.75443 14.1356L10.4056 14.1518L18.2829 13.9939L24.7091 9.43436L28.9736 6.11013L15.4659 5.45166L5 14.017L7.85598 14.0879L7.92004 13.55L8.83238 13.161L9.01199 13.2554L8.26958 13.7131L8.26676 14.0984C8.26648 14.0988 7.70183 18.5017 8.58229 20.2735C8.58229 20.2735 9.94135 20.5759 10.8525 19.5247L9.47715 14.3389L9.33723 13.9154ZM16.579 8.82595C17.3904 8.55838 18.1806 8.74282 18.3436 9.23816C18.5072 9.73319 17.9818 10.352 17.1701 10.6195C16.3585 10.8871 15.5683 10.7027 15.4047 10.2073C15.2414 9.71188 15.767 9.09353 16.579 8.82595ZM9.53835 19.356C9.53835 19.356 9.21457 17.9233 9.13918 16.349L9.80569 19.2677L9.53835 19.356Z" fill="#06C270" />
<path d="M26.1903 13.9103C26.1856 13.897 26.1773 13.8852 26.1723 13.8714L24.9733 10.2358L18.5472 14.7956L10.6694 14.9526L11.3837 17.1186L11.882 18.6291C12.1614 19.4757 13.2103 19.9807 14.6808 20.1125V31.1739H23.4695V33.4199H19.8815V34.5486H29.7991V33.4199H26.2111V31.1739H34.9998V16.983H24.5639C25.836 15.9387 26.49 14.8198 26.1903 13.9103ZM33.1831 19.0171V29.1401H16.4979V20.102C17.5953 20.0061 18.8083 19.7574 20.0509 19.3476C20.362 19.2452 20.6626 19.1334 20.9576 19.0171H33.1831V19.0171Z" fill="#06C270" />
<path d="M30.8985 21.4863H18.2241V21.9704H30.8985V21.4863Z" fill="#06C270" />
<path d="M30.8985 23.5288H18.2241V24.013H30.8985V23.5288Z" fill="#06C270" />
<path d="M29.2155 25.7866H18.2241V26.2708H29.2155V25.7866Z" fill="#06C270" />
</svg>
