<svg width="40" height="40" viewBox="0 0 40 40" fill="none" xmlns="http://www.w3.org/2000/svg">
<rect width="40" height="40" fill="#DBFDFF" part="react"/>
<path d="M23.3202 12.7716C23.8758 12.7716 24.4182 12.5145 24.825 12.0581C25.2286 11.6053 25.4814 10.9763 25.524 10.313C25.5671 9.6403 25.3952 8.96292 25.0451 8.43651C24.7021 7.92099 24.2037 7.57077 23.662 7.46931C23.1071 7.36538 22.5302 7.52232 22.0677 7.90688C21.6184 8.28032 21.2929 8.85198 21.1683 9.49315C21.0397 10.1544 21.1271 10.8645 21.4117 11.4507C21.6866 12.017 22.1342 12.45 22.6531 12.648C22.8686 12.7302 23.0943 12.7716 23.3202 12.7716Z" fill="#00B7C4" />
<path d="M29.477 19.7142C30.0366 19.7142 30.5565 19.3047 30.7821 18.6866C31.0105 18.0605 30.9021 17.3102 30.513 16.8135C30.1241 16.3169 29.5108 16.1437 28.9797 16.3823C28.4572 16.6171 28.0876 17.218 28.0543 17.8897C28.0057 18.8652 28.6666 19.7142 29.477 19.7142Z" fill="#00B7C4" />
<path d="M10.0893 19.6273C10.649 19.6273 11.1688 19.2178 11.3944 18.5997C11.6228 17.9736 11.5144 17.2233 11.1253 16.7266C10.7364 16.23 10.1231 16.0568 9.59196 16.2954C9.06935 16.5302 8.7 17.1311 8.66659 17.8028C8.61795 18.7784 9.27874 19.6273 10.0893 19.6273Z" fill="#00B7C4" />
<path d="M12.6656 23.5176C12.6535 23.4326 12.6436 23.346 12.6289 23.2585C12.5922 23.0801 12.5549 22.902 12.5175 22.7237C12.4727 22.5685 12.4309 22.4112 12.3822 22.2577C12.3319 22.099 12.2659 21.9459 12.2064 21.792C12.1469 21.6683 12.0869 21.5447 12.0268 21.4216C11.9598 21.309 11.8956 21.1927 11.8238 21.0844C11.6425 20.8346 11.454 20.6135 11.236 20.4107C11.1306 20.3262 11.0248 20.2465 10.9135 20.1737C10.7269 20.0667 10.5382 19.9599 10.3342 19.9114C10.0904 19.8536 9.84322 19.8912 9.61365 20.0032C9.2909 20.1606 9.03423 20.4439 8.75548 20.6866C8.45481 20.9485 8.13614 21.2045 7.79111 21.3731C7.78425 21.3764 7.77732 21.3797 7.77045 21.383C7.70783 21.4157 7.64255 21.4373 7.57807 21.4631C7.38229 21.5322 7.2948 21.485 7.2948 21.485L7.0148 21.3467C6.93745 21.3091 6.85033 21.3034 6.76816 21.3338C6.86834 20.4093 6.99908 19.4755 6.92842 18.5405C6.85726 17.5985 6.51205 16.7262 6.39751 15.7925C6.35364 15.4348 6.34374 15.0707 6.38699 14.7122H6.50047C6.57739 14.7122 6.62819 14.6097 6.59174 14.5279L6.51514 14.3555C7.04036 13.8146 7.57609 13.0488 7.55765 12.1659C7.54094 11.3673 7.10211 10.5104 6.39615 10.4218C5.74322 10.3399 5.21912 10.9612 5.05755 11.6803C4.98076 12.0223 4.97922 12.3864 5.06257 12.7267C5.1646 13.1433 5.37158 13.5131 5.60653 13.8374C5.74068 14.0227 5.88727 14.1948 6.04221 14.3546L5.96957 14.5155C5.92248 14.5967 5.9726 14.7121 6.05465 14.7121H6.14604C6.04301 15.6526 6.28198 16.5673 6.49701 17.4594C6.60542 17.9092 6.68796 18.3516 6.70479 18.8214C6.72156 19.2888 6.6918 19.7568 6.64774 20.2208C6.61841 20.5289 6.58259 20.836 6.54855 21.1432C6.51557 21.4405 6.47715 21.7395 6.47882 22.0402C6.48185 22.5702 6.63784 23.0435 6.87124 23.486L7.07247 23.3316C6.86654 22.9412 6.76017 22.6255 6.72818 22.267C6.77614 22.3256 6.83863 22.3861 6.91295 22.4399C6.95923 22.4693 7.01195 22.5073 7.06436 22.527C7.14629 22.5631 7.23044 22.59 7.31695 22.6047C7.40259 22.6146 7.48618 22.6189 7.57219 22.6195C7.62838 22.6174 7.68301 22.6112 7.73945 22.6047C8.04846 22.5487 8.34288 22.446 8.63302 22.306L8.49522 25.3766C8.47987 25.7364 8.54738 26.0981 8.69236 26.4134L8.91933 32.0724C8.93257 32.3809 9.1479 32.6339 9.40426 32.6393C9.66668 32.6447 9.89204 32.3906 9.90553 32.0744L10.0988 27.5727L10.2792 32.0724C10.2925 32.381 10.5078 32.6339 10.7643 32.6393C11.0267 32.6447 11.2519 32.3905 11.2655 32.0744L11.511 26.4041C11.635 26.1115 11.6988 25.7285 11.6831 25.3767L11.5901 23.3049C11.6142 23.3879 11.6388 23.4707 11.6632 23.5537C11.7059 23.7256 11.7391 23.9019 11.7764 24.0758C11.8122 24.317 11.855 24.5593 11.8744 24.8035C11.8888 24.9863 11.9045 25.169 11.92 25.3516L11.9232 25.3905C11.9463 25.6558 12.1428 25.8581 12.3632 25.8462C12.593 25.8338 12.7458 25.5965 12.7664 25.3335C12.7776 24.7296 12.7447 24.1148 12.6656 23.5176C12.6768 23.6025 12.6535 23.4326 12.6656 23.5176Z" fill="#00B7C4" />
<path d="M16.3701 12.2744C16.9272 12.2744 17.4709 12.0126 17.8749 11.5497C18.2765 11.0893 18.522 10.4515 18.5524 9.78386C18.583 9.10924 18.3954 8.43642 18.0311 7.92292C17.6726 7.41756 17.1599 7.08839 16.6116 7.01567C16.0529 6.94154 15.483 7.13237 15.0376 7.54627C14.6024 7.95062 14.3034 8.54901 14.2137 9.20316C14.1217 9.87397 14.2499 10.5742 14.5701 11.1338C14.8813 11.6776 15.3597 12.0686 15.8946 12.2117C16.0506 12.2536 16.2103 12.2744 16.3701 12.2744Z" fill="#00B7C4" />
<path d="M34.6934 12.5201C34.42 12.0699 33.9698 11.8062 33.5064 11.9188C33.9953 12.3023 34.2394 13.0698 34.151 13.7558C34.0599 14.4632 33.6494 15.067 33.2212 15.5321C33.3065 15.6359 33.3952 15.7356 33.4872 15.8304L33.4145 15.9913C33.3674 16.0726 33.4176 16.1879 33.4996 16.1879H33.609C33.566 16.9419 33.3685 17.6723 33.1303 18.3665C33.0165 18.6982 32.8917 19.0241 32.764 19.3483C32.6265 19.698 32.5022 20.0433 32.4275 20.4214C32.4045 20.0078 32.4069 19.5894 32.4674 19.1803C32.5228 18.8049 32.6269 18.4414 32.6895 18.0672C32.8077 17.3601 32.8068 16.6508 32.7358 15.9363H32.8579C32.9347 15.9363 32.9857 15.8338 32.9493 15.752L32.8727 15.5796C33.3978 15.0386 33.9336 14.273 33.9152 13.3901C33.8984 12.5916 33.4597 11.7346 32.7538 11.646C32.1008 11.564 31.5767 12.1854 31.4149 12.9044C31.3382 13.2463 31.3366 13.6105 31.4201 13.9509C31.5221 14.3674 31.729 14.7373 31.9639 15.0616C32.0982 15.2468 32.2447 15.4189 32.3996 15.5788L32.3271 15.7397C32.2795 15.8208 32.3304 15.9363 32.4122 15.9363H32.5298C32.5717 16.3517 32.5956 16.7709 32.5776 17.1893C32.5612 17.5638 32.5096 17.9337 32.4381 18.2982C32.397 18.5075 32.3451 18.7135 32.3035 18.9227C32.2582 19.1517 32.2311 19.3857 32.2186 19.6206C32.1934 20.0916 32.2246 20.564 32.2709 21.0316C32.2866 21.1916 32.3094 21.3515 32.3181 21.5124C32.222 21.526 32.1284 21.5026 32.0356 21.4754C31.9735 21.449 31.9105 21.427 31.8505 21.3939C31.5046 21.2237 31.1787 20.9546 30.8846 20.6795C30.6148 20.427 30.3619 20.1502 30.0509 19.9707C29.8381 19.8479 29.6052 19.782 29.3694 19.8189C29.1282 19.8567 28.8959 19.9689 28.6836 20.1089C28.512 20.222 28.3506 20.3573 28.1994 20.5068C28.0233 20.6807 27.8781 20.8825 27.7327 21.0926C27.667 21.2057 27.6001 21.3182 27.5379 21.4341C27.5165 21.4798 27.4945 21.5271 27.4728 21.5737C27.4784 21.0186 27.4673 20.4677 27.4394 19.9136C27.4252 19.7361 27.411 19.5585 27.3964 19.3809C27.3443 18.9134 27.2773 18.4535 27.1933 17.9928C27.1631 17.8545 27.1325 17.7152 27.1017 17.5752C26.973 17.0773 26.8235 16.5989 26.6384 16.1273C26.5529 15.9313 26.4633 15.7401 26.3707 15.549C25.9637 14.7808 25.4491 14.0991 24.7948 13.6301C24.1954 13.2005 23.4877 12.9799 22.7962 13.1638C22.1905 13.3248 21.6412 13.7272 21.1812 14.219C20.6829 14.7516 20.283 15.4087 19.9775 16.1202C19.4533 14.5352 18.386 13.1028 16.9483 12.7703C16.2484 12.6084 15.5187 12.7456 14.8847 13.1351C14.2506 13.5247 13.715 14.1236 13.3108 14.827C12.4323 16.356 12.195 18.2864 12.2304 20.1092C12.2414 20.675 12.2776 21.2412 12.3367 21.8026L12.3377 21.8117C12.3831 22.225 12.7017 22.5285 13.0452 22.4881C13.3844 22.4481 13.6457 22.0835 13.6305 21.6729C13.6038 20.9162 13.6192 20.1539 13.6951 19.4019C13.7881 18.4795 13.9749 17.5497 14.3527 16.7331L13.8743 21.499C13.8049 22.2242 13.9495 22.963 14.2903 23.5674L14.6269 32.1298C14.6469 32.6094 14.9854 33.0001 15.3838 33C15.7832 32.9999 16.1215 32.6087 16.1393 32.1274L16.3797 25.659L16.6295 32.129C16.6493 32.6088 16.9875 32.9997 17.386 33C17.7853 33.0002 18.1238 32.6093 18.1421 32.1282L18.4674 23.536C18.7853 22.9564 18.941 22.2431 18.8663 21.4989L18.3937 16.7904C18.9207 17.9667 19.0724 19.3497 19.0974 20.6692C19.0897 20.9772 19.089 21.2845 19.0918 21.5926C19.0904 21.644 19.0893 21.6727 19.0893 21.6727C19.0751 22.0836 19.338 22.4505 19.6781 22.4883C20.0393 22.5282 20.3732 22.1992 20.4033 21.7616L20.4052 21.7317C20.4174 21.5546 20.4296 21.3777 20.4414 21.2006C20.4743 20.8616 20.5122 20.5247 20.5554 20.1875C20.6633 19.5202 20.7964 18.867 21.0033 18.2332C21.0422 18.1261 21.0775 18.0166 21.1183 17.9113V18.5283L21.1333 19.3496L20.0236 25.3705C19.9739 25.6767 20.1743 25.9698 20.4324 25.9698H21.2462L21.4909 32.0724C21.5116 32.5545 21.8501 32.9481 22.2505 32.9515C22.6546 32.9552 22.9994 32.5622 23.0202 32.0755L23.2823 25.9698H23.3548L23.5994 32.0724C23.6202 32.5545 23.9587 32.9481 24.3592 32.9515C24.7633 32.9552 25.1082 32.5622 25.129 32.0755L25.3909 25.9698H26.2087C26.4682 25.9698 26.6663 25.6757 26.6171 25.3691L25.513 19.2766L25.5224 18.6266V18.0256C25.5414 18.0799 25.5603 18.1344 25.5792 18.1886C25.6128 18.2987 25.6463 18.4084 25.6794 18.5172C25.7799 18.8963 25.865 19.2764 25.9394 19.6641C25.9639 19.8171 25.9883 19.9701 26.0126 20.123C26.055 20.4564 26.0912 20.7897 26.1235 21.1247C26.1353 21.2997 26.1475 21.4747 26.1594 21.6496L26.1616 21.6823C26.2046 22.286 26.7975 22.611 27.2033 22.2514C27.1526 22.4119 27.111 22.5774 27.0659 22.7405C27.0299 22.9186 26.9941 23.0968 26.9586 23.2751C26.9255 23.4836 26.9032 23.6951 26.8758 23.9049C26.8576 24.1784 26.8311 24.4534 26.83 24.7279C26.829 24.9351 26.8277 25.1425 26.8269 25.3498C26.8264 25.6167 27.0038 25.846 27.2249 25.8617C27.4482 25.8778 27.648 25.6719 27.6702 25.4034L27.6732 25.3676C27.6877 25.193 27.7026 25.0184 27.7165 24.8436C27.7367 24.5897 27.7789 24.3385 27.8151 24.0874C27.8519 23.9124 27.8849 23.7355 27.9262 23.562C27.9669 23.4202 28.0073 23.278 28.0474 23.1359C28.0595 23.103 28.0719 23.07 28.084 23.037V23.4185L28.0895 23.8011L27.3186 27.9847C27.2858 28.187 27.4181 28.3811 27.5889 28.3811H28.1686L28.3279 32.0906C28.3419 32.399 28.558 32.6512 28.8142 32.6553C29.0767 32.6598 29.3014 32.4046 29.314 32.0884L29.4627 28.3811H29.5284L29.6875 32.0906C29.7017 32.399 29.9178 32.6512 30.1741 32.6553C30.4364 32.6598 30.6611 32.4046 30.6738 32.0884L30.8224 28.3811H31.4083C31.5799 28.3811 31.7111 28.1867 31.6783 27.9838L30.9164 23.778L30.924 23.3549V22.2725C31.2273 22.4311 31.5363 22.5507 31.8628 22.6146C32.3955 22.6672 32.61 22.5014 32.61 22.5014C32.7197 22.4377 32.824 22.3485 32.9025 22.2352C32.9566 22.1664 32.9821 22.107 33.0038 22.0673C33.0236 22.0271 33.0342 22.0057 33.0342 22.0057C33.2143 21.6344 32.8884 21.1887 32.5623 21.3612L32.5082 21.3963L32.5108 21.363C32.5657 20.8948 32.6377 20.4191 32.7617 19.9701C32.8568 19.6258 33.0091 19.3031 33.1334 18.9732C33.2856 18.5692 33.428 18.1593 33.5446 17.7383C33.6835 17.2368 33.7873 16.7167 33.8139 16.1876H33.9454C34.0224 16.1876 34.0731 16.0851 34.0367 16.0033L33.9601 15.8309C34.3543 15.4248 34.7257 14.9249 34.9048 14.3284C35.0849 13.7294 35.0071 13.036 34.6934 12.5201C34.8858 12.8365 34.5201 12.2347 34.6934 12.5201Z" fill="#00B7C4" />
</svg>
