<svg width="40" height="40" viewBox="0 0 40 40" fill="none" xmlns="http://www.w3.org/2000/svg">
<rect width="40" height="40" fill="#BED8FF" part="react"/>
<path d="M11.5765 17.1639C12.4288 17.1639 13.1221 17.8195 13.1221 18.6256C13.1221 19.4316 12.4288 20.0872 11.5765 20.0872C10.7243 20.0872 10.031 19.4316 10.031 18.6256C10.031 17.8195 10.7243 17.1639 11.5765 17.1639ZM34.4735 25.1459H27.3182C26.9875 25.1459 26.714 25.3985 26.714 25.7173V26.6316C26.714 26.9444 26.9811 27.203 27.3182 27.203H34.4735C34.8043 27.203 35.0778 26.9504 35.0778 26.6316V25.7173C35.0778 25.4045 34.8043 25.1459 34.4735 25.1459ZM33.4495 27.9429H26.2942C25.9635 27.9429 25.69 28.1955 25.69 28.5143V29.4286C25.69 29.7414 25.9571 30 26.2942 30H33.4495C33.7803 30 34.0538 29.7474 34.0538 29.4286V28.5143C34.0474 28.1955 33.7803 27.9429 33.4495 27.9429ZM35.3958 19.5579H28.2405C27.9097 19.5579 27.6362 19.8105 27.6362 20.1293V21.0436C27.6362 21.3564 27.9034 21.615 28.2405 21.615H35.3958C35.7265 21.615 36 21.3624 36 21.0436V20.1293C36 19.8165 35.7265 19.5579 35.3958 19.5579ZM25.69 22.9203V23.8346C25.69 24.1474 25.9571 24.406 26.2942 24.406H33.4495C33.7803 24.406 34.0538 24.1534 34.0538 23.8346V22.9203C34.0538 22.6075 33.7866 22.3489 33.4495 22.3489H26.2942C25.9635 22.3549 25.69 22.6075 25.69 22.9203ZM34.8424 18.818C35.1732 18.818 35.4467 18.5654 35.4467 18.2466V17.3323C35.4467 17.0195 35.1795 16.7609 34.8424 16.7609H27.6935C27.3627 16.7609 27.0892 17.0135 27.0892 17.3323V18.2466C27.0892 18.5594 27.3564 18.818 27.6935 18.818H34.8424ZM26.0207 26.7398V25.609C26.0207 25.3564 25.8045 25.1459 25.531 25.1459H22.6243H10.1582C10.2281 24.785 10.2218 24.394 10.0882 23.991C9.87833 23.3474 9.37587 22.818 8.73984 22.5173C8.1865 22.2526 7.6586 22.2165 7.17522 22.3008V14.9083C7.754 15.0045 8.39639 14.9383 9.07058 14.5053C9.47764 14.2466 9.80837 13.8797 9.99918 13.4466C10.2154 12.9594 10.2409 12.4902 10.1582 12.0571H29.0609C28.9655 12.418 28.9528 12.809 29.0546 13.212C29.2772 14.1143 30.0468 14.8301 31.0072 15.0286C31.427 15.1128 31.8277 15.1008 32.1966 15.0105V15.582C32.1966 15.8406 32.4192 16.0511 32.6927 16.0511H33.8757C34.1492 16.0511 34.3718 15.8406 34.3718 15.582V12.406C34.3718 11.0767 33.2333 10 31.8277 10H7.54411C6.13849 10 5 11.0767 5 12.406V24.785C5 26.1143 6.13849 27.191 7.54411 27.191H22.6243H25.531C25.8045 27.203 26.0207 26.9985 26.0207 26.7398ZM19.6795 13.3383C22.7515 13.3383 25.2511 15.7023 25.2511 18.6075C25.2511 21.5128 22.7515 23.8767 19.6795 23.8767C16.6075 23.8767 14.1079 21.5128 14.1079 18.6075C14.1079 15.7023 16.6075 13.3383 19.6795 13.3383ZM21.454 16.406L18.9608 18.7519L17.9177 17.7594L16.8301 18.782L17.8732 19.7744L18.9545 20.803L20.0421 19.7805L22.5353 17.4346L21.454 16.406Z" fill="#0063F7" />
</svg>
