<svg width="40" height="40" viewBox="0 0 40 40" fill="none" xmlns="http://www.w3.org/2000/svg">
<rect width="40" height="40" fill="#FFEEDA" part="react"/>
<path d="M14.2195 14.6627C13.1984 14.5079 12.345 14.6541 11.6829 15.0972C11.2667 15.3758 10.9981 15.7268 10.8083 16.0231C10.5697 15.5903 10.4283 15.1566 10.5848 14.9008C10.6763 14.7513 10.6053 14.5651 10.4262 14.4851C10.2472 14.405 10.0279 14.4614 9.93639 14.6109C9.78952 14.851 9.7551 15.1458 9.83237 15.4922C9.55852 15.3393 9.25077 15.2657 8.93984 15.2845C8.56913 15.3068 8.2207 15.4627 7.95874 15.7233C7.87498 15.8067 7.80014 15.9004 7.73637 16.0017C7.70658 16.049 7.71287 16.1071 7.7522 16.1502C8.10751 16.5386 8.59621 16.7442 9.0929 16.7143C9.46363 16.692 9.8121 16.5361 10.074 16.2754C10.09 16.2594 10.1057 16.243 10.121 16.2263C10.1675 16.3129 10.2186 16.4016 10.2749 16.4926C10.2827 16.5051 10.2905 16.5175 10.2983 16.5299C10.2927 16.5311 10.2869 16.5322 10.2816 16.5333C9.85814 16.6184 9.21807 16.747 8.66715 17.1158C8.0051 17.5589 7.64487 18.225 7.59638 19.0958C7.54799 19.9653 7.94099 20.8422 8.70298 21.5651C9.44583 22.2697 10.4586 22.7493 11.5548 22.9155C12.7572 23.0977 13.9372 22.874 14.7925 22.3015C14.8793 22.2434 14.9634 22.1812 15.0425 22.1166C15.1888 21.9971 15.2748 21.874 15.3377 21.7841C15.3928 21.7051 15.4104 21.6826 15.4431 21.6607C15.4743 21.6399 15.4953 21.6335 15.5891 21.6102C15.7008 21.5824 15.8536 21.5443 16.0204 21.4565C16.1275 21.4001 16.2323 21.3378 16.3319 21.2711C17.1871 20.6987 17.7104 19.7824 17.7674 18.7571C17.8194 17.8223 17.4892 16.8859 16.8375 16.1203C16.169 15.3349 15.2392 14.8173 14.2195 14.6627ZM16.0526 16.5897C16.5747 17.2032 16.8393 17.9537 16.7976 18.7032C16.7535 19.4959 16.3606 20.1966 15.7197 20.6256C15.6478 20.6737 15.5723 20.7187 15.4952 20.7593C15.4383 20.7892 15.3764 20.8046 15.2981 20.8241C15.1693 20.8562 15.0089 20.896 14.8308 21.0152C14.6571 21.1315 14.5694 21.2571 14.4988 21.3582C14.4537 21.4226 14.4149 21.4782 14.3606 21.5226C14.3036 21.5691 14.2429 21.614 14.1802 21.656C13.5393 22.085 12.6385 22.2501 11.7088 22.1092C10.8299 21.976 10.0181 21.5917 9.42294 21.0271C8.83417 20.4686 8.52988 19.8019 8.5662 19.1498C8.60115 18.5218 8.84112 18.0546 9.27938 17.7613C9.66555 17.5028 10.1413 17.4072 10.524 17.3303C10.6442 17.3062 10.7451 17.2854 10.8315 17.2639C10.9488 17.4065 11.0476 17.5127 11.0528 17.5178C11.004 17.5407 10.9045 17.593 10.5659 17.6687L10.5417 17.6732C10.5229 17.6768 10.5084 17.6896 10.5053 17.7057C10.5021 17.7218 10.5106 17.7382 10.527 17.7473C10.6659 17.8244 10.8505 17.8545 11.0465 17.8321C11.2492 17.8089 11.445 17.7372 11.6129 17.6249C11.6939 17.5707 11.7668 17.508 11.8295 17.4386C12.0223 17.2252 12.0863 16.9724 12.0007 16.7624C11.9943 16.7465 11.9771 16.7354 11.9574 16.7342C11.9377 16.733 11.9193 16.7419 11.9109 16.7568C11.9049 16.7674 11.7268 17.0642 11.6157 17.1395C11.6132 17.1366 11.4673 16.9721 11.3891 16.8755C11.4283 16.8154 11.4696 16.7461 11.5173 16.6653C11.6918 16.3695 11.909 16.0012 12.2951 15.7428C12.7334 15.4494 13.3291 15.3573 14.0655 15.4689C14.8303 15.5848 15.536 15.9829 16.0526 16.5897Z" fill="#FF8800" />
<path fill-rule="evenodd" clip-rule="evenodd" d="M19.9369 23.1754L19.3387 23.2408C19.1836 23.2577 19.0283 23.2482 18.8787 23.2151C18.729 23.182 18.585 23.1255 18.4508 23.0492C18.1826 22.8967 17.9529 22.6652 17.7918 22.3792C17.6844 22.1887 17.6081 21.9736 17.573 21.746L16.3009 13.5308C16.1826 12.7662 16.2726 11.9963 16.5597 11.3181L17.3303 9.49712C17.2633 9.47536 17.1984 9.44711 17.1368 9.41209C16.958 9.31035 16.8052 9.15641 16.6976 8.96553C16.6259 8.83844 16.575 8.6946 16.5516 8.54333L16.3803 7.43691C16.3627 7.32353 16.3613 7.2107 16.3747 7.10316C16.388 6.99556 16.416 6.89324 16.4565 6.79915C16.5377 6.61095 16.6686 6.45479 16.8367 6.35056C16.9486 6.28115 17.0774 6.23554 17.2149 6.22058L22.2444 5.67102C22.3474 5.65972 22.4511 5.66605 22.551 5.68816C22.6509 5.71023 22.747 5.74795 22.8364 5.79876C23.0151 5.90051 23.168 6.05444 23.2756 6.24533C23.3473 6.37242 23.3982 6.51626 23.4216 6.66752L23.5929 7.77394C23.6105 7.88733 23.6118 8.00016 23.5985 8.10769C23.5852 8.21529 23.5572 8.31762 23.5167 8.41171C23.4356 8.59987 23.3046 8.75607 23.1365 8.86029L23.1308 8.86361L24.1995 10.1751C23.9959 10.4559 23.7953 10.7489 23.5986 11.0532L21.9863 9.07467L18.501 9.45549L17.4917 11.8404C17.2866 12.3249 17.2223 12.8748 17.3069 13.4209L17.3301 13.5707C17.7085 13.3725 18.1273 13.245 18.5512 13.1987C19.2579 13.1214 19.9968 13.2676 20.6791 13.6056L20.6852 13.6049L20.8277 13.6886C21.1898 13.8936 21.5763 14.0172 21.9635 14.0564C21.8099 14.3933 21.662 14.7376 21.5203 15.0884C21.1919 15.0156 20.8675 14.8994 20.5557 14.7442L20.5495 14.7449L20.4081 14.6679C19.8708 14.3637 19.2847 14.2472 18.723 14.3085C18.2939 14.3555 17.8843 14.5079 17.515 14.7656L18.5788 21.6361C18.5879 21.6946 18.6043 21.7484 18.6269 21.7984C18.6495 21.8483 18.6782 21.8944 18.7123 21.9357C18.7803 22.0183 18.8691 22.0807 18.9652 22.1125C19.0294 22.1337 19.0966 22.142 19.1675 22.1344L19.9196 22.0522C19.9079 22.4429 19.9137 22.8181 19.9369 23.1754ZM22.4157 6.77743L17.3862 7.327L17.5575 8.43342L17.7913 8.40787L22.3533 7.90939L22.587 7.88385L22.4157 6.77743Z" fill="#FF8800" />
<path fill-rule="evenodd" clip-rule="evenodd" d="M25.8695 24.4449C27.3636 22.9033 28.8539 20.5523 29.9391 17.7544C31.0244 14.9566 31.4691 12.3193 31.3431 10.3342C31.2798 9.33853 31.0759 8.55593 30.7819 8.00965C30.4882 7.46389 30.1582 7.24292 29.8829 7.16757C29.6077 7.09222 29.1861 7.10745 28.566 7.40305C27.9453 7.69893 27.2316 8.23036 26.4822 9.00361C24.9881 10.5452 23.4979 12.8962 22.4126 15.6941C21.3273 18.4919 20.8826 21.1292 21.0086 23.1143C21.0719 24.11 21.2758 24.8926 21.5698 25.4389C21.8636 25.9846 22.1935 26.2056 22.4688 26.2809C22.7441 26.3563 23.1657 26.3411 23.7858 26.0455C24.4065 25.7496 25.1201 25.2181 25.8695 24.4449ZM22.136 27.1388C24.7784 27.8621 28.7292 23.7858 30.9603 18.034C33.1915 12.2822 32.8581 7.03305 30.2157 6.30971C27.5733 5.58637 23.6225 9.66274 21.3914 15.4145C19.1602 21.1663 19.4936 26.4155 22.136 27.1388Z" fill="#FF8800" />
<path fill-rule="evenodd" clip-rule="evenodd" d="M30.0825 10.094C30.2923 10.2702 30.2923 10.5558 30.0825 10.732L29.6959 11.0568C29.5709 11.1618 29.4338 11.2562 29.2867 11.3386L29.1347 11.4238C28.7357 11.6472 28.267 11.7664 27.7876 11.7664C27.6838 11.7664 27.5858 11.7594 27.5069 11.7534C27.4915 11.7522 27.477 11.751 27.4631 11.7499C27.3996 11.7449 27.3503 11.7411 27.2999 11.7391C27.0391 11.729 26.6563 11.8034 26.424 12.1937C26.2914 12.4166 25.9688 12.5069 25.7035 12.3955C25.4383 12.2841 25.3307 12.0131 25.4634 11.7902C25.9376 10.9934 26.7941 10.8163 27.3495 10.8378C27.4278 10.8409 27.507 10.8471 27.5709 10.8522C27.583 10.8531 27.5944 10.8541 27.6052 10.8549C27.6805 10.8607 27.7367 10.8642 27.7876 10.8642C28.055 10.8642 28.3164 10.7977 28.5389 10.6731L28.6909 10.5879C28.7792 10.5385 28.8615 10.4818 28.9365 10.4188L29.3231 10.094C29.5328 9.91786 29.8728 9.91786 30.0825 10.094Z" fill="#FF8800" />
<path fill-rule="evenodd" clip-rule="evenodd" d="M29.0086 13.2522C29.2183 13.4284 29.2183 13.714 29.0086 13.8902L28.622 14.215C28.4969 14.32 28.3599 14.4144 28.2127 14.4968L28.0607 14.582C27.6618 14.8054 27.1931 14.9246 26.7136 14.9246C26.6099 14.9246 26.5118 14.9177 26.4329 14.9116C26.4176 14.9104 26.403 14.9092 26.3892 14.9081C26.3257 14.9031 26.2763 14.8993 26.2259 14.8973C25.9651 14.8872 25.5824 14.9616 25.35 15.3519C25.2174 15.5748 24.8948 15.6651 24.6296 15.5537C24.3643 15.4423 24.2568 15.1713 24.3894 14.9484C24.8636 14.1516 25.7201 13.9745 26.2755 13.996C26.3538 13.9991 26.4331 14.0053 26.497 14.0104C26.509 14.0113 26.5204 14.0123 26.5313 14.0131C26.6066 14.0189 26.6627 14.0224 26.7136 14.0224C26.981 14.0224 27.2424 13.9559 27.4649 13.8313L27.617 13.7461C27.7052 13.6967 27.7875 13.64 27.8625 13.577L28.2491 13.2522C28.4588 13.0761 28.7988 13.0761 29.0086 13.2522Z" fill="#FF8800" />
<path fill-rule="evenodd" clip-rule="evenodd" d="M28.4715 16.4104C28.6812 16.5866 28.6812 16.8723 28.4715 17.0484L28.0849 17.3732C27.9598 17.4782 27.8227 17.5726 27.6756 17.655L27.5236 17.7402C27.1247 17.9636 26.6559 18.0828 26.1765 18.0828C26.0728 18.0828 25.9747 18.0759 25.8958 18.0698C25.8804 18.0686 25.8659 18.0674 25.8521 18.0663C25.7885 18.0614 25.7392 18.0575 25.6888 18.0555C25.428 18.0454 25.0453 18.1198 24.8129 18.5101C24.6803 18.733 24.3577 18.8233 24.0924 18.7119C23.8272 18.6005 23.7196 18.3295 23.8523 18.1066C24.3265 17.3098 25.183 17.1327 25.7384 17.1542C25.8167 17.1573 25.896 17.1635 25.9599 17.1686C25.9719 17.1696 25.9833 17.1705 25.9942 17.1713C26.0695 17.1771 26.1256 17.1806 26.1765 17.1806C26.4439 17.1806 26.7053 17.1141 26.9278 16.9895L27.0799 16.9043C27.1681 16.8549 27.2504 16.7982 27.3254 16.7352L27.712 16.4104C27.9217 16.2343 28.2617 16.2343 28.4715 16.4104Z" fill="#FF8800" />
<path fill-rule="evenodd" clip-rule="evenodd" d="M6.64299 19.436C6.33419 19.436 6.089 19.6543 6.10688 19.9133L6.91334 31.5998C7.04507 33.5087 8.92617 34.9999 11.2023 34.9999H26.991C29.2671 34.9999 31.1482 33.5087 31.2799 31.5998L32.0864 19.9133C32.1042 19.6543 31.8591 19.436 31.5503 19.436H6.64299ZM9.46154 31.9995C9.20664 31.9995 9 32.2234 9 32.4995C9 32.7757 9.20664 32.9995 9.46154 32.9995H14.5385C14.7934 32.9995 15 32.7757 15 32.4995C15 32.2234 14.7934 31.9995 14.5385 31.9995H9.46154ZM9 30.4995C9 30.2234 9.20351 29.9995 9.45455 29.9995H13.5455C13.7965 29.9995 14 30.2234 14 30.4995C14 30.7757 13.7965 30.9995 13.5455 30.9995H9.45455C9.20351 30.9995 9 30.7757 9 30.4995ZM9.44444 27.9995C9.19898 27.9995 9 28.2234 9 28.4995C9 28.7757 9.19898 28.9995 9.44444 28.9995H12.5556C12.801 28.9995 13 28.7757 13 28.4995C13 28.2234 12.801 27.9995 12.5556 27.9995H9.44444Z" fill="#FF8800" />
</svg>
