<svg width="40" height="40" viewBox="0 0 40 40" fill="none" xmlns="http://www.w3.org/2000/svg">
<rect width="40" height="40" fill="#D7FEED" part="react"/>
<path d="M12.915 6.00788C12.915 5.45131 12.4637 5 11.907 5C11.3504 5 10.8992 5.45131 10.8992 6.00788V7.00101H12.915V6.00788Z" fill="#06C270" />
<path d="M15.0138 10.2066V8.97595C15.0138 8.66453 14.7614 8.41211 14.45 8.41211H9.36413C9.05272 8.41211 8.80029 8.66453 8.80029 8.97595V10.2065L15.0138 10.2066Z" fill="#06C270" />
<path d="M13.989 10.9121H9.82514C8.43292 10.9121 7.30029 12.0447 7.30029 13.437V20.2146C8.5208 20.5289 9.42514 21.6389 9.42514 22.9562C9.42514 24.2734 8.5208 25.3834 7.30029 25.6977V32.4753C7.30029 33.8675 8.43292 35.0001 9.82514 35.0001H13.989C15.3812 35.0001 16.5138 33.8675 16.5138 32.4753V25.6977C15.2933 25.3834 14.389 24.2734 14.389 22.9562C14.389 21.639 15.2933 20.529 16.5138 20.2146V13.4369C16.5138 12.0447 15.3812 10.9121 13.989 10.9121ZM12.782 32.168H11.032C10.6423 32.168 10.3265 31.8521 10.3265 31.4624C10.3265 31.0727 10.6423 30.7569 11.032 30.7569H12.782C13.1717 30.7569 13.4876 31.0727 13.4876 31.4624C13.4876 31.8521 13.1717 32.168 12.782 32.168ZM12.782 28.668H11.032C10.6423 28.668 10.3265 28.3521 10.3265 27.9624C10.3265 27.5727 10.6423 27.2569 11.032 27.2569H12.782C13.1717 27.2569 13.4876 27.5727 13.4876 27.9624C13.4876 28.3521 13.1717 28.668 12.782 28.668Z" fill="#06C270" />
<path d="M27.0504 24.4013C27.2644 24.1446 27.5231 23.8937 27.8237 23.6771C27.8945 23.158 28.1674 22.452 28.9762 21.7016C29.3402 21.3639 29.3616 20.7951 29.0239 20.4312C28.6864 20.0672 28.1175 20.0457 27.7535 20.3835C26.5434 21.506 26.1291 22.6317 26.0315 23.5144C26.4391 23.7624 26.7802 24.0772 27.0504 24.4013Z" fill="#06C270" />
<path d="M31.3266 24.4084C30.2755 23.9689 29.378 24.0612 28.5826 24.6907C27.9445 25.1958 27.6193 25.8676 27.6161 25.8743C27.4989 26.1198 27.2506 26.2774 26.9786 26.2774C26.9775 26.2774 26.9766 26.2774 26.9755 26.2774C26.7025 26.2762 26.4539 26.1191 26.3385 25.8715C26.3365 25.8675 26.0115 25.1957 25.3733 24.6906C24.9059 24.3207 24.4033 24.1362 23.8548 24.1362C23.4701 24.1362 23.0629 24.2271 22.6293 24.4082C21.7843 24.7616 21.2712 25.9586 21.2564 27.61C21.2346 30.0589 22.3466 33.2008 24.1811 34.0065C25.4406 34.5598 26.6675 34.0188 26.6795 34.0132C26.8676 33.9254 27.0846 33.925 27.2731 34.0116C27.3018 34.0243 28.5234 34.5562 29.7747 34.0064C31.6092 33.2007 32.7213 30.0588 32.6996 27.6099C32.6849 25.9587 32.1716 24.7617 31.3266 24.4084Z" fill="#06C270" />
</svg>
