<svg width="40" height="40" viewBox="0 0 40 40" fill="none" xmlns="http://www.w3.org/2000/svg">
<rect width="40" height="40" fill="#F0E1D6" part="react"/>
<path d="M26.2986 25.3864C26.1971 26.4134 25.3627 26.7613 24.5567 27.1036C24.055 27.3204 23.5363 27.5372 23.0965 27.9195C22.6399 28.8153 22.0593 29.5512 21.4336 30.0134C21.366 30.059 21.3039 30.1047 21.2363 30.1446V30.9718H16.5911V30.1388C16.5235 30.0989 16.4558 30.0533 16.3938 30.0076C15.4918 29.3458 14.68 28.102 14.1783 26.6016C13.8626 25.6602 13.6879 24.6675 13.6879 23.8117C13.6879 23.6634 13.6935 23.5151 13.7048 23.3666L13.7217 23.1099H24.1L24.1169 23.3666C24.1225 23.3894 24.1225 23.418 24.1225 23.4408C25.0076 23.4636 25.5882 23.6634 25.9433 24.0628C26.2365 24.388 26.3549 24.8329 26.2986 25.3864ZM14.3474 25.0041H23.4799C23.5532 24.5876 23.587 24.1882 23.587 23.8174C23.587 23.7717 23.587 23.7204 23.587 23.669H14.2402C14.2402 23.7204 14.2402 23.766 14.2402 23.8174C14.2402 24.1825 14.274 24.5819 14.3474 25.0041ZM25.3514 24.599C25.1542 24.3823 24.7426 24.2624 24.1169 24.2453C24.0831 24.7987 23.9873 25.3864 23.8294 25.974C23.773 26.1965 23.7054 26.419 23.6321 26.6358C23.8463 26.5331 24.055 26.4418 24.2523 26.3619C25.0415 26.031 25.4587 25.8313 25.5094 25.3065C25.5432 24.987 25.4924 24.753 25.3514 24.599ZM21.0332 21.678C21.4617 21.678 21.8112 21.3242 21.8112 20.8906C21.8112 20.8107 21.7999 20.7308 21.7774 20.6567C22.3073 20.6453 22.7357 20.206 22.7357 19.6698C22.7357 19.1277 22.3073 18.6884 21.7718 18.6828V18.9681C22.1495 18.9737 22.4539 19.2876 22.4539 19.6699C22.4539 20.0578 22.1439 20.3717 21.7605 20.3717C21.7098 20.3717 21.6646 20.366 21.6195 20.3546C21.6082 20.3489 21.5913 20.3489 21.5801 20.3489C21.4899 20.3489 21.4167 20.4231 21.4167 20.5143C21.4167 20.5486 21.428 20.5828 21.4449 20.6057C21.4956 20.6855 21.5294 20.7825 21.5294 20.8852C21.5294 21.159 21.3095 21.3872 21.0333 21.3872H20.013C19.624 21.3872 19.3139 21.701 19.3139 22.0947V22.6595H19.5958V22.1004C19.5958 21.8664 19.7819 21.6782 20.013 21.6782H21.0332V21.678ZM20.2554 20.5882C20.1482 20.4513 20.0919 20.2801 20.0919 20.0918C20.0919 19.6411 20.4527 19.2759 20.8981 19.2759H20.9601V18.9906H20.8981C20.3005 18.9906 19.8101 19.487 19.8101 20.0917C19.8101 20.2571 19.8439 20.4112 19.9115 20.5481H19.7143C18.8912 20.5481 18.2317 21.2213 18.2317 22.0429V22.6648H18.5136V22.0429C18.5136 21.3754 19.0492 20.839 19.7031 20.839H20.1202C20.2048 20.839 20.2781 20.7648 20.2781 20.6736C20.2779 20.6395 20.2723 20.611 20.2554 20.5882ZM5 13.0723C5 14.7202 6.14583 16.1207 7.61905 16.6357V32.8313H5V35H35V32.8313H32.381V16.633C33.9155 16.1577 34.9642 14.7781 35 13.0723V12.1084H5V13.0723ZM12.5345 12.9935C12.5345 13.7739 13.3387 16.7851 16.3115 16.7851C18.8936 16.7851 20.0261 14.4218 20.0261 12.9935C20.0261 14.3251 20.9082 16.7823 23.7718 16.7823C26.359 16.7823 27.5055 14.2523 27.5055 12.9935C27.5055 14.7314 28.6633 16.1761 30.2381 16.6265V32.8313H9.7619V16.6378C11.3574 16.2007 12.5345 14.7464 12.5345 12.9935ZM31.2895 7.40964H31.3095V5H8.80952V7.40964L5 11.2651H35L31.2895 7.40964Z" fill="#634133" />
</svg>
