<svg width="40" height="40" viewBox="0 0 40 40" fill="none" xmlns="http://www.w3.org/2000/svg">
<rect width="40" height="40" fill="#DBFDFF" part="react"/>
<path d="M22.9502 10.8143L23.4659 9.65346C23.8916 8.6944 24.5967 7.94084 25.4649 7.49121H21.6856C22.003 8.10802 21.9678 8.79246 21.4268 9.46954C22.1954 9.46954 22.8145 10.058 22.9502 10.8143Z" fill="#00B7C4" />
<path d="M33.3995 7.49121H29.8301C31.1768 8.64047 31.0254 10.1959 29.9445 10.6795L29.4102 10.9185C32.1621 10.9185 32.1437 10.646 32.1437 12.4723C32.5098 13.2878 32.4825 14.2216 32.1437 15.0167V24.7458C32.1437 25.1608 31.8301 25.4973 31.4434 25.4973H8.55669C8.17001 25.4973 7.85647 25.1609 7.85647 24.7458V14.1976C7.46099 13.574 7.59085 12.9807 7.59085 11.1324C7.59085 10.2205 8.27836 9.46954 9.14259 9.46954C8.67089 8.96382 8.53229 8.18037 8.88577 7.49121H6.60054C5.71682 7.49121 5 8.26049 5 9.20902V27.3792C5 28.3277 5.71682 29.097 6.6006 29.097H17.209L15.7803 32.7864H15.125C14.5557 32.7864 14.0938 33.2822 14.0938 33.8933C14.0938 34.5043 14.5557 35 15.125 35H24.875C25.4444 35 25.9063 34.5043 25.9063 33.8933C25.9063 33.2822 25.4444 32.7864 24.875 32.7864H24.2198L22.7911 29.097H33.3995C34.2832 29.097 35 28.3277 35 27.3792V9.20902C35.0001 8.26049 34.2832 7.49121 33.3995 7.49121ZM28.2227 27.9856C27.8086 27.9856 27.4727 27.625 27.4727 27.1806C27.4727 26.7362 27.8086 26.3756 28.2227 26.3756C28.6368 26.3756 28.9728 26.7362 28.9728 27.1806C28.9728 27.625 28.6368 27.9856 28.2227 27.9856ZM30.6602 27.9856C30.2461 27.9856 29.9102 27.625 29.9102 27.1806C29.9102 26.7362 30.2461 26.3756 30.6602 26.3756C31.0743 26.3756 31.4102 26.7362 31.4102 27.1806C31.4102 27.625 31.0744 27.9856 30.6602 27.9856Z" fill="#00B7C4" />
<path d="M10.6465 9.56485C10.4932 9.87511 10.3653 10.2016 10.2676 10.5427C9.52927 10.5427 8.5909 10.3598 8.5909 11.1323C8.5909 14.1152 8.30773 13.8569 10.2666 13.8569C10.3653 14.1981 10.4932 14.5251 10.6465 14.8353C9.48148 16.0852 9.32904 15.9694 10.3204 17.0327C10.9405 16.3126 11.5225 16.1847 13.3457 15.3693C12.3848 14.6896 11.7481 13.5246 11.7481 12.2003C11.7481 10.1067 13.335 8.40351 15.2852 8.40351C17.4834 8.40351 19.1954 10.5579 18.7529 12.9507L21.9804 11.5064C21.9804 10.3865 21.7002 10.5427 20.3036 10.5427C20.206 10.2015 20.0771 9.87451 19.9238 9.56424C20.4453 9.00406 21.2314 8.41917 20.7226 7.87309C18.746 5.7512 19.1269 5.73386 17.7402 7.22165C17.4511 7.05711 17.1474 6.91929 16.8281 6.81501C16.8281 6.02421 16.998 5.0154 16.2802 5.0154C13.5009 5.0154 13.7421 4.7104 13.7421 6.81501C13.4238 6.91929 13.1191 7.05711 12.83 7.22165C12.3085 6.66147 11.7646 5.8193 11.2548 6.3643C9.29106 8.47114 9.25786 8.07543 10.6465 9.56485Z" fill="#00B7C4" />
<path d="M15.2851 9.47656C13.8858 9.47656 12.748 10.6981 12.748 12.2001C12.748 13.4442 13.5332 14.4849 14.5967 14.8094L17.4951 13.5129C18.4609 11.6446 17.166 9.47656 15.2851 9.47656Z" fill="#00B7C4" />
<path d="M23.5457 11.9687L11.7049 17.2655C9.42168 18.2868 10.8299 22.048 13.159 21.0083L25.0008 15.7121C28.0868 16.8725 28.2137 17.0176 30.5409 15.4339C31.8192 14.5634 31.5262 12.386 30.742 12.7339L28.6678 13.661C28.3056 13.8234 27.8866 13.6399 27.7343 13.2475C26.6834 10.5433 26.5244 11.0459 29.5595 9.68859C30.3203 9.3485 29.122 7.57244 27.6307 7.94189L26.6014 8.19397C24.7694 8.64307 24.3563 10.1403 23.5457 11.9687Z" fill="#00B7C4" />
</svg>
