<svg width="40" height="40" viewBox="0 0 40 40" fill="none" xmlns="http://www.w3.org/2000/svg">
<rect width="40" height="40" fill="#FFFBEA" part="react"/>
<path fill-rule="evenodd" clip-rule="evenodd" d="M26.1539 10.4204L8.71829 10.3521C7.13837 10.3459 5.88854 11.5701 6.00789 13.0069L7.28843 28.4226C7.39536 29.7098 8.57175 30.7045 9.98721 30.7045H13.9059V34.8817C13.9059 35.4145 14.5966 35.6969 15.0328 35.3424L20.4034 30.9767C20.5011 30.8973 20.5654 30.8033 20.5999 30.7045H28.6707C30.0779 30.7045 31.2503 29.7211 31.3678 28.4422L32.4638 16.5095L27.5645 21.281C27.2635 21.5742 26.853 21.5807 26.5585 21.4277C26.2617 21.2736 26.0245 20.9233 26.1218 20.4967L27.5798 14.1067L25.6811 14.1847C25.0675 14.21 24.5696 13.5761 24.875 12.9678L26.1539 10.4204ZM12.3333 15.4995C12.1492 15.4995 12 15.9472 12 16.4995C12 17.0518 12.1492 17.4995 12.3333 17.4995H20.6667C20.8508 17.4995 21 17.0518 21 16.4995C21 15.9472 20.8508 15.4995 20.6667 15.4995H12.3333ZM10 20.4995C10 19.9472 10.1492 19.4995 10.3333 19.4995H23.6667C23.8508 19.4995 24 19.9472 24 20.4995C24 21.0518 23.8508 21.4995 23.6667 21.4995H10.3333C10.1492 21.4995 10 21.0518 10 20.4995ZM10.3714 23.4995C10.1663 23.4995 10 23.9472 10 24.4995C10 25.0518 10.1663 25.4995 10.3714 25.4995H22.6286C22.8337 25.4995 23 25.0518 23 24.4995C23 23.9472 22.8337 23.4995 22.6286 23.4995H10.3714ZM26 24.4995C26 23.9472 26.1492 23.4995 26.3333 23.4995H28.6667C28.8508 23.4995 29 23.9472 29 24.4995C29 25.0518 28.8508 25.4995 28.6667 25.4995H26.3333C26.1492 25.4995 26 25.0518 26 24.4995Z" fill="#FFCC00"/>
<path fill-rule="evenodd" clip-rule="evenodd" d="M29.5181 6.10072C29.4018 6.11041 29.2995 6.17817 29.2489 6.27899L26.0332 12.6842C25.9249 12.9 26.0956 13.1485 26.3452 13.1383L28.6958 13.0417L27.2189 19.5141C27.1481 19.8246 27.5449 20.0306 27.7774 19.8042L35.481 12.3003C35.6867 12.0999 35.4932 11.8003 35.2 11.8003H32.7L35.8277 6.06732C35.9524 5.84539 35.77 5.57952 35.508 5.60136L29.5181 6.10072Z" fill="#FFCC00"/>
</svg>
