<svg width="40" height="40" viewBox="0 0 40 40" fill="none" xmlns="http://www.w3.org/2000/svg">
<rect width="40" height="40" fill="#FFE2E2" part="react"/>
<path d="M31.1398 11.0199H30.5571V10.0657C30.5571 9.83368 30.3746 9.64564 30.1495 9.64564H27.8668C27.6417 9.64564 27.4592 9.83368 27.4592 10.0657V11.0199H25.4347V9.95433C25.4347 8.32534 24.1488 7 22.5683 7H17.4316C15.851 7 14.5651 8.32534 14.5651 9.95433V11.0199H12.5408V10.0657C12.5408 9.83368 12.3583 9.64564 12.1332 9.64564H9.85054C9.62538 9.64564 9.44293 9.83368 9.44293 10.0657V11.0199H8.86022C6.72826 11.0199 5 12.8011 5 14.9984V29.0215C5 31.2188 6.72826 33 8.86022 33H31.1398C33.2717 33 35 31.2188 35 29.0215V14.9984C35 12.8011 33.2717 11.0199 31.1398 11.0199ZM16.1955 9.95433C16.1955 9.25192 16.7501 8.68041 17.4316 8.68041H22.5683C23.2498 8.68041 23.8043 9.25192 23.8043 9.95433V11.0199H16.1955V9.95433ZM20 29.1761C16.16 29.1761 13.047 25.9676 13.047 22.0099C13.047 18.0522 16.16 14.8438 20 14.8438C23.84 14.8438 26.953 18.0522 26.953 22.0099C26.953 25.9676 23.84 29.1761 20 29.1761ZM25.2198 23.7698C25.2198 23.8812 25.1771 23.9881 25.1008 24.0671C25.0243 24.1459 24.9208 24.1903 24.8127 24.1904L22.1201 24.193V26.968C22.1201 27.2001 21.9376 27.3881 21.7124 27.3881H18.2876C18.0624 27.3881 17.8799 27.2001 17.8799 26.968V24.197L15.1914 24.1995C15.1912 24.1995 15.1912 24.1995 15.191 24.1995C15.0831 24.1995 14.9796 24.1553 14.9031 24.0768C14.8266 23.998 14.7836 23.8913 14.7834 23.7799L14.7803 20.2502C14.7802 20.0181 14.9624 19.8299 15.1876 19.8298L17.8801 19.8273V17.0519C17.8801 16.8198 18.0626 16.6318 18.2877 16.6318H21.7124C21.9376 16.6318 22.1201 16.8198 22.1201 17.0519V19.8229L24.8086 19.8204C24.8088 19.8204 24.809 19.8204 24.809 19.8204C25.034 19.8204 25.2164 20.0082 25.2166 20.2401L25.2198 23.7698Z" fill="#EA5353"/>
</svg>
