<svg width="40" height="40" viewBox="0 0 40 40" fill="none" xmlns="http://www.w3.org/2000/svg">
<rect width="40" height="40" fill="#DAD4FC" part="react"/>
<path fill-rule="evenodd" clip-rule="evenodd" d="M13.0341 29.3872L5.92507 12.7058L19.8407 6.77539L21.8107 11.3979C18.9763 11.9606 16.533 13.6095 14.9327 15.8925L13.4352 12.3787L8.8543 14.3309L12.1827 22.1409L12.9483 21.8146C12.9436 21.9478 12.9412 22.0816 12.9412 22.2159C12.9412 23.1481 13.0568 24.0532 13.2745 24.9178L12.3667 25.3047L12.6982 26.0825L13.5144 25.7347C13.7325 26.3831 14.0092 27.0045 14.3382 27.5927L13.4949 27.9521L13.8264 28.73L14.7841 28.3218C15.2614 29.0386 15.8204 29.6963 16.4477 30.2816L13.0338 31.7366C13.3408 31.0109 13.3666 30.1674 13.0341 29.3872ZM15.6352 13.2693L19.9136 11.446L19.5821 10.6681L15.3037 12.4915L15.6352 13.2693ZM8.28034 31.4128L5 23.7155L8.97592 22.0211L12.2563 29.7184C12.7241 30.8162 12.2134 32.0856 11.1155 32.5535C10.0176 33.0214 8.74823 32.5107 8.28034 31.4128Z" fill="#484DB5"/>
<path d="M23.9705 12.0688C18.3756 12.0688 13.8235 16.6209 13.8235 22.2159C13.8235 27.8109 18.3756 32.363 23.9705 32.363C29.5655 32.363 34.1176 27.8109 34.1176 22.2159C34.1176 16.6209 29.5655 12.0688 23.9705 12.0688ZM31.9896 25.5641C30.9921 27.9446 28.9641 29.7903 26.4662 30.5405C26.5109 30.4573 26.5543 30.3732 26.5963 30.2882C26.8109 29.854 27.0364 29.5477 27.4148 29.2423C27.7045 29.0084 28.2731 28.6462 28.1802 28.1894C28.1131 27.8592 27.7362 27.7238 27.4514 27.6431C26.9995 27.515 26.516 27.4819 26.0497 27.4496C25.6458 27.4213 25.2265 27.4357 24.8322 27.3352C24.2422 27.185 24.1092 26.6742 24.0718 26.1358C24.0386 25.6572 24.0457 25.1652 23.8103 24.732C23.5072 24.1746 22.8097 24.0161 22.2312 23.9629C21.743 23.9182 21.2553 23.9418 20.7696 23.8604C20.3024 23.7821 19.8599 23.618 19.3801 23.6366C18.7583 23.6606 18.4791 24.0821 18.2138 24.5695C18.0829 24.8102 17.2559 26.6612 16.7701 27.0763C15.9322 25.8394 15.4052 24.376 15.3002 22.7988C15.3689 22.7803 15.437 22.7547 15.5061 22.7203C15.7764 22.5861 15.9658 22.3438 16.26 22.2478C16.5404 22.1564 16.9028 22.2375 17.1894 22.2656C17.4745 22.2935 17.7641 22.323 18.0495 22.2842C18.6192 22.2063 18.9211 21.8128 19.0121 21.2635C19.0662 20.9353 19.024 20.6053 19.0337 20.2749C19.0492 19.76 19.387 19.5753 19.8526 19.5315C20.7321 19.4489 22.7835 19.682 22.8251 18.3285C22.8428 17.7495 22.1537 17.4508 21.7049 17.2962C20.831 16.9956 19.8762 17.1006 18.9824 16.8917C18.507 16.7806 18.1061 16.4841 17.7698 16.1336C19.3483 14.5252 21.5446 13.5255 23.9705 13.5255C24.4894 13.5255 24.9973 13.5713 25.4911 13.659C25.2386 13.7059 24.9894 13.7725 24.7469 13.8704C23.4676 14.3862 23.4291 15.8377 23.9882 16.928C24.335 17.6042 24.8967 18.1708 25.4833 18.6419C26.0512 19.0977 26.6717 19.3671 27.3014 19.7129C28.1368 20.1723 28.036 21.3719 28.2473 22.1802C28.4256 22.8618 28.8536 23.4369 29.5283 23.6728C29.9363 23.8154 30.4154 23.7041 30.7726 23.9883C31.0793 24.2317 31.1514 24.73 31.3267 25.0648C31.5014 25.3989 31.7338 25.5396 31.9896 25.5641Z" fill="#484DB5"/>
</svg>
