<svg width="40" height="40" viewBox="0 0 40 40" fill="none" xmlns="http://www.w3.org/2000/svg">
<rect width="40" height="40" fill="#DBFDFF" part="react"/>
<path d="M14.6 21.8C14.1031 21.1391 13.1609 21.0031 12.5 21.5C11.8391 21.9969 11.7031 22.9391 12.2 23.6L13.9859 25.9813C14.2109 26.2813 14.1781 26.6984 13.9156 26.9609L13.3156 27.5609C13.0016 27.875 12.4906 27.8516 12.2094 27.5094L8 22.4562V15.5C8 14.6703 7.32969 14 6.5 14C5.67031 14 5 14.6703 5 15.5V25.7375C5 26.2484 5.17344 26.7453 5.49219 27.1437L10.3719 33.4391C10.6062 33.7438 10.7656 34.0906 10.8594 34.4562C10.9437 34.7797 11.2391 35 11.5766 35H17.75C18.1625 35 18.5 34.6625 18.5 34.25V29C18.5 27.7016 18.0781 26.4406 17.3 25.4L14.6 21.8V21.8ZM33.5 14C32.6703 14 32 14.6703 32 15.5V22.4562L27.7906 27.5094C27.5094 27.8469 26.9938 27.8703 26.6844 27.5609L26.0844 26.9609C25.8219 26.6984 25.7891 26.2813 26.0141 25.9813L27.8 23.6C28.2969 22.9391 28.1609 21.9969 27.5 21.5C26.8391 21.0031 25.8969 21.1391 25.4 21.8L22.7 25.4C21.9219 26.4406 21.5 27.7016 21.5 29V34.25C21.5 34.6625 21.8375 35 22.25 35H28.4234C28.7563 35 29.0563 34.7797 29.1406 34.4562C29.2344 34.0906 29.3938 33.7438 29.6281 33.4391L34.5078 27.1437C34.8266 26.7453 35 26.2484 35 25.7375V15.5C35 14.6703 34.3297 14 33.5 14Z" fill="#00B7C4"/>
<path d="M13.2441 5.15051C11.4553 5.16739 10.0137 6.63644 10.0306 8.42526C10.0475 10.214 11.5165 11.6556 13.3053 11.6387C13.5279 11.6366 13.7449 11.612 13.9545 11.5671L17.7132 18.4855C17.1174 19.0803 16.7511 19.9042 16.7596 20.8106C16.7765 22.5995 18.2455 24.041 20.0344 24.0242C21.8231 24.0073 23.2647 22.5382 23.2478 20.7494C23.2399 19.9132 22.9146 19.153 22.3878 18.5821L25.1983 13.8849C25.4671 13.9544 25.749 13.9907 26.0396 13.9879C27.8284 13.9711 29.27 12.502 29.2531 10.7132C29.2362 8.92444 27.7672 7.48287 25.9783 7.49975C24.728 7.51156 23.648 8.23338 23.1164 9.27753L16.501 8.05712C16.3302 6.41323 14.9293 5.1346 13.2441 5.15051ZM21.2096 20.7686C21.2159 21.4335 20.6801 21.9797 20.0151 21.9859C19.3502 21.9922 18.8041 21.4564 18.7978 20.7914C18.7915 20.1264 19.3274 19.5803 19.9924 19.574C20.6573 19.5678 21.2034 20.1037 21.2096 20.7686ZM20.8143 17.6389C20.5455 17.5694 20.2637 17.5331 19.9731 17.5359C19.7506 17.538 19.5335 17.5626 19.3239 17.6075L15.5652 10.6891C15.8071 10.4476 16.0107 10.1682 16.1672 9.86088L22.7827 11.0813C22.8569 11.7959 23.1633 12.4415 23.6249 12.9417L20.8143 17.6389ZM27.2148 10.7325C27.2211 11.3974 26.6852 11.9435 26.0203 11.9498C25.3553 11.956 24.8092 11.4202 24.803 10.7552C24.7967 10.0903 25.3325 9.54422 25.9975 9.53794C26.6625 9.53166 27.2085 10.0675 27.2148 10.7325ZM13.2861 9.60055C12.6212 9.60682 12.0751 9.07098 12.0688 8.40602C12.0625 7.7411 12.5984 7.19497 13.2633 7.18869C13.9283 7.18241 14.4744 7.7183 14.4806 8.38326C14.4869 9.04818 13.951 9.59427 13.2861 9.60055Z" fill="#00B7C4"/>
</svg>
