<svg width="40" height="40" viewBox="0 0 40 40" fill="none" xmlns="http://www.w3.org/2000/svg">
<rect width="40" height="40" fill="#F0E1D6" part="react"/>
<path fill-rule="evenodd" clip-rule="evenodd" d="M33.725 12.9798C33.8789 13.0433 33.9998 13.1698 34.0583 13.3286C34.1169 13.4875 34.1078 13.664 34.0333 13.8155C33.2093 15.4911 31.6177 16.532 29.8796 16.532C29.6273 16.532 29.3767 16.5098 29.1287 16.4675L28.3227 20.2729L26.5 21.5996C26.4468 21.6323 26.3245 21.714 26.1608 21.8234C25.5214 22.2506 24.2509 23.0996 24 23.0996H19C18.5607 23.0996 17.3494 21.8647 16.7227 21.2258C16.6361 21.1375 16.5607 21.0606 16.5 20.9999L15.5 19.9999C15.2936 19.7827 14.7302 19.8042 14.5 20C14.3671 20.113 14.221 20.2622 13.9288 20.5606C13.7149 20.779 13.4226 21.0774 13 21.5C12 22.5 12.5 23 13.5 22.5996C13.5 22.5996 15 22 15 23.5C15 23.8633 14.913 24.1703 14.7811 24.4269L9.87896 28.1912L10.3427 30.7967C10.3742 30.9738 10.3272 31.1561 10.2145 31.2944C10.1017 31.4325 9.93475 31.5125 9.75874 31.5125H9.01278C8.72652 31.5125 8.48101 31.3034 8.42911 31.0155L7.6968 26.9536C7.66706 26.7887 7.7053 26.6185 7.80251 26.4836L9.46641 24.1718C8.44052 22.0839 8.54108 20.4397 8.82009 19.4082C9.07668 18.4596 9.51547 17.8563 9.7197 17.6128C7.75239 17.1285 6.03665 15.7983 5.06793 13.9076C4.9158 13.6106 5.02777 13.2437 5.31812 13.0881C5.60834 12.9324 5.96702 13.047 6.11928 13.344C7.20288 15.4589 9.40798 16.7329 11.7355 16.5898L23.0911 16.0475L26.1554 7.40026C26.2431 7.1527 26.4752 6.99101 26.734 7.00039C26.9912 7.00949 27.2133 7.18717 27.284 7.44026L27.6942 8.90846L28.3577 8.15979C28.5162 7.98097 28.7633 7.9152 28.9869 7.99223C29.2106 8.06933 29.3683 8.2746 29.3887 8.51507L29.5282 10.1585C30.3445 10.3742 30.979 11.0584 31.1396 11.9128L33.725 12.9798Z" fill="#634133"/>
<path d="M13.1673 31.4848C13.2131 31.768 13.4847 31.9999 13.7711 31.9999H15.1741C15.4609 31.9999 15.7058 31.7653 15.7193 31.4791L15.7282 31.2878C15.7412 31.0013 15.583 30.6046 15.3759 30.4063L15.2304 30.2667C15.0233 30.0687 15.0395 29.7631 15.2661 29.5878L16.764 28.0275C16.9903 27.8525 17.2808 27.9188 17.4088 28.1754L19.0855 31.5335C19.2139 31.7897 19.5527 31.9999 19.8392 31.9999H20.9403C21.2265 31.9999 21.4425 31.7659 21.4203 31.4801L21.4161 31.43C21.3934 31.1445 21.1834 30.7748 20.9495 30.6096L20.4623 30.2648C20.2284 30.0991 19.9958 29.5098 20.1365 29.26C20.1365 29.26 20.2618 28.8979 21.156 28.8979H23.1367C23.3401 28.9002 23.4016 29.1143 23.5123 29.3785L24.4135 31.5197C24.5249 31.7835 24.8501 31.9999 25.1366 31.9999H26.5111C26.7979 31.9999 27.019 31.787 27.0034 31.5269C26.9875 31.2666 26.7909 30.9074 26.5667 30.7289L25.6139 29.9704C25.39 29.7919 24.9886 28.928 25.2149 28.8336L26.1233 28.2376C26.423 28.0748 26.6426 28.0097 26.8519 28.2052L30.5336 31.644C30.7434 31.8397 31.1488 32 31.4352 32H32.4791C32.7658 32 33 31.7998 33 31.5553C33 31.3109 32.7887 31.0094 32.5308 30.8852L31.6809 30.4766C31.4225 30.3522 31.0871 30.0522 30.9352 29.8089L28.6531 26.1616C28.501 25.9189 28.5732 25.5922 28.8136 25.4363L29.5303 24.9711C29.7708 24.8152 30.2017 24.6876 30.4879 24.6876H30.8481C31.1342 24.6876 31.693 24.5078 31.8772 24.2884L32.2667 23.8247C32.4509 23.6051 32.4564 23.2414 32.2791 23.016C32.2791 23.016 30.4824 21.2696 30.4824 20.983V20.3049C30.4824 20.0183 30.2886 19.9151 30.0512 20.076L24.9864 23.5061C24.7491 23.6668 24.3207 23.7984 24.0342 23.7984H18.7492C18.4632 23.7984 18.0756 23.6206 17.8878 23.4038L15.359 20.6307C15.1713 20.4135 14.8466 20.3962 14.6373 20.592L13.4089 21.7383C13.1997 21.9339 13.2514 22.0223 13.5241 21.9339L14.3378 21.6713C14.6106 21.5834 14.9664 21.7041 15.1293 21.9404L16.339 23.7416C16.5015 23.9778 16.4621 24.3297 16.2507 24.523L14.3789 26.7154C14.1679 26.9089 13.9164 27.2884 13.8205 27.5587L13.1098 29.5589C13.0141 29.8288 12.9729 30.2817 13.0187 30.5647L13.1673 31.4848Z" fill="#634133"/>
</svg>
