<svg width="40" height="40" viewBox="0 0 40 40" fill="none" xmlns="http://www.w3.org/2000/svg">
<rect width="40" height="40" fill="#FFEEDA" part="react"/>
<path d="M12.1283 19.6428C12.0955 19.6701 12.0762 19.7098 12.0762 19.7519V23.9941C12.0762 24.0561 12.1179 24.1106 12.1795 24.1305L15.072 25.0477C15.0876 25.0526 15.1038 25.0551 15.1199 25.0551C15.1512 25.0551 15.1825 25.0457 15.2081 25.0278C15.2477 25.0005 15.2712 24.9574 15.2712 24.9113V20.1548C15.2712 20.0833 15.2165 20.0228 15.1418 20.0124L12.2493 19.6096C12.206 19.6031 12.1617 19.6156 12.1283 19.6428Z" fill="#FF8800"/>
<path d="M10.6411 19.3879L8.60234 19.1052C8.55905 19.0987 8.51469 19.1116 8.48184 19.1384C8.44848 19.1657 8.42969 19.2053 8.42969 19.2475V22.8373C8.42969 22.8993 8.4714 22.9539 8.53297 22.9737L10.5717 23.6201C10.5874 23.625 10.6035 23.6275 10.6192 23.6275C10.6504 23.6275 10.6818 23.6181 10.7078 23.6002C10.747 23.573 10.7704 23.5298 10.7704 23.4837V19.5298C10.7704 19.4583 10.7156 19.3978 10.6411 19.3879Z" fill="#FF8800"/>
<path d="M29.423 16.2302L23.0956 8.17263C23.0956 8.17263 23.0351 8.08185 22.8953 8.02876C22.7555 7.97519 22.6194 8.01288 22.6194 8.01288L12.6777 10.436V9.59971C12.6777 9.39882 12.5321 9.22472 12.3267 9.17909L11.4958 8.99656C11.4958 8.99656 11.4421 8.98266 11.3665 8.98663C11.2909 8.9906 11.2423 9.00994 11.2423 9.00994L9.74391 9.51489C9.56294 9.57588 9.44193 9.73859 9.44193 9.92112V11.2252L7.86842 11.6081C7.74166 11.6394 7.63526 11.7207 7.57582 11.8318L5.049 16.5948C4.97856 16.7273 4.98432 16.8845 5.06464 17.0115C5.14496 17.1385 5.28838 17.2174 5.44434 17.2209L6.64181 17.2447V25.6967C6.64181 25.8579 6.73568 26.0052 6.88588 26.0791L17.2683 31.2175C17.2683 31.2175 17.3585 31.2651 17.4769 31.2666C17.5953 31.2676 17.6866 31.2175 17.6866 31.2175L27.7468 26.2343C27.8965 26.1599 27.9903 26.0131 27.9908 25.8519L28.0086 16.8512L29.0277 16.9182C29.0277 16.9182 29.2942 16.947 29.4444 16.7148C29.6102 16.4609 29.423 16.2302 29.423 16.2302ZM17.0248 30.1242L7.54927 25.4347V17.2625L15.1112 17.4138C15.1112 17.4138 15.1112 17.4138 15.1117 17.4138H15.1127L17.0253 17.4465V30.1243H17.0248V30.1242ZM27.5877 15.9594C27.462 15.951 27.3389 15.9926 27.2471 16.074C27.1553 16.1553 27.1032 16.2699 27.1026 16.389L27.0849 25.59L24.4882 26.8767V18.9024C24.4882 18.8617 24.4704 18.8235 24.4391 18.7962C24.4078 18.7689 24.3666 18.7556 24.3244 18.759L21.8262 18.9564C21.7479 18.9629 21.6874 19.0254 21.6874 19.0998V28.2631L17.9312 30.1237V17.0229C17.9312 16.7873 17.733 16.5958 17.4858 16.5913L16.0839 16.567L22.7096 9.12353L28.1045 15.9931L27.5877 15.9594Z" fill="#FF8800"/>
<path d="M28.1307 31.1983C28.1923 31.1788 28.2459 31.1355 28.2798 31.0772L31.2963 26.0127C31.7025 26.0904 32.1215 26.0841 32.5339 25.9886C33.3399 25.802 34.0224 25.2987 34.4555 24.5736C34.8873 23.8479 35.0185 22.9854 34.8238 22.1448C34.6291 21.3039 34.1324 20.5882 33.4251 20.1252C31.964 19.1704 30.0497 19.6134 29.1571 21.1132C28.724 21.8402 28.5922 22.7017 28.7868 23.5422C28.8864 23.9722 29.0657 24.3678 29.3114 24.7165L28.3195 26.3805C28.2789 26.4496 28.2678 26.5309 28.2889 26.6109L28.4857 27.347L27.7665 27.488C27.6907 27.5031 27.624 27.5484 27.5836 27.6177C27.5427 27.6848 27.5314 27.7686 27.5525 27.846L27.7493 28.5849L27.0304 28.7233C26.9545 28.7384 26.8881 28.7855 26.8471 28.8527C26.8067 28.9218 26.7932 28.9944 26.8165 29.0831L27.0127 29.8203L26.294 29.9604C26.2139 29.9744 26.1459 30.0267 26.1056 30.0981C26.0707 30.1635 26.0609 30.2372 26.0775 30.3087C26.0798 30.3189 26.0827 30.3294 26.086 30.3396L26.4711 31.4505C26.5228 31.6007 26.6806 31.6823 26.8255 31.6348L28.1307 31.1983ZM32.0822 22.3793C31.6659 22.1071 31.535 21.5415 31.7894 21.1148C32.0439 20.6875 32.5865 20.5619 33.0025 20.8339C33.4184 21.1054 33.5497 21.6708 33.2954 22.0984C33.0412 22.5252 32.4982 22.6506 32.0822 22.3793ZM27.8146 30.2471C27.7651 30.2148 27.7323 30.1637 27.7197 30.1096C27.7072 30.0554 27.7142 29.9951 27.7445 29.9443L30.312 25.635C30.4363 25.7097 30.5638 25.7742 30.695 25.8293L28.1042 30.18C28.0437 30.2816 27.9136 30.3118 27.8146 30.2471Z" fill="#FF8800"/>
</svg>
