<svg width="40" height="40" viewBox="0 0 40 40" fill="none" xmlns="http://www.w3.org/2000/svg">
<rect width="40" height="40" fill="#BED8FF" part="react"/>
<path d="M30.248 30.2662H27.4698L28.2563 33.8941C28.4222 34.6591 29.1481 35.1382 29.8775 34.9643C30.6069 34.7903 31.0638 34.0292 30.898 33.2642L30.248 30.2662Z" fill="#0063F7"/>
<path d="M26.9318 22.1183C26.9318 21.3434 26.9304 21.384 26.936 21.2975L25.0948 20.4367C24.1773 20.0078 23.7658 19.0256 23.8011 18.4425L24.094 13.6123L24.8826 18.5146C24.9456 18.9055 25.1908 19.2374 25.5361 19.3988L29.6551 21.3246C30.1562 21.5589 30.7368 21.3799 31.0418 20.9176C31.449 20.3001 31.2139 19.4613 30.5743 19.1622L27.0081 17.4948L26.2939 13.0554L27.8211 16.6195L28.1046 13.1615C28.1842 12.1902 27.498 11.3353 26.5719 11.2518L23.5816 10.9822C22.6611 10.8992 21.8504 11.6098 21.7624 12.5722L19.0331 15.0391C18.9444 15.1192 18.8683 15.2133 18.8073 15.318L16.2103 19.7746C15.9914 20.1503 15.9971 20.6031 16.1865 20.9628L15.5988 21.9009L12.6382 19.8608C12.1421 19.5189 11.4748 19.6644 11.1498 20.1856L5.17522 29.767C4.85116 30.2867 4.98938 30.9834 5.48427 31.3244L7.43642 32.6696C7.39454 32.915 7.39702 33.1688 7.44666 33.4203C7.65422 34.4723 8.64543 35.1829 9.6789 34.9585C10.701 34.7367 11.3573 33.6897 11.1457 32.6175C11.0963 32.3673 11.0021 32.1361 10.8735 31.9318C15.3037 24.8269 14.2232 26.5546 17.3556 21.556C17.6672 21.5018 17.9556 21.3118 18.1332 21.007L20.6381 16.7084L21.4857 15.9423C21.4857 15.9423 21.1008 21.6555 21.1035 21.674L21.9121 27.0757L19.7535 33.0778C19.4895 33.8118 19.8429 34.6313 20.5429 34.9081C21.243 35.185 22.0243 34.8142 22.2882 34.0803L24.5731 27.7272C24.6488 27.5169 24.6832 27.2678 24.6439 27.0056L23.8749 21.8691L24.5894 21.9336L24.9925 22.8691C25.3115 22.4141 25.8251 22.1181 26.4036 22.1181C26.6071 22.1183 26.7334 22.1183 26.9318 22.1183ZM9.41786 33.6361C9.08578 33.7083 8.77321 33.479 8.70759 33.1466C8.64034 32.8055 8.849 32.4724 9.1743 32.4018C9.50761 32.3295 9.81921 32.5599 9.88457 32.8912C9.95188 33.2324 9.74328 33.5654 9.41786 33.6361Z" fill="#0063F7"/>
<path d="M25.7973 10.2256C27.1733 10.2256 28.2887 9.0558 28.2887 7.61279C28.2887 6.16979 27.1733 5 25.7973 5C24.4213 5 23.3058 6.16979 23.3058 7.61279C23.3058 9.0558 24.4213 10.2256 25.7973 10.2256Z" fill="#0063F7"/>
<path d="M34.2152 23.1311H32.7212V21.4122C32.7212 21.1098 32.5316 20.8539 32.2702 20.7679C32.2383 20.9106 32.1936 21.0513 32.1354 21.1882C31.9776 21.5595 31.7328 21.8721 31.4334 22.1052V23.1311C31.334 23.1311 29.5292 23.1311 29.1855 23.1311V22.3492L27.8977 21.7472C27.8977 22.2276 27.8977 22.6567 27.8977 23.1311H26.4037C25.9702 23.1311 25.6189 23.4997 25.6189 23.9543V28.4301C25.6189 28.8847 25.9702 29.2532 26.4037 29.2532H34.2152C34.6487 29.2532 35 28.8847 35 28.4301V23.9543C35 23.4914 34.6384 23.1311 34.2152 23.1311Z" fill="#0063F7"/>
</svg>
