<svg width="40" height="40" viewBox="0 0 40 40" fill="none" xmlns="http://www.w3.org/2000/svg">
<rect width="40" height="40" fill="#FFFBEA" part="react"/>
<path d="M32.624 8.25803C31.546 5.60403 28.4835 4.31104 25.7825 5.36953C23.7225 6.17803 22.4715 8.12153 22.4705 10.175H17.8605L16.147 8.49153C14.8735 7.23953 12.807 7.23903 11.533 8.49153L7 12.9445L7.692 13.6245L12.225 9.17103C13.117 8.29453 14.563 8.29503 15.455 9.17103L16.4765 10.175H15.316C17.655 15.611 10.544 25.4565 18.8165 27.111C18.811 27.1135 18.8045 27.116 18.8095 27.118C21.338 27.994 21.203 30.0835 20.3775 32.0505C19.503 34.134 17.4085 34.514 17.389 34.526C17.327 34.562 17.2905 34.676 17.2995 34.7945C17.311 34.9125 17.3645 35 17.429 35H25.732C25.796 35 25.8505 34.9125 25.8605 34.7945C25.871 34.676 25.8325 34.562 25.771 34.526C25.751 34.514 23.658 34.134 22.783 32.0505C21.9575 30.083 21.823 27.994 24.3505 27.118C24.3565 27.116 24.349 27.1135 24.3435 27.111C30.3635 25.9075 28.239 20.3665 27.536 15.343C28.2697 15.3716 29.0014 15.248 29.685 14.98C32.3855 13.922 33.701 10.912 32.624 8.25803V8.25803ZM21.5805 26.4665C11.1255 26.4665 18.4725 15.973 16.326 10.638H16.948L21.107 14.724C20.105 14.423 19.052 14.1775 17.9015 14.1775C17.73 14.1775 17.5575 14.183 17.381 14.1945C17.3445 16.0875 16.8135 18.241 16.6245 20.1675C16.3275 23.204 16.8835 25.678 21.58 25.678C25.49 25.678 26.5295 23.9625 26.5975 21.6365C26.648 19.8895 26.151 17.798 25.907 15.827C25.8365 15.83 25.767 15.831 25.6965 15.831C24.843 15.831 24.005 15.632 23.151 15.3735L18.3305 10.6375H22.4895C22.5345 11.1245 22.648 11.613 22.842 12.0905C23.5075 13.731 24.932 14.8495 26.5605 15.2165C27.209 20.4535 29.4945 26.4665 21.5805 26.4665V26.4665ZM25.471 19.0125L25.601 18.885C25.711 19.6115 25.801 20.311 25.829 20.9625C25.7855 20.9635 25.741 20.9645 25.696 20.9645C24.644 20.9645 23.562 20.611 22.4165 20.2365C21.093 19.8045 19.5925 19.314 17.9025 19.314C17.7665 19.314 17.631 19.317 17.4945 19.3235C17.56 18.855 17.638 18.375 17.7185 17.8765C17.8765 16.9 18.039 15.897 18.1095 14.93C19.4715 14.9685 20.723 15.378 21.934 15.7745C22.0545 15.814 22.1735 15.851 22.2935 15.8895L25.471 19.0125V19.0125ZM24.216 16.419C24.553 16.4865 24.892 16.5415 25.2375 16.5655C25.2875 16.9055 25.342 17.2425 25.396 17.5785L24.216 16.419ZM25.587 14.1785C25.723 14.161 25.814 14.043 25.914 14.038C25.9415 14.0365 26.159 13.6 26.421 13.0425C26.4195 13.159 26.418 13.2755 26.42 13.394C26.2405 13.823 26.1045 14.167 26.085 14.275C26.0685 14.374 26.2045 14.4315 26.2365 14.527C26.251 14.5715 26.3495 14.6075 26.497 14.6365L26.522 14.8725C25.0435 14.503 23.758 13.472 23.149 11.9725C22.9766 11.5457 22.8668 11.0962 22.823 10.638H23.1175C23.132 11.0975 23.1725 11.471 23.2365 11.519C23.3445 11.6 23.4955 11.5795 23.569 11.6445C23.608 11.678 25.3245 11.057 26.358 10.638H26.6155C25.6505 11.0065 23.8895 11.689 23.661 11.844C23.5775 11.9025 23.632 12.037 23.5855 12.1255C23.4595 12.3615 25.3665 14.205 25.587 14.1785V14.1785ZM29.5615 14.679C28.9033 14.9366 28.1979 15.0513 27.492 15.0155C27.4795 14.9165 27.468 14.8175 27.4565 14.719C28.22 14.741 29.072 14.6975 29.147 14.6035C29.232 14.498 29.21 14.3525 29.277 14.2805C29.3285 14.2255 27.947 10.71 27.8625 10.8325C27.79 10.937 27.6865 10.8715 27.619 10.825C27.6825 10.603 27.7545 10.385 27.8445 10.175H27.065C27.067 10.0965 27.1505 10.015 27.1605 9.98353C27.1605 9.98353 23.9535 8.61053 23.573 8.54653C23.4715 8.52853 23.4125 8.66103 23.3145 8.69103C23.179 8.73403 23.116 9.46603 23.111 10.175H22.8C22.801 8.24903 23.9735 6.42803 25.9045 5.67053C28.436 4.67804 31.3085 5.88953 32.318 8.37803C33.3275 10.8655 32.094 13.6875 29.5615 14.679" fill="#FFCC00"/>
<path d="M29.2599 5.82683C29.1764 5.57333 26.4839 5.57883 26.3479 5.74933C26.2644 5.85483 26.2859 6.00133 26.2189 6.07283C26.1674 6.12833 27.5504 9.64383 27.6339 9.52133C27.7294 9.38233 27.8834 9.54633 27.9294 9.56033C27.9294 9.56033 29.3434 6.44733 29.4099 6.07733C29.4274 5.97933 29.2914 5.92133 29.2599 5.82683" fill="#FFCC00"/>
<path d="M32.2434 8.80119C32.1349 8.71919 31.9849 8.73969 31.9094 8.67519C31.8534 8.62519 28.2329 9.96769 28.3584 10.0482C28.5019 10.1417 28.3324 10.2907 28.3169 10.3357C28.3169 10.3357 31.5254 11.7082 31.9049 11.7737C32.0074 11.7907 32.0664 11.6582 32.1639 11.6272C32.4244 11.5467 32.4194 8.93219 32.2434 8.80119Z" fill="#FFCC00"/>
<path d="M25.7635 6.14737C25.5205 6.02537 23.62 7.87687 23.648 8.09087C23.666 8.22337 23.786 8.31187 23.7925 8.40887C23.7975 8.48337 27.3335 10.0204 27.304 9.87587C27.271 9.71137 27.4995 9.72337 27.5425 9.70137C27.5425 9.70137 26.2745 6.52837 26.053 6.22137C25.9925 6.13887 25.854 6.19187 25.7635 6.14737" fill="#FFCC00"/>
<path d="M28.2829 10.53C28.3164 10.6945 28.0874 10.684 28.0444 10.706C28.0444 10.706 29.3129 13.8775 29.5349 14.1855C29.5939 14.2665 29.7324 14.214 29.8224 14.2585C30.0659 14.38 31.9659 12.528 31.9379 12.3145C31.9214 12.1825 31.7989 12.0945 31.7939 11.9965C31.7899 11.923 28.2539 10.3865 28.2829 10.53" fill="#FFCC00"/>
<path d="M28.0735 9.67285C28.2435 9.63935 28.2325 9.86185 28.2545 9.90385C28.2545 9.90385 31.521 8.67285 31.8385 8.45685C31.922 8.39985 31.8675 8.26385 31.9135 8.17585C32.039 7.93985 30.132 6.09585 29.912 6.12235C29.776 6.13935 29.6845 6.25785 29.5845 6.26385C29.5095 6.26785 27.927 9.70085 28.0735 9.67285Z" fill="#FFCC00"/>
</svg>
