<svg width="40" height="40" viewBox="0 0 40 40" fill="none" xmlns="http://www.w3.org/2000/svg">
<rect width="40" height="40" fill="#FFE2E2" part="react"/>
<path d="M34.7919 15.3518C34.7205 15.1339 34.4677 14.9645 34.2568 14.9645C33.343 14.9645 32.4293 14.9645 31.5156 14.9645C31.3396 14.9645 31.1351 15.0824 31.0304 15.2478C30.4539 13.8101 29.7907 12.3303 29.1534 11.3042C29.0388 11.1196 28.866 10.9829 28.6652 10.9182C28.5492 10.8807 25.7553 10 19.9999 10C14.2447 10 11.4509 10.8807 11.3348 10.9182C11.1341 10.9829 10.9613 11.1196 10.8466 11.3043C10.2093 12.3305 9.54614 13.8104 8.9696 15.2479C8.865 15.0825 8.6604 14.9645 8.48444 14.9645C7.5707 14.9645 6.65703 14.9645 5.74329 14.9645C5.5323 14.9645 5.27952 15.1339 5.20809 15.3518C4.93055 16.1998 4.9307 16.6854 5.20816 17.5335C5.27952 17.7514 5.5323 17.9208 5.74329 17.9208C6.2237 17.9208 6.70405 17.9208 7.18447 17.9208C6.51359 18.6252 6.09743 19.5966 6.09743 20.6686C6.09743 20.7187 6.10066 20.7688 6.10705 20.8185L6.19377 21.4872C6.22263 21.71 6.31394 21.9092 6.44661 22.0682V23.5889H6.36291C6.16469 23.5889 6.00396 23.7575 6.00396 23.9655V28.4715C6.00396 29.3144 6.65746 30 7.46065 30H10.3734C11.1766 30 11.8301 29.3143 11.8301 28.4715V26.5349H28.3194V28.4715C28.3194 29.3144 28.9729 30 29.7761 30H32.6889C33.4921 30 34.1455 29.3143 34.1455 28.4715V23.9655C34.1455 23.7575 33.9848 23.5889 33.7866 23.5889H33.7028V22.2161C33.9163 22.0429 34.0665 21.7861 34.1053 21.4872L34.1919 20.8184C34.1984 20.7688 34.2015 20.7187 34.2015 20.6686C34.2015 19.5965 33.7854 18.6251 33.1145 17.9208C33.4952 17.9208 33.8758 17.9208 34.2565 17.9208C34.4675 17.9208 34.7203 17.7513 34.7917 17.5334C35.0695 16.6854 35.0693 16.1998 34.7919 15.3518ZM12.1709 12.6356C13.0172 12.4235 15.6026 11.8842 20 11.8842C24.3991 11.8842 26.9849 12.4239 27.8293 12.6355C28.4287 13.6807 29.0587 15.1562 29.5956 16.5398C28.1857 16.2995 25.4086 16.0254 20.0749 16.0254C14.4063 16.0254 11.6697 16.3396 10.3835 16.5936C10.9247 15.195 11.5633 13.6949 12.1709 12.6356ZM7.20105 25.6937V24.7145H9.7496L10.0187 25.6937H7.20105ZM7.16458 23.5889V21.7376L12.1174 22.0722L12.6007 23.5889H7.16458ZM26.1628 25.5422H13.9869L13.6138 24.2698H26.536L26.1628 25.5422ZM26.792 23.5889H13.3577L12.9944 22.4488H27.1552L26.792 23.5889ZM12.7732 21.7344L12.4023 20.4694H27.7474L27.3765 21.7344H12.7732ZM32.9485 25.6937H30.1308L30.4 24.7145H32.9485L32.9485 25.6937ZM32.9851 23.5889H27.5489L28.0322 22.0722L32.9851 21.7376V23.5889Z" fill="#EA5353"/>
</svg>
