<svg width="40" height="40" viewBox="0 0 40 40" fill="none" xmlns="http://www.w3.org/2000/svg">
<rect width="40" height="40" fill="#BED8FF" part="react"/>
<path fill-rule="evenodd" clip-rule="evenodd" d="M4.99984 19.6856C4.99984 13.2422 10.2421 7.99996 16.6855 7.99997C20.7961 7.99996 24.418 10.1336 26.5016 13.3516C26.3695 13.4128 26.2366 13.4754 26.103 13.5392L19.9374 12.4256C18.9077 12.2397 17.8469 12.4888 17.0076 13.1139L16.7035 13.3404C16.6736 13.3627 16.6446 13.3855 16.6164 13.4089C16.0697 12.1793 16.1783 10.6397 17.5796 10.0747C17.8588 9.96196 18.1459 9.88521 18.4366 9.83118C17.8679 9.7302 17.283 9.67748 16.6855 9.67748C13.8917 9.67748 11.3623 10.8288 9.54458 12.6811C9.93178 13.0847 10.3936 13.4262 10.941 13.5541C11.3899 13.659 11.8522 13.6952 12.3142 13.7313C12.9117 13.778 13.5088 13.8247 14.0763 14.02C14.5931 14.1979 15.3867 14.542 15.3663 15.2087C15.3268 16.4959 13.7089 16.5371 12.576 16.566C12.337 16.5721 12.1196 16.5776 11.9432 16.5942C11.407 16.6446 11.0179 16.8573 11.0001 17.4503C10.9962 17.5837 10.9996 17.7171 11.003 17.8503C11.0093 18.0971 11.0156 18.3433 10.9752 18.5887C10.8704 19.2214 10.5227 19.6746 9.86667 19.7642C9.54378 19.8081 9.21623 19.7761 8.89344 19.7445L8.8761 19.7428C8.80665 19.736 8.73333 19.7265 8.65783 19.7167C8.3746 19.6799 8.06079 19.6393 7.80575 19.7223C7.61223 19.7855 7.45808 19.9036 7.30343 20.0221C7.18737 20.111 7.07102 20.2002 6.93754 20.2665C6.85797 20.3061 6.77959 20.3356 6.70051 20.3569C6.82139 22.1732 7.42834 23.8585 8.39319 25.2829C8.84872 24.8938 9.5646 23.4086 9.89636 22.7203C9.97211 22.5632 10.0278 22.4475 10.0559 22.396C10.3613 21.8347 10.6829 21.3494 11.399 21.3217C11.7727 21.3073 12.1267 21.389 12.4832 21.4713C12.6539 21.5107 12.8251 21.5503 12.9992 21.5794C13.3382 21.6362 13.6781 21.6486 14.0184 21.6611C14.2396 21.6691 14.461 21.6772 14.6824 21.6975C14.7669 21.7052 14.8535 21.715 14.9412 21.7273C14.924 21.8509 14.9182 21.9826 14.9292 22.1209C14.9679 22.6088 15.1638 23.0545 15.4943 23.4038C15.8036 23.7305 16.1674 23.9072 16.4633 24.0056C16.5733 24.0422 16.6845 24.0714 16.7953 24.0945C16.7974 24.1297 16.7997 24.1648 16.8021 24.1999C16.8451 24.8199 16.9983 25.4081 17.6778 25.5811C18.0085 25.6654 18.3546 25.6796 18.6979 25.6936C18.8259 25.6988 18.9536 25.704 19.0799 25.7128L19.0846 25.7132C19.6202 25.7502 20.1752 25.7886 20.6941 25.9357C21.0221 26.0286 21.4561 26.1846 21.5334 26.5648C21.627 27.025 21.1377 27.4018 20.7904 27.6693C20.7406 27.7076 20.6938 27.7437 20.652 27.7774C20.2162 28.1291 19.9565 28.4818 19.7093 28.9819C19.661 29.0798 19.6111 29.1766 19.5595 29.2724C22.4362 28.4085 24.7717 26.2829 25.9204 23.5415C25.6259 23.5132 25.3582 23.3512 25.1571 22.9665C25.0901 22.8385 25.0361 22.6898 24.9811 22.5379C24.9241 22.3808 24.8659 22.2202 24.7907 22.0759C25.1034 21.9603 25.4197 21.8412 25.7379 21.719C25.7591 21.7417 25.7809 21.764 25.8035 21.7859L27.6912 23.6155C26.0738 28.1315 21.7507 31.3712 16.6855 31.3712C10.2421 31.3712 4.99984 26.1289 4.99984 19.6856Z" fill="#0063F7"/>
<path d="M34.3194 14.4376C34.5788 17.7065 19.1069 22.5655 17.9136 22.6602C17.2446 22.7133 16.4734 22.6194 16.4244 22.0026C16.408 21.7966 16.6222 21.4799 17.0111 21.0877L17.0106 21.088L15.7485 19.2103C15.5776 18.9561 15.6695 18.6096 15.944 18.4736L16.128 18.3824C16.4616 18.2171 16.851 18.2069 17.1928 18.3544L19.2854 19.2582C20.0304 18.7323 20.8788 18.1764 21.7757 17.6241L17.6608 15.3958C17.3352 15.2195 17.3025 14.765 17.5994 14.5438L17.9036 14.3173C18.4098 13.9403 19.0497 13.79 19.6708 13.9022L26.3173 15.1026C28.2832 14.1358 30.0748 13.4402 31.1611 13.3539C31.4512 13.3309 31.7424 13.3155 32.0244 13.3133L30.1288 14.3569L30.1342 15.022L33.0583 13.386C33.7995 13.5017 34.268 13.7904 34.3194 14.4376ZM26.8473 20.7091L29.4946 23.2749C29.656 23.4313 29.901 23.4628 30.0966 23.3522L30.4098 23.1753C30.981 22.8525 31.2807 22.1997 31.1532 21.5562L30.6428 18.981C30.6112 18.8217 30.4399 18.7328 30.2914 18.7987L26.9208 20.2955C26.7567 20.3684 26.7183 20.5841 26.8473 20.7091Z" fill="#0063F7"/>
</svg>
