<svg width="40" height="40" viewBox="0 0 40 40" fill="none" xmlns="http://www.w3.org/2000/svg">
<rect width="40" height="40" fill="#D7FEED" part="react"/>
<path fill-rule="evenodd" clip-rule="evenodd" d="M16.9479 7C11.5434 7 6.90588 10.3802 5 15.1569H15.4846C15.4897 15.1126 15.4931 15.0669 15.4945 15.0196C15.517 14.2779 14.6427 13.8951 14.0733 13.6971C13.4481 13.4799 12.7902 13.428 12.132 13.376C11.6229 13.3358 11.1136 13.2956 10.6191 13.1789C10.0159 13.0365 9.50713 12.6566 9.08053 12.2076C11.0832 10.147 13.8699 8.8662 16.9479 8.8662C17.6062 8.8662 18.2506 8.92485 18.8772 9.03719C18.5568 9.09729 18.2406 9.18267 17.9329 9.30814C16.3097 9.96896 16.2609 11.8284 16.9703 13.2254C17.3479 13.9688 17.9263 14.6088 18.5532 15.1569H28.8958C26.9899 10.3802 22.3524 7 16.9479 7ZM16.9479 33C11.5434 33 6.90588 29.6198 5 24.8431H7.0209C7.2522 25.3247 7.51692 25.787 7.81202 26.2269C8.07527 25.9998 8.41744 25.4373 8.73606 24.8431H17.0652C17.0687 24.9029 17.0723 24.9625 17.0764 25.0221C17.1237 25.7118 17.2925 26.3662 18.0411 26.5586C18.4055 26.6524 18.7868 26.6682 19.165 26.6837C19.3061 26.6895 19.4467 26.6953 19.5859 26.7052L19.5911 26.7055C20.1811 26.7468 20.7926 26.7895 21.3643 26.9531C21.7257 27.0565 22.2039 27.23 22.289 27.6529C22.3921 28.1649 21.853 28.5841 21.4704 28.8817L21.4686 28.8831C21.4429 28.9031 21.4179 28.9225 21.3938 28.9414C21.3672 28.9623 21.3418 28.9825 21.3179 29.002C20.8377 29.3933 20.5516 29.7856 20.2794 30.342C20.2261 30.4509 20.1711 30.5585 20.1143 30.6651C23.0892 29.763 25.5386 27.6243 26.8746 24.8431H28.8958C26.9899 29.6198 22.3524 33 16.9479 33Z" fill="#06C270"/>
<path d="M7.68053 23L6.20964 17.8093H7.3969L8.2478 21.4159H8.29047L9.22923 17.8093H10.2458L11.1821 21.4235H11.2272L12.0781 17.8093H13.2654L11.7945 23H10.7353L9.75634 19.6063H9.71618L8.73977 23H7.68053Z" fill="#06C270"/>
<path d="M15.0042 23L13.5333 17.8093H14.7206L15.5715 21.4159H15.6142L16.5529 17.8093H17.5695L18.5057 21.4235H18.5509L19.4018 17.8093H20.5891L19.1182 23H18.059L17.08 19.6063H17.0399L16.0635 23H15.0042Z" fill="#06C270"/>
<path d="M22.3279 23L20.857 17.8093H22.0443L22.8952 21.4159H22.9379L23.8766 17.8093H24.8932L25.8294 21.4235H25.8746L26.7255 17.8093H27.9128L26.4419 23H25.3827L24.4037 19.6063H24.3636L23.3872 23H22.3279Z" fill="#06C270"/>
<path d="M32.7854 24.1692C32.7428 24.1365 32.6826 24.1446 32.6504 24.1874L31.9411 25.129C31.8988 25.1852 31.8138 25.1784 31.7794 25.1161L29.318 20.6474C29.2975 20.6101 29.3031 20.5697 29.3238 20.5406C29.3404 20.5171 29.3669 20.5011 29.3976 20.5C29.4032 20.4998 29.409 20.5001 29.4149 20.501L29.4221 20.5024L29.4269 20.5036L34.2541 21.8315C34.287 21.8406 34.3105 21.8649 34.3209 21.894C34.3222 21.8977 34.3233 21.9014 34.3242 21.9052C34.3251 21.9092 34.3258 21.9133 34.3263 21.9174L34.3267 21.9215L34.3269 21.9273V21.9296C34.3268 21.9341 34.3265 21.9387 34.3258 21.9433C34.3235 21.959 34.3173 21.9745 34.3068 21.9883L33.7303 22.7538C33.6974 22.7975 33.7061 22.8606 33.7496 22.894L35.9607 24.5899C36.0038 24.6229 36.0129 24.6852 35.9809 24.7289L35.1534 25.862C35.1215 25.9057 35.0607 25.9144 35.0176 25.8813L32.7854 24.1692Z" fill="#06C270"/>
</svg>
