<svg width="40" height="40" viewBox="0 0 40 40" fill="none" xmlns="http://www.w3.org/2000/svg">
<rect width="40" height="40" fill="#F0E1D6" part="react"/>
<path d="M15.7578 7.95726C15.7578 6.32405 17.1058 5 18.7684 5C20.4311 5 21.779 6.32405 21.779 7.95726C21.779 9.59048 20.4311 10.9145 18.7684 10.9145C17.1058 10.9145 15.7578 9.59048 15.7578 7.95726ZM30.2728 18.5763L31.6866 11.3562L30.3428 11.1023L29.0372 17.7698H25.5727C25.5863 17.691 25.5953 17.6107 25.5958 17.5282C25.5996 16.7115 24.9288 16.0465 24.0975 16.0427L18.1585 16.016L16.5346 11.7404C16.2341 10.6388 15.4875 9.86964 14.1827 9.86964C12.7922 9.86964 11.8595 11.1113 11.3789 12.393C10.4209 14.9469 9.7368 19.2483 10.0142 22.0418C10.1644 23.3467 10.5208 24.4167 11.4197 24.8939H8.91571V15.9327H7V34.9755H8.91584V26.776H17.949L16.6893 32.9064C16.4949 33.8525 17.1181 34.7742 18.0811 34.9651C18.1999 34.9886 18.3183 35 18.435 35C19.2644 35 20.0065 34.4273 20.1769 33.598L21.2861 28.2001L22.8204 32.2421C23.0873 32.9452 23.766 33.3796 24.4876 33.3796C24.6941 33.3796 24.904 33.344 25.1088 33.2689C26.0294 32.9318 26.4975 31.9254 26.1541 31.0211L23.0353 22.805C22.7758 22.1213 22.1112 21.6681 21.3685 21.6681H16.7086L16.7064 20.5927H31.0842V34.9756H33V18.5763H30.2728Z" fill="#634133"/>
</svg>
