<svg width="386" height="386" viewBox="0 0 386 386" fill="none" xmlns="http://www.w3.org/2000/svg">
<path d="M155 129.8H112.3L136.7 156.9V230.1L155 249.1V129.8Z" fill="#D3B752"/>
<path d="M231.2 249.9L249.5 230.1V157L273.9 129.9H231.2V249.9Z" fill="#D3B752"/>
<path d="M222.1 213.2L202.8 193.9L222.1 174.6V130.9L192.8 102.3L164.2 130.9V254.7L194.2 284L222.1 256.1V213.2ZM200.7 247.3L193.9 254.1L185.4 245.8V207.9L188.2 210.7L200.6 223.1L200.7 247.3ZM200.7 164.5L188.3 176.9L185.4 179.7V139.7L192.9 132.2L200.7 139.8V164.5Z" fill="#D3B752"/>
<path d="M55.2001 239.6L56.6001 237.2L65.2001 234.4L64.3001 231.4L56.2001 233.8L53.6001 234.6C52.7001 236.1 51.8001 237.6 50.9001 239.2L49.6001 241.6C49.2001 242.4 48.8001 243.2 48.4001 244L53.9001 242.1C54.3001 241.2 54.8001 240.4 55.2001 239.6Z" fill="#D3B752"/>
<path d="M2.3001 170.1C0.700096 183.9 0.500096 197.8 1.8001 211.6C3.0001 223.9 5.3001 236 8.8001 247.9H8.6001L9.9001 252.2L10.0001 252.1C10.0001 252.2 10.0001 252.2 10.1001 252.3L13.7001 251.1V250.9L18.6001 249.3L21.3001 250.9C22.2001 251.4 23.1001 251.9 24.0001 252.4L29.5001 250.5C28.6001 250.1 27.8001 249.6 26.9001 249.1L24.4001 247.7C22.7001 246.7 21.0001 245.7 19.3001 244.7L16.7001 245.5L12.3001 246.8C8.9001 235.2 6.6001 223.3 5.4001 211.2C4.2001 199.1 4.2001 186.9 5.4001 174.8L8.1001 156.7" fill="#D3B752"/>
<path d="M67.8001 324.2H70.9001L74.9001 319.9H72.0001L69.1001 319.8C67.2001 319.7 65.2001 319.6 63.2001 319.5L61.3001 321.4L58.0001 324.6C49.6001 315.9 42.0001 306.5 35.4001 296.4C34.9001 295.7 34.4001 295 34.0001 294.3L32.7001 292.1L30.1001 287.7C29.6001 287 29.2001 286.2 28.8001 285.5L27.6001 283.3C26.8001 281.8 26.0001 280.3 25.2001 278.8L23.0001 274.2L21.9001 271.9L21.4001 270.7L20.9001 269.5L18.9001 264.8L18.6001 264.1L22.8001 262.4L25.2001 261.4C25.5001 260.5 25.8001 259.6 26.2001 258.7L27.3001 255.9C28.0001 254.1 28.8001 252.3 29.5001 250.6L24.0001 252.5C23.2001 254.3 22.5001 256.2 21.7001 258.1L13.4001 261.2C13.6001 261.7 13.7001 262.1 13.9001 262.6L14.2001 263.3L14.3001 263.5L14.4001 263.6L15.0001 265.1C15.0001 265.2 15.0001 265.2 15.1001 265.3L15.4001 266L17.4001 270.8L17.9001 272L18.5001 273.2L19.6001 275.6L21.9001 280.3C22.7001 281.8 23.5001 283.4 24.4001 284.9L25.6001 287.2C26.0001 288 26.4001 288.7 26.9001 289.5L29.6001 294L30.9001 296.2C31.4001 296.9 31.9001 297.7 32.3001 298.4C39.1001 308.7 46.8001 318.3 55.4001 327.2L55.3001 327.3L58.5001 330.5L58.6001 330.4L58.7001 330.5L61.3001 327.8L61.2001 327.7L64.8001 324L67.8001 324.2Z" fill="#D3B752"/>
<path d="M92.6 298.3L92.7 295.5L99 289L96.8 286.8L90.8 292.7L88.9 294.6C88.8 296.4 88.7 298.1 88.6 299.9L88.5 302.7V305.4L92.5 301.1C92.5 300.1 92.6 299.2 92.6 298.3Z" fill="#D3B752"/>
<path d="M67.3001 240.9L59.0001 244C57.3001 243.4 55.6001 242.7 53.9001 242L48.4001 243.9C50.0001 244.6 51.7001 245.3 53.3001 246L55.7001 247C56.5001 247.3 57.4001 247.6 58.2001 247.9L60.6001 246.9L68.3001 243.8C68.1001 243.3 67.9001 242.8 67.7001 242.4L67.3001 240.9Z" fill="#D3B752"/>
<path d="M81.5 306.1V299.6C81.6 297.4 81.7 295.3 81.8 293.2C81.9 291.1 82.1 289.1 82.3 287L79.4 283.5L78.7 282.6L78.1001 281.7L76.8 279.9L75.5 278.1L74.9 277.2C74.7 276.9 74.5 276.6 74.3 276.3L71.8 272.6C70.9 271.4 70.2 270.1 69.4 268.8C68.6 267.5 67.8 266.2 67.1 264.9L65 261C64.6 260.4 64.3 259.7 63.9 259L62.9 257C61 256.4 58.9 255.7 56.9 255C54.9 254.3 53 253.5 51 252.7C50 252.3 49 251.9 48 251.5L46.5 250.9L45 250.2C43.1 249.3 41.1 248.3 39.1 247.3C38.2 249.3 37.4 251.4 36.5 253.4L35.9 255L35.3 256.6C34.9 257.6 34.5 258.7 34.2 259.8C33.5 261.9 32.7 264.1 32.1 266.3C31.4 268.5 30.9 270.7 30.3 273L31.5 275.5C31.9 276.3 32.4 277.1 32.8 278L35.5 282.9C36.4 284.5 37.4 286.1 38.4 287.7C39.3 289.3 40.3 290.9 41.4 292.4L44.5 297C44.8 297.4 45 297.8 45.3 298.2L46.1 299.3L47.8 301.6L49.5 303.8L50.3 304.9L51.2 306L54.8 310.3C57.1 310.7 59.4 311 61.7 311.3C64 311.6 66.2 311.8 68.5 312C70.8 312.2 73 312.3 75.3 312.4L78.6001 312.5H81.9C81.8 311.4 81.7 310.3 81.7 309.2C81.7 308.1 81.5 307.2 81.5 306.1ZM78.3 290.8C78.2 291.6 78.1001 292.5 78.1001 293.3L77.8 298.4L77.7 301C77.7 301.9 77.6 302.8 77.7 303.6C77.7 305.3 77.7 307 77.8 308.8C76 308.7 74.3 308.7 72.5 308.6C71.6 308.6 70.7 308.5 69.9 308.4L67.2 308.1C65.4 307.9 63.6 307.7 61.8 307.5C60.9 307.4 60 307.3 59.1 307.1L56.4 306.7L53.2 302.8L50.2 298.7C48.1 296 46.3 293.2 44.4 290.4L43.7 289.3L43.4 288.8L43.1 288.3L41.8 286.1L39.2 281.8C38.4 280.3 37.6 278.8 36.8 277.4L35.6 275.2L35 274.1L34.4 273C34.9 271.2 35.4 269.4 35.9 267.7L36.7 265.1L37.1 263.8C37.2 263.4 37.4 262.9 37.5 262.5C38.1 260.8 38.7 259.1 39.3 257.4L40.2 254.9C40.5 254.1 40.8 253.3 41.2 252.5C42 252.9 42.8 253.2 43.6 253.6L46 254.6C47.6 255.3 49.2 256 50.8 256.6C51.2 256.8 51.6 256.9 52 257.1L53.2 257.5L55.6 258.4C57.2 259 58.8 259.5 60.4 260L60.9 261L61.4 261.9L62.4 263.8C63.1 265.1 63.8 266.3 64.4 267.6L66.6 271.2L67.7 273L68 273.5L68.3 273.9L68.9 274.8C70.5 277.1 72 279.5 73.8 281.8L76.3 285.2L79 288.5L78.3 290.8Z" fill="#D3B752"/>
<path d="M52.6001 264.6L50.0001 263.7C48.3001 263.1 46.6001 262.4 44.8001 261.8C44.2001 263.5 43.7001 265.3 43.1001 267.1L42.3001 269.8C42.0001 270.7 41.8001 271.6 41.6001 272.5C46.7001 282.2 52.7001 291.5 59.6001 300C61.5001 300.3 63.4001 300.6 65.2001 300.8L68.0001 301.1L70.8001 301.4L70.9001 298.7L71.1001 295.9C71.2001 294.1 71.4001 292.3 71.6001 290.5C65.3001 282.7 59.8001 274.3 55.2001 265.4C54.3001 265.2 53.4001 264.9 52.6001 264.6ZM67.3001 297.2C65.4001 297 63.5001 296.7 61.6001 296.4C55.6001 288.8 50.3001 280.6 45.8001 272.1L46.5001 269.3C46.7001 268.4 47.0001 267.5 47.3001 266.6C48.2001 266.9 49.1001 267.2 50.0001 267.5L52.7001 268.4C57.1001 276.5 62.1001 284.3 67.8001 291.6C67.5001 293.5 67.4001 295.4 67.3001 297.2Z" fill="#D3B752"/>
<path d="M88 276.8L87.4 276L86.8 275.2L85.6001 273.5L84.4 271.8C84 271.2 83.6 270.7 83.2 270.1L80.9 266.6C80.1 265.5 79.4 264.3 78.7 263.1C78 261.9 77.2 260.7 76.5 259.5L74.5 255.8C74.2 255.2 73.9 254.6 73.5 254L72.6 252.1L69.3 253.7L70.2 255.6C70.5 256.2 70.9 256.9 71.2 257.5L73.2 261.3C73.9 262.5 74.7 263.7 75.4 265C76.1 266.2 76.8 267.5 77.7 268.6L80.1001 272.2C80.5001 272.8 80.9 273.4 81.3 273.9L82.6001 275.6L83.9 277.3L84.5 278.2L85.2 279L87.9 282.3L90.7 279.9L88 276.8Z" fill="#D3B752"/>
<path d="M147.3 360.4C146.4 360.9 145.6 361.3 144.7 361.8L142.1 363.1C140.3 363.9 138.6 364.8 136.7 365.6L135.9 368.1L134.5 372.4C123 368.6 111.9 363.8 101.3 357.9L99.1002 356.7L96.9002 355.4L92.5002 352.7L91.4002 352.1C91.0002 351.9 90.7002 351.6 90.3002 351.4L88.2002 350L84.0002 347C82.6002 346 81.3002 345 79.9002 344L77.9002 342.5C77.3002 342 76.5002 341.5 75.9002 340.9L72.0002 337.7L71.4002 337.2L74.4002 333.7L76.1002 331.7L75.7002 328.8C75.6002 327.8 75.5002 326.9 75.4002 325.9C75.2002 324 75.0002 322.1 74.9002 320.2L71.0002 324.4C71.2002 326.4 71.4002 328.4 71.6002 330.5L65.7002 337.1L66.7002 338L67.0002 338.2L67.4002 338.6L67.7002 338.8L68.2002 339.2L69.2002 340L69.8002 340.5L73.8002 343.8C74.4002 344.4 75.2002 344.9 75.9002 345.4L78.0002 347C79.4002 348 80.8002 349.1 82.2002 350.1L86.5002 353L88.7002 354.5C89.1002 354.7 89.4002 355 89.8002 355.2L90.9002 355.9L95.3002 358.6L97.5002 360L99.8002 361.3C110.6 367.3 121.9 372.3 133.7 376.1L133.6 376.3L137.9 377.7V377.6L138.1 377.7L139.2 374.1L139 374L140.5 369.1L143.3 367.8C144.2 367.4 145.2 366.9 146.1 366.4L147.3 360.4Z" fill="#D3B752"/>
<path d="M152.9 333L151.7 330.5L154.3 321.9L151.3 321L148.7 329L147.9 331.6C148.6 333.2 149.4 334.8 150.2 336.5L151.4 338.9C151.8 339.7 152.2 340.5 152.7 341.3L154.2 335.6C153.7 334.6 153.3 333.8 152.9 333Z" fill="#D3B752"/>
<path d="M103.9 293.8L98.0002 300.4C96.2002 300.6 94.4002 300.8 92.6002 301L88.7002 305.2C90.5002 305.1 92.3002 304.9 94.0002 304.8C94.9002 304.7 95.7002 304.6 96.6002 304.5L99.2002 304.1L100.9 302.1L106.3 295.8L105.1 294.8C104.7 294.5 104.3 294.2 103.9 293.8Z" fill="#D3B752"/>
<path d="M148.7 348.6L148.3 347.9C147.8 346.9 147.2 346 146.7 345C145.7 343.1 144.6 341.2 143.7 339.3C142.8 337.4 141.9 335.4 141 333.5C140.6 332.5 140.2 331.6 139.7 330.6C139.5 330.1 139.3 329.7 139.1 329.2L138.5 327.7L134.4 325.9L133.4 325.5C133.1 325.4 132.8 325.2 132.4 325L130.4 324L128.4 323L127.4 322.5L126.9 322.3L126.4 322L122.5 319.9C121.9 319.5 121.2 319.2 120.6 318.8L118.7 317.6L114.9 315.3L111.2 312.8L109.3 311.5C108.7 311.1 108.1 310.6 107.5 310.2C105.5 310.6 103.4 310.9 101.3 311.2C100.2 311.4 99.2 311.5 98.2 311.6C97.1 311.7 96.1 311.8 95 311.9C93.9 312 92.9 312.1 91.8 312.2L90.2 312.3C89.7 312.3 89.1 312.4 88.6 312.4C86.5 312.5 84.3 312.5 82 312.6C82.2 314.8 82.3 317 82.6 319.2C82.7 319.8 82.7 320.3 82.8 320.9L83 322.6C83.2 323.7 83.3 324.8 83.5 325.9C83.7 327 83.8 328.2 84 329.3C84.2 330.4 84.4 331.6 84.6 332.7C85.1 334.9 85.6 337.2 86.1 339.5C86.9 340.1 87.6 340.6 88.4 341.2L90.7 342.8L95.4 345.9L100.2 348.8L102.6 350.3C103.4 350.8 104.2 351.2 105.1 351.7L110 354.4L110.6 354.7L111.2 355L112.5 355.6L115 356.8L117.5 358C117.9 358.2 118.3 358.4 118.8 358.6L120.1 359.1L125.3 361.3L127 360.8C127.5 360.6 128.1 360.4 128.7 360.2C129.8 359.8 130.9 359.4 132 359C134.2 358.2 136.3 357.4 138.4 356.5C140.5 355.6 142.6 354.6 144.6 353.7C145.6 353.2 146.6 352.7 147.6 352.3L148.3 351.9L149 351.5L150.5 350.7L149.6 349.3L148.7 348.6ZM139.9 351.4C139.1 351.8 138.3 352.1 137.5 352.5L135 353.5C133.3 354.1 131.6 354.8 129.9 355.5L128.6 356L127.3 356.4L124.7 357.3L120 355.3C118.5 354.6 116.9 353.8 115.4 353.1L113.1 352L112 351.4C111.6 351.2 111.3 351 110.9 350.8L106.4 348.4C105.7 348 104.9 347.6 104.2 347.2L102 345.9L97.7 343.3C97 342.9 96.3 342.4 95.6 341.9L93.5 340.5L91.4 339.1C90.7 338.6 90 338.2 89.3 337.6L88.1 332.2L87.6 329.5C87.4 328.6 87.3 327.8 87.1 326.9C86.5 323.3 86.1 319.8 85.7 316.4C89.2 316.2 92.7 316 96 315.6C96.8 315.5 97.7 315.4 98.6 315.3L101.1 314.9C102.8 314.7 104.4 314.4 106.1 314.1C106.7 314.5 107.3 314.9 107.8 315.3L109.6 316.5L111.4 317.7C112 318.1 112.6 318.5 113.2 318.9L116.9 321.1L118.7 322.2C119.3 322.5 119.9 322.9 120.6 323.2L124.3 325.2C124.6 325.4 124.9 325.5 125.2 325.7L126.2 326.2L128.1 327.1C129.4 327.7 130.6 328.3 131.9 328.9L135.8 330.6L136.7 333L137.2 334.2C137.4 334.6 137.5 335 137.7 335.3C138.3 336.8 139.1 338.4 139.8 339.9L140.9 342.2C141.3 343 141.7 343.8 142.1 344.5C142.9 346 143.7 347.5 144.6 349.1C143.1 349.9 141.5 350.7 139.9 351.4Z" fill="#D3B752"/>
<path d="M132.8 340.9C132.1 339.2 131.4 337.5 130.7 335.9C121.5 331.9 112.8 327 104.5 321.3L101.8 321.8C100.9 321.9 100 322.1 99.1001 322.2C97.3001 322.4 95.5001 322.7 93.6001 322.8C93.9001 324.6 94.2001 326.4 94.6001 328.3C94.8001 329.2 95.0001 330.2 95.2001 331.1L95.8001 333.8C104.8 340.1 114.5 345.4 124.5 349.9C126.3 349.3 128.1 348.7 129.8 348C130.7 347.7 131.5 347.4 132.4 347L135 345.9L133.8 343.4C133.5 342.6 133.2 341.7 132.8 340.9ZM124.6 345.8C115.8 341.8 107.3 337.1 99.3001 331.6C98.9001 329.7 98.4001 327.9 98.1001 326C100 325.7 101.9 325.4 103.7 325.1C111.3 330.3 119.4 334.8 127.8 338.6C128.5 340.3 129.2 342 130 343.8C128.2 344.5 126.4 345.1 124.6 345.8Z" fill="#D3B752"/>
<path d="M133.2 313.4L132.3 313L131.8 312.8L131.3 312.5L127.6 310.5C127 310.2 126.4 309.9 125.8 309.5L124 308.4L120.4 306.3L117 304L115.3 302.8C114.7 302.4 114.2 302 113.6 301.6L111.4 304.6C112 305 112.5 305.5 113.1 305.9L114.9 307.1L118.4 309.5L122.1 311.7L123.9 312.8C124.5 313.2 125.1 313.5 125.8 313.8L129.6 315.8L130.1 316.1L130.6 316.3L131.6 316.8L133.5 317.7C136 319 138.7 320 141.3 321.2L142.7 317.8C140.2 316.7 137.6 315.7 135.1 314.4L133.2 313.4Z" fill="#D3B752"/>
<path d="M231.5 368.2L230.2 362.4C229.1 364 228 365.6 226.8 367.1L225 369.5C224.4 370.3 223.8 371 223.2 371.8L223.6 374.4L224.4 378.9C200.4 383 175.9 382.3 152.2 377L153.2 372.5L153.8 369.9C153.2 369.1 152.7 368.4 152.1 367.5L150.5 365.1C149.4 363.5 148.4 361.9 147.4 360.3L145.9 365.9C147 367.6 148.1 369.3 149.3 371L147.2 379.6L149.4 380.1C150.1 380.3 150.9 380.4 151.6 380.6C175.8 386 200.8 386.6 225.3 382.5V382.7C226 382.6 226.8 382.5 227.5 382.3L229.7 381.8V381.7H229.9L229.2 378.1H229L228 373C229.1 371.5 230.3 369.9 231.5 368.2Z" fill="#D3B752"/>
<path d="M220.3 333.9L218.6 325L217.1 325.3C216.6 325.4 216.1 325.5 215.5 325.5L216.9 333.8L217.3 336.4C218 337 218.7 337.5 219.4 338.1L221.6 339.7C223 340.8 224.5 341.8 226 342.8L224.7 337.1C223.2 336.1 221.7 335 220.3 333.9Z" fill="#D3B752"/>
<path d="M160.8 323.7L158.7 332.3L154.2 335.3L152.7 340.9C154.2 339.9 155.7 339 157.2 338L159.4 336.6C160.1 336.1 160.8 335.6 161.5 335.1L162.1 332.5L163.9 324.4C163.4 324.3 162.9 324.2 162.4 324.1L160.8 323.7Z" fill="#D3B752"/>
<path d="M212.1 341.7C210.4 340.3 208.8 339 207.3 337.6C204.3 338 201.3 338 198.3 338.2C196.8 338.3 195.3 338.3 193.8 338.3H189.3L184.8 338.1C183.3 338 181.8 338 180.3 337.8C177.3 337.5 174.3 337.3 171.4 336.7C169.8 338 168.1 339.3 166.4 340.5C164.7 341.7 162.9 342.9 161.1 344.1C157.5 346.5 153.8 348.6 149.9 350.7C152.2 354.4 154.7 358.2 157.4 361.8C158.7 363.6 160.1 365.4 161.6 367.3C163.1 369.1 164.5 370.8 166.1 372.6C169.8 373.2 173.5 373.5 177.2 373.9C179.1 374.1 180.9 374.2 182.8 374.3L188.4 374.6H194C195.9 374.6 197.7 374.6 199.6 374.5C203.3 374.3 207.1 374.2 210.8 373.7C212.4 372 214 370.3 215.5 368.7C217 366.9 218.5 365.2 219.9 363.4C222.8 360 225.4 356.3 227.9 352.7C224.1 350.4 220.5 348.1 217 345.5C215.4 344.2 213.8 342.9 212.1 341.7ZM220.5 352.3L221.6 353C222 353.2 222.3 353.5 222.7 353.7C222.4 354.1 222.2 354.4 221.9 354.8L221.1 355.8L219.5 357.9C218.4 359.3 217.3 360.7 216.1 362.1C215 363.5 213.8 364.8 212.5 366.2C211.3 367.5 210 368.9 208.8 370.2C208 370.3 207.1 370.4 206.3 370.4L203.8 370.5L198.7 370.8C197.9 370.9 197 370.9 196.2 370.8H188.6L183.5 370.5L181 370.4C180.2 370.4 179.3 370.3 178.5 370.2L173.5 369.7L171 369.4C170.2 369.3 169.3 369.2 168.5 369C167.3 367.6 166.1 366.2 165 364.8C163.9 363.4 162.7 362 161.6 360.6C160.5 359.1 159.5 357.7 158.4 356.3L156.9 354.2L156.2 353.1C156 352.7 155.7 352.4 155.5 352C155.9 351.8 156.3 351.6 156.6 351.4L157.7 350.7L159.9 349.3C161.4 348.4 162.8 347.4 164.2 346.5C165.6 345.6 167 344.6 168.4 343.6C169.8 342.6 171.1 341.6 172.4 340.6C173.1 340.7 173.8 340.8 174.5 340.9L176.6 341.1L180.8 341.5C181.5 341.6 182.2 341.6 182.9 341.6L185 341.7L189.2 341.9H195.6H197.7L201.9 341.7L204 341.6C204.7 341.6 205.4 341.5 206.1 341.4C207.4 342.5 208.7 343.6 210 344.6C211.3 345.7 212.7 346.8 214 347.8C215.4 348.8 216.8 349.8 218.2 350.8L220.5 352.3Z" fill="#D3B752"/>
<path d="M206.2 350.2L205.2 349.4L204.2 348.5L200.4 348.7L198.5 348.8C197.9 348.8 197.2 348.9 196.6 348.9H189.1L181.6 348.5C181 348.5 180.4 348.4 179.7 348.3L177.8 348.1L174.1 347.7L173 348.5L171.9 349.3L169.7 350.9C168.2 352 166.7 353 165.2 354.1C166.3 355.6 167.5 357 168.6 358.5L170.4 360.7L171.3 361.8L172.2 362.9L176.3 363.3L178.4 363.5C179.1 363.6 179.8 363.7 180.4 363.7L188.6 364.1H196.8C197.5 364.1 198.2 364 198.9 364L201 363.9L205.1 363.7L206.1 362.7L207.1 361.6L209 359.5C210.2 358.1 211.5 356.7 212.7 355.3C211.2 354.2 209.8 353 208.3 351.9L206.2 350.2ZM206.2 356.9C205.9 357.3 205.6 357.6 205.2 358L203.3 360.1L199.7 360.3C198.5 360.4 197.3 360.4 196.1 360.4H188.8L181.5 360C180.3 360 179.1 359.8 177.9 359.7L174.3 359.3L172.5 357.2C172.2 356.8 171.9 356.5 171.6 356.1L170.7 355L171.8 354.2C172.2 353.9 172.6 353.7 172.9 353.4L175.1 351.7L178.5 352C179.6 352.1 180.8 352.3 181.9 352.3L188.8 352.6H195.7C196.9 352.6 198 352.5 199.2 352.5L202.7 352.3L204.9 354.1C205.3 354.4 205.6 354.7 206 355L207.1 355.9L206.2 356.9Z" fill="#D3B752"/>
<path d="M204.2 327C203.9 327 203.5 327.1 203.2 327.1L202.2 327.2L198 327.4C196.6 327.5 195.2 327.5 193.8 327.5H189.6L185.4 327.3C184 327.2 182.6 327.2 181.2 327C178.4 326.7 175.7 326.5 172.9 326L172.4 329.7C175.2 330.2 178.1 330.4 180.9 330.7C182.3 330.9 183.7 330.9 185.2 331L189.5 331.2H193.8C195.2 331.2 196.7 331.2 198.1 331.1L202.4 330.9H203.5C203.9 330.9 204.2 330.8 204.6 330.8L206.7 330.6L206.3 326.9L204.2 327Z" fill="#D3B752"/>
<path d="M282.5 305.2L276.9 298.2C276.5 298.5 276.1 298.9 275.7 299.2L274.4 300.1L279.5 306.8L281.1 308.9L283.7 309.4C284.6 309.6 285.5 309.7 286.3 309.8C288.1 310.1 289.9 310.3 291.7 310.5L287.9 306C286.1 305.7 284.2 305.5 282.5 305.2Z" fill="#D3B752"/>
<path d="M230.3 331L228.1 323L225.1 323.8L227.2 332.4L225.9 334.8C225.5 335.6 225 336.4 224.6 337.2L225.8 342.8C226.3 342 226.7 341.3 227.2 340.5L228.5 338.2C229.4 336.6 230.2 335.1 231 333.6L230.3 331Z" fill="#D3B752"/>
<path d="M290 317.5L288.4 317.3L285.2 316.9L282 316.4C281 316.2 279.9 316.1 278.9 315.9C276.8 315.5 274.8 315 272.7 314.6C272.1 315 271.5 315.4 270.8 315.8L268.9 317L265 319.3L261.1 321.4L259.2 322.5C258.6 322.8 257.9 323.1 257.2 323.5L253.2 325.4L252.7 325.6L252.2 325.8L251.2 326.2L249.1 327.1L247 328C246.7 328.1 246.4 328.3 246 328.4L244.9 328.8L240.7 330.3L240.1 331.7C239.9 332.2 239.7 332.6 239.5 333.1C239 334 238.6 335 238.1 335.9C237.2 337.8 236.2 339.7 235.1 341.6C234.1 343.5 232.9 345.3 231.8 347.1C231.2 348 230.7 349 230.1 349.9L229.7 350.6L229.2 351.2L228.3 352.5L229.7 353.4L230.4 353.8L231.1 354.2C232.1 354.7 233 355.3 234 355.8C236 356.9 238 357.9 240 358.9C242 359.9 244.1 360.8 246.2 361.7C247.3 362.2 248.3 362.6 249.4 363.1C249.9 363.3 250.5 363.6 251 363.7L252.6 364.3L257.9 362.4L259.2 361.9C259.6 361.7 260.1 361.5 260.5 361.4L263.1 360.3L265.7 359.2L267 358.7L267.6 358.4L268.2 358.1L273.2 355.7C274 355.3 274.9 354.9 275.7 354.5L278.2 353.2L283.1 350.5L287.9 347.6L290.3 346.1C291.1 345.6 291.9 345.1 292.6 344.6C293.2 342.3 293.9 340.1 294.4 337.9C294.7 336.8 294.9 335.7 295.2 334.5C295.4 333.4 295.7 332.3 295.9 331.1C296.1 330 296.3 328.9 296.5 327.8L296.8 326.2C296.9 325.7 297 325.1 297.1 324.5C297.4 322.3 297.7 320.1 298 317.9C295.8 317.8 293.6 317.6 291.5 317.4C291 317.6 290.5 317.5 290 317.5ZM291.9 332.1C291.7 333 291.5 333.8 291.3 334.7L290.7 337.3C290.2 339.1 289.8 340.8 289.3 342.6C288.6 343.1 287.9 343.5 287.2 343.9L285 345.2L282.8 346.5C282.1 346.9 281.4 347.4 280.6 347.8L276.1 350.2L273.9 351.4C273.1 351.8 272.4 352.1 271.6 352.5L267 354.7C266.6 354.9 266.2 355.1 265.9 355.2L264.7 355.7L262.4 356.7C260.8 357.3 259.3 358 257.7 358.6L252.9 360.3L250.4 359.3L249.1 358.8C248.7 358.6 248.3 358.4 247.8 358.3C246.1 357.6 244.5 356.8 242.8 356.1L240.4 355C239.6 354.6 238.8 354.3 238 353.8C236.4 353 234.9 352.1 233.3 351.3C234.2 349.8 235.1 348.3 236 346.9C236.4 346.2 236.9 345.4 237.3 344.6L238.5 342.3C239.3 340.8 240.1 339.3 240.9 337.8C241.1 337.4 241.3 337.1 241.5 336.7L242 335.5L243 333.2L247 331.7C248.3 331.2 249.6 330.6 250.9 330.1L252.8 329.3L253.8 328.9C254.1 328.8 254.4 328.6 254.8 328.4L258.6 326.6C259.2 326.3 259.9 326 260.5 325.7L262.4 324.7L266.1 322.7C266.7 322.4 267.3 322 267.9 321.6L269.7 320.5L271.5 319.4C272.1 319 272.7 318.7 273.3 318.3C274.9 318.7 276.5 319 278.2 319.3L280.7 319.8C281.5 320 282.4 320.1 283.2 320.2C286.5 320.7 290 321.1 293.5 321.5C293.3 325.1 292.7 328.5 291.9 332.1Z" fill="#D3B752"/>
<path d="M277.6 326.2L274.9 325.6C266.4 330.9 257.4 335.3 248 338.9C247.2 340.5 246.5 342.2 245.6 343.8C245.2 344.6 244.8 345.5 244.4 346.3L243.1 348.7L245.6 349.9C246.4 350.3 247.3 350.6 248.2 351C249.9 351.7 251.7 352.4 253.4 353.1C263.7 349.2 273.6 344.3 282.9 338.5L283.7 335.8C283.9 334.9 284.2 334 284.4 333C284.9 331.2 285.3 329.4 285.7 327.6C283.9 327.3 282.1 327 280.3 326.7C279.4 326.5 278.5 326.3 277.6 326.2ZM279.6 336.2C271.3 341.2 262.6 345.5 253.6 349.1C251.8 348.4 250 347.6 248.3 346.9C249.2 345.2 250 343.5 250.8 341.9C259.4 338.5 267.7 334.4 275.6 329.6C277.4 330 279.3 330.4 281.1 330.8C280.7 332.5 280.2 334.3 279.6 336.2Z" fill="#D3B752"/>
<path d="M310.8 340.3L310.7 340.4L307.5 336.4C307.8 334.3 308.1 332.3 308.4 330.3L304.6 325.8C304.4 327.7 304.1 329.6 303.8 331.6C303.7 332.6 303.5 333.5 303.3 334.5L302.8 337.4L304.4 339.5L307.2 343.1L306.8 343.4L302.7 346.4C302.1 346.9 301.3 347.4 300.6 347.9L298.5 349.3C297.1 350.2 295.7 351.2 294.3 352.1L289.9 354.8L287.7 356.1C287.3 356.3 287 356.5 286.6 356.7L285.5 357.3L281 359.7L278.8 360.9L276.5 362C265.6 367.4 254.1 371.7 242.4 374.9L241.2 370.5L240.5 368C238.8 367.1 237.1 366.2 235.3 365.3L232.8 363.9C232 363.4 231.1 362.9 230.3 362.4L231.5 368C232.4 368.5 233.3 369 234.1 369.5L236.8 370.9L238.9 379.5C240 379.2 241.1 378.9 242.3 378.6L243.3 378.3C255.3 375 266.9 370.6 278.1 365.2L280.4 364.1L282.7 362.9L287.3 360.4L288.4 359.8C288.8 359.6 289.1 359.4 289.5 359.2L291.7 357.8L296.2 355.1C297.7 354.2 299.1 353.2 300.5 352.2L302.7 350.7C303.4 350.2 304.1 349.7 304.8 349.2L309 346.1L309.4 345.8L309.5 345.9L311.3 344.5C311.9 344 312.5 343.6 313.1 343.1L313 343L313.1 342.9L310.8 340.3Z" fill="#D3B752"/>
<path d="M265.1 306.5L263.3 307.6L259.7 309.8L256 311.8L254.2 312.8C253.6 313.1 253 313.4 252.3 313.7L248.6 315.5C248 315.8 247.3 316.1 246.7 316.3L244.8 317.1L242.9 317.9C242.6 318 242.3 318.2 241.9 318.3L240.9 318.6L237 320L238.2 323.5L242.2 322L243.2 321.6C243.5 321.5 243.8 321.3 244.2 321.2L246.1 320.4L248 319.6C248.6 319.3 249.3 319.1 249.9 318.7L253.8 316.8C254.4 316.5 255.1 316.2 255.7 315.9L257.6 314.9L261.4 312.9L265.1 310.7L266.9 309.6C267.5 309.2 268.1 308.8 268.7 308.4L266.7 305.3C266.2 305.7 265.6 306.1 265.1 306.5Z" fill="#D3B752"/>
<path d="M324.2 250.8L315.9 247.2L315.3 248.7L314.6 250.1L322.2 253.7L324.6 254.8C325.5 254.5 326.3 254.3 327.2 254L329.7 253.1C331.4 252.5 333.1 251.9 334.8 251.2L329.4 249C327.7 249.6 326 250.2 324.2 250.8Z" fill="#D3B752"/>
<path d="M290 297.9L284.4 291.8L282.1 293.9L288 300.5V303.2L287.9 305.9L291.6 310.3L291.7 307.7C291.7 306.8 291.7 305.9 291.8 305V299.7L290 297.9Z" fill="#D3B752"/>
<path d="M336.6 258.2L335.1 258.8C334.1 259.2 333.1 259.5 332.1 259.9C330.1 260.6 328.1 261.3 326.1 261.9C324.1 262.5 322 263 320 263.6L318.9 265.6C318.5 266.2 318.1 266.9 317.7 267.5L315.4 271.3C314.6 272.6 313.7 273.8 312.9 275C312.1 276.2 311.2 277.5 310.3 278.7L307.6 282.3C307.4 282.6 307.2 282.9 306.9 283.2L306.2 284.1L304.8 285.8L303.4 287.5L302.7 288.4L301.9 289.2L298.9 292.5C299.1 294.6 299.1 296.7 299.1 298.8V305.2C299.1 307.4 298.9 309.5 298.8 311.7C298.7 312.8 298.6 313.9 298.6 315C298.5 316.1 298.4 317.2 298.2 318.2C299.3 318.3 300.4 318.3 301.5 318.4C302.6 318.4 303.7 318.4 304.8 318.5H311.6C313.9 318.4 316.1 318.3 318.4 318.1C320.7 317.9 323.1 317.8 325.3 317.5L329.1 313.4L330 312.4L330.9 311.3L332.7 309.1L334.5 306.9L335.4 305.8C335.7 305.4 336 305.1 336.3 304.7L339.7 300.2C340.8 298.7 341.9 297.2 342.9 295.6C344 294.1 345 292.5 346 290.9L348.9 286.1C349.4 285.3 349.9 284.5 350.3 283.7L351.7 281.2C351.2 278.9 350.7 276.6 350.2 274.4C349.7 272.2 349 269.9 348.4 267.7C348.1 266.6 347.8 265.5 347.4 264.5L346.9 262.9L346.4 261.3C345.7 259.2 344.9 257.1 344.1 255C342.1 255.9 340.1 256.8 338.1 257.6L336.6 258.2ZM342 260.1C342.3 260.9 342.6 261.8 342.8 262.6L343.6 265.1C344.1 266.8 344.6 268.5 345.1 270.3C345.2 270.7 345.4 271.2 345.5 271.6L345.8 272.9L346.4 275.5C346.8 277.3 347.2 279.1 347.6 280.9L347 282L346.4 283.1L345.1 285.3C344.2 286.7 343.4 288.2 342.4 289.6L339.6 293.8L338.2 295.9L337.8 296.4L337.4 296.9L336.6 298C334.6 300.7 332.6 303.4 330.4 306L327.2 309.9L323.8 313.6L321.1 313.9C320.2 314 319.3 314.1 318.4 314.1C316.6 314.2 314.8 314.3 313 314.4L310.3 314.5C309.4 314.5 308.5 314.6 307.6 314.6C305.8 314.6 304 314.6 302.3 314.5C302.4 312.7 302.6 311 302.7 309.3C302.8 308.5 302.8 307.6 302.8 306.7V304.1V299C302.8 298.2 302.8 297.3 302.7 296.5L302.6 294L305.5 290.9L308.2 287.6C310.1 285.5 311.7 283.2 313.4 280.9L314 280L314.3 279.6L314.6 279.2L315.8 277.4L318.2 273.9C319 272.7 319.7 271.5 320.4 270.3L321.5 268.5L322.1 267.6L322.6 266.7C324.2 266.3 325.8 265.8 327.5 265.3L330 264.6L331.2 264.2C331.6 264.1 332 263.9 332.4 263.8C334 263.2 335.6 262.7 337.3 262.1L339.7 261.2C340.4 260.7 341.2 260.4 342 260.1Z" fill="#D3B752"/>
<path d="M329.7 271.6C328.8 271.9 327.9 272.1 327.1 272.3C322 280.9 316.1 289 309.4 296.5C309.5 298.3 309.5 300.1 309.6 301.9V304.7L309.5 307.4L312.3 307.3L315.1 307.1C317 307 318.8 306.8 320.7 306.6C328 298.4 334.5 289.5 340.1 280C339.9 279.1 339.7 278.2 339.5 277.2L338.9 274.4C338.5 272.6 338 270.8 337.5 269C335.7 269.6 334 270.2 332.2 270.7L329.7 271.6ZM335.5 276.8L336.1 279.6C331.1 287.9 325.4 295.7 319.1 303C317.2 303.2 315.3 303.4 313.4 303.5C313.4 301.6 313.3 299.7 313.2 297.9C319.2 290.9 324.7 283.4 329.5 275.5L332.2 274.8C333.1 274.5 334 274.3 334.9 274C335.2 274.9 335.4 275.8 335.5 276.8Z" fill="#D3B752"/>
<path d="M369.1 270.3L365.7 268.8C365.7 268.9 365.7 268.9 365.6 269L360.9 266.9C360.2 264.9 359.6 263 358.9 261.1L353.5 258.9C354.2 260.7 354.8 262.5 355.5 264.4L356.5 267.2C356.8 268.1 357.1 269.1 357.3 270L359.7 271.1L363.8 273L363.6 273.5L361.4 278.1L360.8 279.2L360.2 280.3L359 282.5L356.6 287C355.7 288.5 354.8 289.9 354 291.4L352.7 293.6C352.3 294.3 351.8 295.1 351.3 295.8L348.4 300L347 302.1C346.8 302.5 346.5 302.8 346.3 303.1L345.5 304.1C338.3 313.9 330.2 323 321.3 331.3L318 328L316.2 326.1H310.4H307.5L304.6 326L308.3 330.4L311.4 330.5H314.4L320.3 337.2L323.6 334.2C332.7 325.8 341 316.5 348.3 306.4L349.1 305.4C349.4 305.1 349.6 304.7 349.9 304.3L351.4 302.1L354.3 297.8C354.8 297.1 355.2 296.3 355.7 295.6L357.1 293.4C358 291.9 358.9 290.4 359.8 288.9L362.3 284.3L363.5 282L364.1 280.9L364.7 279.7L367 275L367.2 274.5L367.3 274.6L368.3 272.6L369.2 270.5L369.1 270.4C369 270.3 369 270.3 369.1 270.3Z" fill="#D3B752"/>
<path d="M309.5 260C309.2 260.6 308.8 261.2 308.4 261.8L306.2 265.4L305.6 266.3L305 267.2L303.8 268.9C303 270 302.3 271.2 301.4 272.3L298.9 275.6C298.7 275.9 298.5 276.2 298.3 276.4L297.7 277.2L296.4 278.8L295.1 280.4L294.5 281.2L293.8 282L291 285L293.7 287.5L296.6 284.3L297.3 283.5L298 282.7L299.4 281L300.8 279.4L301.5 278.6C301.7 278.3 301.9 278 302.1 277.7L304.7 274.3C305.6 273.2 306.4 272 307.2 270.8L308.4 269L309 268.1C309.2 267.8 309.4 267.5 309.6 267.2L311.8 263.6C312.2 263 312.5 262.4 312.9 261.8L313.9 259.9L310.7 258.1L309.5 260Z" fill="#D3B752"/>
<path d="M337.9 181.2C337.6 181.5 337.3 181.8 337 182.2L336 183.2L327 183.8L327.2 187L335.6 186.6L338.3 186.5C339.6 185.3 340.8 184 342.1 182.7L343 181.7L343.9 180.7L345.7 178.7L339.9 179.3L337.9 181.2Z" fill="#D3B752"/>
<path d="M330 241.7L327.5 240.8L319.7 238L318.6 240.9L326.9 244.1L328.2 246.5C328.6 247.3 329 248.1 329.4 248.9L334.7 251.1C334.3 250.3 334 249.5 333.6 248.7L332.4 246.3C331.7 244.8 330.9 243.2 330 241.7Z" fill="#D3B752"/>
<path d="M353 180.9L352.5 181.5L351.4 182.7C350 184.4 348.5 186 347.1 187.5C345.7 189.1 344.2 190.6 342.6 192.1C341.1 193.6 339.6 195 338.1 196.4C337.8 208.4 336.1 220.3 332.9 231.8L333.7 233.1C334 233.6 334.2 234 334.5 234.5C335 235.4 335.5 236.3 336 237.2C337 239 338 240.9 339 242.9C340 244.8 340.8 246.8 341.7 248.8C342.1 249.8 342.6 250.8 343 251.8C343.2 252.3 343.4 252.8 343.6 253.3L344.2 254.8L345.7 254.1C346.2 253.9 346.7 253.6 347.2 253.4L350.2 251.9C352.2 250.9 354.2 249.8 356.2 248.7C358.1 247.6 360.1 246.4 362.1 245.2C363.1 244.6 364 244 365.1 243.3C365.6 243 366.1 242.7 366.6 242.3L368 241.3C372 226.9 374.1 212 374.5 197C373 195.2 371.5 193.4 370 191.7C368.5 190 367 188.3 365.4 186.7C363.8 185.1 362.2 183.5 360.6 181.9L359.4 180.8L358.8 180.2L358.2 179.6C357.4 178.9 356.5 178.1 355.7 177.4C355.1 178.3 354.3 179.1 353.7 180L353 180.9ZM355.9 183.2C357.2 184.4 358.4 185.6 359.7 186.9L361.6 188.8C362.2 189.4 362.8 190.1 363.4 190.7C364.6 192 365.8 193.4 367 194.7L368.8 196.8C369.1 197.1 369.4 197.5 369.7 197.9L370.6 199C370.2 212.5 368.2 226 364.7 239L362.4 240.5L361.3 241.2L360.1 241.9C358.5 242.9 357 243.8 355.5 244.7L353.2 246C352.4 246.4 351.7 246.9 350.9 247.3C349.3 248.1 347.7 248.9 346.2 249.7C345.5 248.1 344.8 246.5 344.1 244.9C343.8 244.1 343.4 243.3 343 242.6L341.8 240.3L339.4 235.8L338.8 234.7L338.2 233.6L336.9 231.4C339.8 220.4 341.4 209.2 341.8 197.9L342.7 197.1C343 196.8 343.3 196.5 343.6 196.2L345.4 194.4C346.6 193.2 347.8 192 349 190.8C349.6 190.2 350.2 189.6 350.8 188.9L352.5 187C353.6 185.9 354.8 184.5 355.9 183.2Z" fill="#D3B752"/>
<path d="M348.4 201C347.9 211 346.5 220.9 344.1 230.7C345 232.2 345.9 233.8 346.8 235.4C347.2 236.2 347.7 237 348.1 237.8L349.3 240.2L351.7 238.8L354.1 237.3C355.7 236.3 357.2 235.3 358.8 234.2C361.4 223.5 363 212.6 363.5 201.6C362.3 200.1 361.1 198.7 359.9 197.3C358.7 195.9 357.4 194.5 356.1 193.2C354.8 194.5 353.5 195.9 352.3 197.1C351.1 198.5 349.7 199.8 348.4 201ZM359.8 203.2C359.2 212.9 357.8 222.5 355.6 231.9C354 233 352.4 234 350.8 235C349.9 233.3 349 231.7 348 230.1C350.1 221.1 351.4 212 352 202.7C353.4 201.4 354.7 200.1 356.1 198.8C357.4 200.2 358.6 201.7 359.8 203.2Z" fill="#D3B752"/>
<path d="M384.9 184.3H385L384.8 179.8H384.6V179.6L380.9 179.9V180.1L375.8 180.5L374.7 179.4L373.6 178.3L371.3 176.2L365.5 176.7L367.7 178.6L368.8 179.6L369.8 180.6C371.2 181.9 372.6 183.3 374 184.7L376.7 184.6L381.3 184.4C381.8 196.5 381.2 208.6 379.5 220.5C377.7 232.6 374.8 244.4 370.8 255.9L366.5 254.4L364 253.5C362.3 254.4 360.6 255.3 358.8 256.2L356.3 257.5C355.4 257.9 354.5 258.3 353.7 258.7L359 260.9C359.9 260.5 360.8 260 361.8 259.6L364.5 258.2L372.8 261.4C373.2 260.3 373.6 259.2 374 258L374.3 257.2C378.4 245.5 381.4 233.4 383.2 221.1C384.9 209 385.5 196.6 384.9 184.3Z" fill="#D3B752"/>
<path d="M326.3 208.7C326.2 209.4 326.2 210.1 326.1 210.8L325.8 212.9L325.2 217L324.4 221.1C323.9 223.8 323.1 226.5 322.5 229.2L326.1 230.2C326.8 227.4 327.6 224.7 328.1 221.9L329 217.7L329.6 213.5L329.9 211.4C330 210.7 330 210 330.1 209.3L330.5 205C330.5 204.6 330.6 204.3 330.6 203.9V202.8L330.7 200.7L330.8 198.6L330.9 197.5V196.4L327.2 196.3V197.3L327.1 198.3L327 200.4L326.9 202.5V203.5C326.9 203.8 326.8 204.2 326.8 204.5L326.3 208.7Z" fill="#D3B752"/>
<path d="M348.9 96.9001L345.9 96.0001C344.9 95.7001 343.9 95.5001 342.9 95.2001L338 98.4001C338.9 98.6001 339.9 98.8001 340.8 99.1001L343.6 99.9001C345.5 100.4 347.4 101 349.3 101.6L351.6 100.2L355.5 97.9001C361.6 108.3 366.7 119.3 370.8 130.8C371.1 131.6 371.4 132.4 371.7 133.2L372.5 135.6L374 140.5L374.4 141.7L374.7 142.9L375.3 145.4L376.6 150.4C377 152.1 377.3 153.7 377.6 155.4L378.1 157.9L378.4 159.2C378.5 159.6 378.6 160 378.6 160.5L379.4 165.6L379.5 166.3L375 167L372.4 167.4C370.3 170.6 368 173.8 365.7 176.8L371.5 176.3C372.7 174.7 373.9 173.1 375.1 171.4L383.9 170.3L383.8 169L383.7 168.3C383.7 168 383.6 167.7 383.6 167.4L383.5 166.5C383.5 166.3 383.4 166.1 383.4 165.9L383.3 165.2L382.5 160C382.4 159.6 382.4 159.1 382.3 158.7L382 157.4L381.5 154.8C381.1 153.1 380.8 151.4 380.4 149.7L379.1 144.6L378.5 142.1L378.2 140.8L377.8 139.6L376.3 134.6L375.5 132.1C375.2 131.3 374.9 130.5 374.6 129.6C370.5 118 365.3 106.7 359 96.1001L359.1 96.0001L356.7 92.1001L356.6 92.2001L356.5 92.1001L353.3 94.0001L353.4 94.1001L348.9 96.9001Z" fill="#D3B752"/>
<path d="M315.7 115.3L314.9 118L307.2 122.7L308.8 125.4L316.1 121.1L318.4 119.7C318.9 118 319.4 116.3 319.9 114.6L320.6 112C320.8 111.1 321 110.3 321.2 109.4L316.3 112.6C316.2 113.5 316 114.4 315.7 115.3Z" fill="#D3B752"/>
<path d="M326.4 177.1L335.2 176C336.7 177 338.1 178.1 339.6 179.2L345.3 178.7C342.5 176.5 339.7 174.4 336.7 172.5L334.1 172.9L326 174C326.2 175 326.4 176 326.4 177.1Z" fill="#D3B752"/>
<path d="M363.3 166.8C363.9 165.9 364.5 164.9 365.2 163.9L366.1 162.4C366.4 161.9 366.7 161.4 367 160.9C368.1 158.9 369.3 156.9 370.4 154.8L369.8 152.1L369.1 149.4L367.7 144C367.2 142.2 366.6 140.4 366 138.6L365.2 135.9L365 135.3L364.8 134.7L364.3 133.4L362.4 128.1C362.2 127.7 362.1 127.2 361.9 126.8L361.4 125.5L360.3 122.9L359.2 120.3L358.7 119C358.5 118.6 358.3 118.2 358.1 117.7L355.7 112.6C353.6 111.7 351.4 110.8 349.2 110C347 109.2 344.9 108.4 342.7 107.7C340.5 107 338.3 106.4 336.2 105.7C335.1 105.4 334.1 105.1 333 104.8L332.2 104.6L331.4 104.4L329.8 104L329.5 105.6L329.4 106.4L329.2 107.2C329 108.3 328.7 109.3 328.5 110.4L327 116.7C326.5 118.7 325.9 120.8 325.2 122.8C324.6 124.8 323.9 126.8 323.2 128.7L325.1 132.7C325.3 133 325.4 133.3 325.6 133.7L326 134.7L326.9 136.8L327.8 138.9L328.2 139.9C328.3 140.2 328.5 140.6 328.6 141L330.1 145.2L330.5 146.3L330.7 146.8L330.9 147.3L331.5 149.4C331.9 150.8 332.4 152.2 332.8 153.7L333.9 158L334.5 160.2C334.7 160.9 334.8 161.7 335 162.4C336.8 163.5 338.5 164.6 340.3 165.8C340.7 166.1 341.2 166.4 341.6 166.7L342.9 167.6C343.8 168.2 344.6 168.8 345.5 169.5C347.2 170.8 349 172.1 350.7 173.4C352.4 174.8 354 176.2 355.7 177.6C357 175.9 358.4 174.1 359.7 172.3C360.8 170.5 362 168.7 363.3 166.8ZM354.9 172.2C352.1 170 349.4 167.9 346.6 165.9C343.8 163.9 340.9 162.1 338.1 160.3C338 159.6 337.8 158.9 337.6 158.2L337.1 156.1L336.6 154L336.3 153L336.2 152.5L336 152L334.7 147.9L334.1 145.9C333.9 145.2 333.6 144.6 333.4 143.9C332.4 141.2 331.5 138.6 330.4 136L328.8 132.1L327 128.3L327.9 125.9C328.2 125.1 328.5 124.3 328.7 123.5C329.2 121.9 329.7 120.3 330.2 118.6C330.7 117 331.1 115.3 331.6 113.6C332 111.9 332.4 110.2 332.7 108.5C334.4 109 336.1 109.5 337.8 110C339.5 110.5 341.2 111.1 342.8 111.7C344.4 112.3 346.2 112.9 347.9 113.6C348.8 113.9 349.6 114.2 350.4 114.6L352.9 115.7L355.1 120.3L357.1 125C358.5 128.1 359.6 131.3 360.7 134.5C361 135.3 361.3 136.1 361.5 136.9L362.3 139.3L363.8 144.1L364 144.7L364.2 145.3L364.5 146.5L365.1 149L365.7 151.5C365.9 152.3 366.1 153.1 366.3 154C364.5 157.2 362.7 160.4 360.8 163.4C358.9 166.4 356.9 169.4 354.9 172.2Z" fill="#D3B752"/>
<path d="M342.8 119.3L340.2 118.3C339.3 118 338.4 117.7 337.6 117.4C337.4 118.3 337.1 119.2 336.9 120L336.1 122.6C335.5 124.3 335 126.1 334.4 127.8C338.6 136.9 341.9 146.4 344.3 156.1L346.6 157.5C347.4 158 348.1 158.5 348.9 159C350.4 160 351.9 161.1 353.4 162.1C354.4 160.5 355.4 159 356.3 157.3C356.8 156.5 357.3 155.7 357.7 154.8L359 152.3C356.4 141.6 352.7 131.2 348.1 121.2C346.3 120.7 344.6 120 342.8 119.3ZM352.2 156.8C350.6 155.7 349 154.7 347.4 153.8C345.1 144.9 342.1 136.1 338.3 127.7C338.9 125.9 339.5 124.2 340.1 122.4C341.9 123 343.6 123.8 345.4 124.5C349.4 133.3 352.6 142.5 355 151.9C354 153.5 353.1 155.2 352.2 156.8Z" fill="#D3B752"/>
<path d="M320.1 139.7L319.3 137.7L318.9 136.7L318.4 135.7L316.5 131.8L313.2 133.5L315 137.2L315.5 138.1L315.9 139.1L316.7 141L317.5 142.9C317.8 143.5 318.1 144.2 318.3 144.8L319.7 148.7L320.1 149.7L320.3 150.2L320.4 150.7L321 152.7L322.2 156.7L323.2 160.7L323.7 162.7C323.9 163.3 324 164.1 324.1 164.7L327.7 163.9C327.6 163.2 327.4 162.5 327.3 161.8L326.8 159.7L325.7 155.6L324.4 151.5L323.8 149.5L323.6 149L323.4 148.5L323 147.5L321.5 143.5C321.3 142.8 321 142.2 320.7 141.5L320.1 139.7Z" fill="#D3B752"/>
<path d="M277.4 41.9L280.2 41.2C281.1 41 282.1 40.8 283 40.6C284.9 40.2 286.8 39.8 288.8 39.5L290.2 37.2L292.6 33.3C302.8 39.7 312.5 47.1 321.3 55.3C321.9 55.9 322.6 56.4 323.2 57L325 58.8L328.6 62.4L329.5 63.3L330.4 64.2L332.1 66.1L335.5 69.9L338.7 73.8L340.3 75.8L341.1 76.8C341.4 77.1 341.6 77.5 341.9 77.8L345 81.8999L345.4 82.5L341.7 85.2L339.6 86.7C339.5 87.7 339.4 88.6 339.3 89.6L338.9 92.5C338.6 94.4 338.3 96.3 338 98.2L342.8 95C343.1 93 343.4 91 343.7 89L351 84L350.2 82.8L349.8 82.2L349.7 82L349.6 81.8999L348.6 80.6L348.5 80.3999L348.1 79.8L345 75.6C344.7 75.3 344.5 74.9 344.2 74.6L343.4 73.6L341.8 71.6L338.5 67.6L335 63.7L333.3 61.8L332.4 60.8L331.5 59.9L327.8 56.3L326 54.5C325.4 53.9 324.7 53.3 324.1 52.7C315.1 44.3 305.3 36.8 294.8 30.2L294.9 30.1L291 27.7L290.9 27.8L290.8 27.7L288.9 30.9L289 31L286.4 35.4C285.4 35.6 284.4 35.8 283.4 36L280.4 36.7L277.4 41.9Z" fill="#D3B752"/>
<path d="M265.4 67.2C265.6 68.1 265.8 69 265.9 69.9L261.3 77.6L264 79.2L268.5 72.1L269.9 69.8C269.6 68.1 269.3 66.3 268.9 64.5C268.7 63.6 268.5 62.7 268.3 61.8L267.7 59.2L264.8 64.3L265.4 67.2Z" fill="#D3B752"/>
<path d="M303.7 117L311 112C312.8 112.2 314.6 112.5 316.4 112.7L321.2 109.5C319.4 109.2 317.7 108.9 315.9 108.7L313.3 108.3C312.4 108.2 311.5 108.1 310.7 108L308.6 109.5L301.9 114.4C302.2 114.8 302.5 115.2 302.8 115.7L303.7 117Z" fill="#D3B752"/>
<path d="M274.4 57C275 59.1 275.5 61.2 275.9 63.3C276.4 65.4 276.7 67.5 277.1 69.6C277.3 70.6 277.5 71.7 277.6 72.7C277.7 73.2 277.8 73.7 277.8 74.2L278 75.8L281.6 78.5L282.5 79.1001C282.8 79.3001 283.1 79.6 283.4 79.8L285.1 81.2L286.8 82.6001C287.4 83.1001 288 83.5001 288.5 84.1001L291.8 87.2L292.6 88C292.9 88.3 293.2 88.5 293.4 88.8L295 90.4C296.1 91.5 297.1 92.5001 298.2 93.6001L301.2 96.9L302.7 98.6001L304.1 100.3C306.2 100.4 308.3 100.6 310.4 100.8C310.9 100.8 311.5 100.9 312 101L313.6 101.2C314.6 101.3 315.7 101.5 316.8 101.6C317.9 101.8 318.9 101.9 320 102.1L321.6 102.4L323.2 102.7C325.3 103.1 327.4 103.6 329.6 104.1C330 101.9 330.3 99.8 330.6 97.5L330.8 95.8L331 94.1001C331.1 93.0001 331.2 91.9 331.3 90.7C331.4 89.6 331.5 88.4 331.6 87.3L331.7 85.6001C331.7 85.0001 331.8 84.4 331.8 83.9C331.9 81.6 331.9 79.3 332 77L330.2 74.8L328.3 72.7L324.5 68.5C323.2 67.2 321.9 65.8 320.6 64.5L318.6 62.5C318.3 62.2 318 61.9 317.6 61.5L316.6 60.6L312.5 56.8C311.9 56.2 311.1 55.6 310.4 55L308.2 53.2L306 51.4C305.6 51.1 305.3 50.8 304.9 50.5L303.8 49.7L299.3 46.3L297.6 46.4C297 46.5 296.4 46.5 295.9 46.6C294.7 46.7 293.6 46.9 292.4 47C290.1 47.3 287.9 47.6 285.6 47.9C283.3 48.3 281.1 48.7 278.9 49.2C277.8 49.4 276.7 49.6 275.7 49.9C274.6 50.1 273.5 50.4 272.5 50.7C272.8 51.7 273.1 52.8 273.5 53.8C273.9 54.9 274.1 55.9 274.4 57ZM282.5 52.4C283.4 52.2 284.3 52.1 285.1 52L287.7 51.6C289.5 51.4 291.3 51.1 293.1 50.9L294.5 50.7L295.9 50.6L298.6 50.4L302.6 53.4C303.9 54.4 305.2 55.5 306.5 56.6L308.4 58.2L309.4 59L310.3 59.9L314 63.3C314.6 63.9 315.3 64.4 315.9 65L317.7 66.8L321.3 70.4L321.7 70.9L322.1 71.4L323 72.3L324.7 74.2L326.4 76.1001L327.3 77C327.6 77.3 327.8 77.6 328.1 78C328.1 79.9 328 81.7 328 83.5L327.9 86.2C327.9 87.1 327.8 88 327.7 88.9C327.5 90.7 327.4 92.5 327.2 94.2L326.9 96.8C326.8 97.7 326.7 98.5 326.6 99.4C325.8 99.2 324.9 99.1 324 98.9L321.4 98.5C319.7 98.2 318 98 316.3 97.7C315.5 97.6 314.6 97.5 313.8 97.4L311.2 97.1001C309.5 96.9001 307.8 96.8 306.2 96.7C306 96.4 305.8 96.1 305.5 95.9L304.8 95.1001L303.4 93.5L302 91.9L301.3 91.1001L300.9 90.7L300.5 90.3L297.5 87.3L296 85.8C295.5 85.3 295 84.8 294.4 84.4L291.3 81.5L290.5 80.8L289.7 80.1001L288 78.7C286.9 77.8 285.8 76.9 284.7 76L281.3 73.5L281 71L280.8 69.7L280.6 68.5C280.3 66.8 280 65.2 279.7 63.5L279.2 61C279 60.1 278.8 59.3 278.6 58.5C278.2 56.8 277.7 55.2 277.3 53.5C279 53.1 280.7 52.7 282.5 52.4Z" fill="#D3B752"/>
<path d="M286.8 64.4C287.1 66.2 287.4 68 287.6 69.8C295.6 75.9 302.9 82.7 309.6 90.3C310.5 90.4 311.4 90.4 312.3 90.5L315 90.8C316.8 91 318.6 91.1999 320.5 91.3999C320.6 89.5999 320.8 87.7 320.8 85.8L320.9 83V80.2C313.6 72 305.6 64.4 296.8 57.7C294.9 57.9 293 58 291.2 58.2C290.3 58.3 289.4 58.4 288.4 58.5L285.6 58.9L286.2 61.6C286.5 62.5 286.7 63.4 286.8 64.4ZM296 61.6C303.6 67.6 310.7 74.1999 317.2 81.3999V84.3C317.2 85.2 317.2 86.2 317.1 87.1C316.2 87 315.2 86.9 314.3 86.8L311.5 86.6C305.3 79.7 298.6 73.4 291.3 67.7C291 65.9 290.7 64 290.4 62.1C292.1 62 294 61.8 296 61.6Z" fill="#D3B752"/>
<path d="M279.8 90.8999C280.3 91.3999 280.9 91.8 281.4 92.2L284.5 95C285 95.5 285.5 95.8999 286 96.3999L287.5 97.8999L290.4 100.9L293.2 104L294.6 105.5L295.9 107.1L298.8 104.7L297.4 103L296 101.4L293.1 98.2L290.1 95.2L288.6 93.7C288.1 93.2 287.5 92.7 287 92.2L283.8 89.3C283.3 88.8 282.7 88.3999 282.2 87.8999L280.6 86.5C278.4 84.6 276.1 83 273.8 81.2L271.6 84.2C273.8 85.9 276.1 87.5 278.2 89.3L279.8 90.8999Z" fill="#D3B752"/>
<path d="M207 5.4C219.1 6.3 231 8.3 242.7 11.5C243.5 11.7 244.4 11.9 245.2 12.1L247.6 12.9L252.5 14.4C252.9 14.5 253.3 14.7 253.7 14.8L254.9 15.2L257.3 16.1L262.1 17.9C263.7 18.5 265.2 19.2 266.8 19.9L269.2 20.9C270 21.2 270.8 21.5 271.5 21.9L276.1 24.1L276.7 24.4L274.7 28.5L273.5 30.9L274.6 33.6C274.9 34.5 275.2 35.4 275.6 36.3C276.2 38.1 276.9 39.9 277.4 41.7L280.2 36.7C279.6 34.8 278.9 32.9 278.2 31L282.3 23.1L281.2 22.5L281.1 22.4L280.5 22.1L280.3 22L280 21.8L279.4 21.5L278.3 21L277.6 20.7L272.9 18.4C272.1 18 271.3 17.7 270.5 17.3L268.1 16.3C266.5 15.7 264.9 14.9 263.3 14.3L258.4 12.5L255.9 11.6L254.7 11.2C254.3 11.1 253.9 10.9 253.5 10.8L248.5 9.2L246 8.4C245.2 8.1 244.3 8 243.5 7.7C231.6 4.5 219.4 2.4 207.1 1.5C205.6 1.43 204.1 1.37 202.6 1.3C200.7 1.2 198.8 1.1 196.9 1V4.7" fill="#D3B752"/>
<path d="M255.5 74.3001L259.6 66.4001C261.3 65.8001 263 65.2001 264.7 64.6001L267.5 59.6001C265.8 60.1001 264.1 60.7001 262.5 61.3001C261.7 61.6001 260.9 61.9001 260 62.2001L257.5 63.2001L256.3 65.5001L252.6 72.9001L254 73.5001C254.6 73.7001 255.1 74.0001 255.5 74.3001Z" fill="#D3B752"/>
<path d="M278.81 23.2901C209.45 -11.4299 125.8 -0.929932 67.85 49.6601C11.71 98.6601 -10.58 176.75 11.11 248.64" stroke="#D3B752" stroke-width="4" stroke-miterlimit="10"/>
<path d="M25 207.74L25.49 175.24L37.1 175.42L36.97 184.21L32.14 184.14L31.98 194.62L38.69 194.72L38.81 186.61L45.32 186.71L45.2 194.82L53.08 194.94L53.24 184.46L47.2 184.37L47.33 175.58L59.53 175.77L59.04 208.27L52.89 208.18L52.95 203.89L31.84 203.57L31.78 207.86L25 207.74Z" fill="#FFFDFD"/>
<path d="M33.83 141L39.02 124.47L44.91 126.32L44.39 127.99L51.14 142.99L65.09 134.55L65.6 132.93L71.47 134.77L66.28 151.3L60.41 149.46L61.69 145.4L54.22 149.84L57.79 157.8L58.97 154.05L64.84 155.89L59.65 172.42L53.78 170.58L54.43 168.5L47.77 153.72L33.66 162.14L33.09 163.97L27.2 162.12L32.39 145.59L38.28 147.44L37 151.5L44.69 146.88L40.99 138.8L39.71 142.86L33.83 141Z" fill="#FFFDFD"/>
<path d="M45.95 111.45L56.58 95.8599C57.76 94.1199 59.08 92.6799 60.52 91.5299C61.96 90.3799 63.43 89.5399 64.91 89.0099C66.4 88.4799 67.84 88.2599 69.25 88.3499C70.66 88.4399 71.91 88.8599 72.99 89.5999C74.3 90.4899 75.37 91.5699 76.2 92.8099C77.03 94.0599 77.52 95.4599 77.7 97.0099C77.87 98.5599 77.69 100.26 77.16 102.09C76.63 103.92 75.6599 105.86 74.2599 107.91L71.06 112.61L76.42 116.27L78.53 113.17L83.61 116.64L74.07 130.62L68.99 127.15L71.37 123.65L53.43 111.41L51.05 114.91L45.95 111.45ZM58.48 104.04L66.03 109.19L68.11 106.14C69.26 104.45 69.88 102.9 69.97 101.5C70.06 100.1 69.45 98.9599 68.17 98.0799C66.97 97.2599 65.71 97.0899 64.39 97.5599C63.07 98.0299 61.79 99.1699 60.56 100.98L58.48 104.04Z" fill="#FFFDFD"/>
<path d="M74.4099 73.6699L99.4299 52.9199L106.84 61.8599L100.08 67.4699L96.9999 63.7499L88.9299 70.4399L93.2199 75.6099L99.4699 70.4299L103.63 75.4399L97.3799 80.6199L102.41 86.6899L110.48 79.9999L106.62 75.3499L113.38 69.7399L121.16 79.1299L96.1399 99.8799L92.2099 95.1399L95.5099 92.3999L82.0299 76.1499L78.7299 78.8799L74.4099 73.6699Z" fill="#FFFDFD"/>
<path d="M112.08 45.1499L132 36.7599C133.94 35.9399 135.77 35.4599 137.5 35.2999C139.23 35.1399 140.78 35.2499 142.17 35.6099C143.56 35.9699 144.75 36.5799 145.75 37.4099C146.76 38.2499 147.5 39.2399 147.99 40.3999C148.44 41.4599 148.69 42.4499 148.76 43.3699C148.82 44.2899 148.73 45.1599 148.47 45.9999C148.21 46.8399 147.8 47.6599 147.24 48.4599C146.68 49.2599 145.99 50.0499 145.18 50.8499C146.18 50.8499 147.15 51.0899 148.11 51.5499C149.07 52.0199 149.96 52.7699 150.78 53.7999L153.76 57.3399L156.86 56.0299L159.48 62.1099L148.55 66.7199L143.92 59.8999C143.4 59.0799 142.85 58.4099 142.27 57.8999C141.69 57.3899 141.06 57.0399 140.38 56.8499C139.69 56.6599 138.94 56.6199 138.13 56.7399C137.31 56.8599 136.4 57.1299 135.39 57.5499L132.19 58.8999L135.07 65.7299L138.52 64.2799L140.91 69.9499L125.31 76.5199L122.92 70.8499L126.82 69.2099L118.38 49.1999L114.48 50.8399L112.08 45.1499ZM126.62 45.7199L129.82 53.3199L134.76 51.2399C135.7 50.8399 136.52 50.4099 137.21 49.9499C137.9 49.4899 138.45 48.9899 138.86 48.4499C139.27 47.9099 139.52 47.3499 139.61 46.7599C139.7 46.1699 139.61 45.5499 139.34 44.8999C138.83 43.6899 137.91 42.9599 136.58 42.7199C135.25 42.4799 133.58 42.7899 131.56 43.6399L126.62 45.7199Z" fill="#FFFDFD"/>
<path d="M170.14 54.68L174.35 54.23L172.02 32.41L167.09 32.94L167.56 37.32L158.82 38.25L157.72 27.95L194.68 24L195.78 34.3L186.99 35.24L186.52 30.86L180.92 31.46L183.25 53.28L187.54 52.82L188.19 58.94L170.8 60.8L170.14 54.68Z" fill="#FFFDFD"/>
<path d="M225.26 37.4601C225.25 36.9301 225.11 36.4101 224.84 35.8901C224.57 35.3801 224.18 34.9101 223.69 34.4901C223.2 34.0701 222.63 33.7101 221.98 33.4201C221.33 33.1201 220.63 32.9101 219.88 32.8001C219.21 32.6901 218.57 32.6601 217.96 32.6801C217.36 32.7101 216.82 32.8101 216.34 32.9801C215.87 33.1601 215.47 33.4201 215.15 33.7601C214.83 34.1001 214.63 34.5401 214.55 35.0801C214.45 35.7501 214.54 36.3001 214.82 36.7501C215.1 37.2001 215.5 37.5901 216 37.9201C216.5 38.2501 217.07 38.5501 217.7 38.8001C218.33 39.0501 218.95 39.3101 219.54 39.5901L226.54 42.7801C227.51 43.2301 228.39 43.7901 229.2 44.4501C230.01 45.1101 230.68 45.8601 231.21 46.7001C231.74 47.5401 232.12 48.4701 232.34 49.4901C232.56 50.5101 232.58 51.6201 232.39 52.8201C232.14 54.4501 231.54 55.8801 230.61 57.1101C229.68 58.3401 228.49 59.3401 227.05 60.1001C225.6 60.8601 223.93 61.3601 222.04 61.6101C220.15 61.8601 218.1 61.8101 215.9 61.4701C214.36 61.2301 212.92 60.8601 211.59 60.3501C210.26 59.8501 209.07 59.2301 208.02 58.5101C206.97 57.7901 206.08 56.9801 205.34 56.0801C204.6 55.1801 204.08 54.2201 203.75 53.1801L201.01 52.7501L202.05 46.0701L211.69 47.5801L211.48 48.9601C211.38 49.6301 211.41 50.2601 211.58 50.8601C211.75 51.4601 212.06 52.0101 212.51 52.5101C212.96 53.0101 213.56 53.4301 214.3 53.7801C215.05 54.1301 215.94 54.3901 216.99 54.5501C218.59 54.8001 219.85 54.6801 220.78 54.2001C221.71 53.7201 222.26 52.9301 222.43 51.8301C222.52 51.2701 222.44 50.7801 222.21 50.3501C221.98 49.9301 221.65 49.5501 221.23 49.2201C220.81 48.8901 220.33 48.5901 219.79 48.3201C219.25 48.0501 218.72 47.8001 218.19 47.5701L212.35 44.9701C211.24 44.4901 210.19 43.9101 209.2 43.2001C208.21 42.5001 207.36 41.6901 206.66 40.7601C205.96 39.8301 205.45 38.7901 205.13 37.6401C204.81 36.4901 204.76 35.2301 204.97 33.8501C205.22 32.2501 205.8 30.8801 206.7 29.7501C207.6 28.6201 208.76 27.7101 210.18 27.0501C211.6 26.3901 213.21 25.9801 215.04 25.8101C216.87 25.6401 218.83 25.7201 220.92 26.0501C222.57 26.3101 224.07 26.7101 225.43 27.2401C226.78 27.7801 227.97 28.4001 229 29.1001C230.03 29.8001 230.87 30.5601 231.54 31.3701C232.21 32.1801 232.68 32.9801 232.98 33.7901L235.64 34.2101L234.59 40.9101L224.95 39.4001L225.26 37.4601Z" fill="#FFFDFD"/>
</svg>
