<svg width="106" height="119" viewBox="0 0 106 119" fill="none" xmlns="http://www.w3.org/2000/svg">
<path d="M34.1022 19.0285V99.6402L53.7334 118.743L71.9606 100.572V72.6118L59.3394 60.0291L71.9606 47.4464V19.0285L52.7991 0.38855L34.1022 19.0285ZM58.0119 94.825L53.5802 99.2432L48.0457 93.8579V69.9752V69.1913L49.894 71.0339L58.0068 79.122V94.825H58.0119ZM58.0119 24.8719V40.9209L49.8991 49.0091L48.0508 50.8517V24.7803L52.9216 19.9243L58.0119 24.8719Z" fill="#D3B752"/>
<path d="M78.7409 19.0285V96.4793L91.2446 82.9804V35.3575L106 19.0285H78.7409Z" fill="#D3B752"/>
<path d="M27.3678 19.0285V96.4793L14.859 82.9804V35.3575L0.103638 19.0285H27.3678Z" fill="#D3B752"/>
</svg>
