<svg width="170" height="170" viewBox="0 0 170 170" fill="none" xmlns="http://www.w3.org/2000/svg">
<g clip-path="url(#clip0_925_49195)">
<path d="M6.92418 64.6482C8.641 65.1504 10.4387 64.1624 10.9374 62.4425C20.5316 29.4915 51.2279 6.47822 85.5879 6.47822C91.088 6.47822 96.5554 7.05138 101.88 8.18859C101.764 12.8494 103.775 16.0466 105.071 18.1001C105.43 18.6702 105.92 19.4476 105.978 19.5542C105.978 31.1696 103.603 33.0611 103.629 33.0675C98.3785 33.0675 89.7629 37.7576 86.5236 43.805C84.535 47.5138 84.6966 51.4394 86.9737 54.8597C88.5349 57.2017 89.879 59.8056 91.1813 62.3256C93.9344 67.6571 96.9888 73.5717 101.786 73.5717C102.8 73.5717 103.894 73.306 105.08 72.7135C108.857 70.8251 111.565 65.4548 114.182 60.2657C115.335 57.9787 117.029 54.6233 118.033 53.5574C121.32 54.0046 122.927 56.9778 125.101 61.6876C126.701 65.1535 128.356 68.7325 131.608 70.3586C137.082 73.0957 155.081 70.2291 165.028 66.0052C166.515 65.3736 167.308 63.7411 166.887 62.1799C160.089 37.0447 141.623 16.1369 117.486 6.25427C115.831 5.57407 113.935 6.36777 113.259 8.02272C112.582 9.67767 113.375 11.5695 115.03 12.2463C136.412 21.0046 152.973 39.1271 159.823 61.0783C149.743 64.6315 136.807 65.7004 134.504 64.5636C133.286 63.9548 132.062 61.3084 130.983 58.9728C128.725 54.082 125.632 47.3836 117.735 47.0336C113.654 46.7873 111.354 51.4842 108.397 57.3501C106.661 60.7899 104.041 65.9885 101.951 67.0157C100.75 66.734 98.3625 62.1119 96.9372 59.352C95.619 56.7998 94.1257 53.907 92.3637 51.2674C91.4083 49.8357 91.3692 48.4753 92.2343 46.8625C94.4594 42.7099 101.135 39.5454 103.629 39.5454C109.485 39.5454 112.455 32.8212 112.455 19.5539C112.455 17.6689 111.487 16.1335 110.554 14.6467C109.181 12.4732 107.765 10.2224 108.604 6.38067C108.977 4.67372 107.927 2.97626 106.233 2.54885C99.5256 0.858221 92.5778 0 85.5879 0C48.3648 0 15.1094 24.9343 4.71846 60.635C4.21628 62.3518 5.20735 64.1495 6.92418 64.6482Z" fill="#5093EA"/>
<mask id="mask0_925_49195" style="mask-type:alpha" maskUnits="userSpaceOnUse" x="-13" y="56" width="118" height="140">
<rect x="-13" y="56.3228" width="117.228" height="138.787" fill="#D9D9D9"/>
</mask>
<g mask="url(#mask0_925_49195)">
<path d="M169 75.7053C168.753 73.9304 167.095 72.6964 165.349 72.9393C163.578 73.1857 162.337 74.8213 162.583 76.5931C163.076 80.1528 163.325 83.7774 163.325 87.3598C163.325 129.914 147.122 151.542 101.982 159.178C89.1813 157.157 64.2072 148.724 69.0172 137.504C77.6525 117.347 69.6165 109.836 66.1829 106.623L65.5384 106.01C64.5568 105.032 63.4492 104.365 62.4741 103.779C60.1032 102.357 59.4652 101.975 60.7379 98.1557C61.5802 95.6194 62.7007 94.4374 63.9931 93.0671C66.9891 89.8992 69.2791 86.7479 69.2791 77.5876C69.2791 72.2561 66.5746 68.0033 61.8584 65.9206C56.5105 63.5562 49.3684 64.3916 45.592 67.8188C43.2341 69.9631 42.4404 72.8816 43.4186 75.8192C45.7279 82.7347 40.4514 92.7304 30.5919 100.125C27.9812 102.081 27.2038 101.184 26.7374 100.65C23.845 97.3165 24.0685 87.8358 26.4424 85.465C28.0328 83.8745 28.5058 81.8438 27.7056 80.0332C25.082 74.083 8.34575 74.543 5.02598 74.6987C3.44846 74.7731 2.15297 75.9718 1.95862 77.5394C1.54716 80.8884 1.37256 83.8263 1.37256 87.3602C1.37256 126.196 27.6703 159.814 65.3213 169.117C67.051 169.548 68.813 168.485 69.2404 166.749C69.6712 165.013 68.6088 163.258 66.8726 162.83C32.1209 154.242 7.85078 123.206 7.85078 87.3594C7.85078 85.1116 7.9286 83.126 8.10017 81.1017C13.5805 81.0953 18.2352 81.7299 20.6095 82.4557C16.8942 88.2567 17.3022 99.6615 21.8435 104.896C25.0987 108.647 29.8214 108.802 34.4792 105.307C46.9236 95.9754 52.8446 83.5925 49.5635 73.7717C49.4599 73.451 49.3563 73.15 49.9522 72.6091C51.6561 71.0608 55.9932 70.4064 59.2385 71.8446C61.6356 72.9036 62.8016 74.7825 62.8016 77.5876C62.8016 84.8982 61.3277 86.4594 59.2871 88.6166C57.7745 90.2199 55.8896 92.2119 54.5906 96.1086C51.6789 104.857 56.3496 107.662 59.1414 109.337C59.8637 109.768 60.5439 110.176 60.9584 110.59C61.1949 110.827 61.4636 111.08 61.7586 111.355C64.6088 114.017 69.9081 118.976 63.0639 134.948C55.3031 153.058 101.533 159.178 101.982 159.178C107.147 159.178 120.01 156.259 120.622 156.259C167.057 156.259 169.804 133.795 169.804 87.3598C169.803 83.479 169.534 79.5595 169 75.7053Z" fill="white"/>
</g>
</g>
<defs>
<clipPath id="clip0_925_49195">
<rect width="170" height="170" fill="white"/>
</clipPath>
</defs>
</svg>
